G04 (created by PCBNEW (2013-07-07 BZR 4022)-stable) date 2016-03-24 오전 10:08:22*
%MOIN*%
G04 Gerber Fmt 3.4, Leading zero omitted, Abs format*
%FSLAX34Y34*%
G01*
G70*
G90*
G04 APERTURE LIST*
%ADD10C,0.005*%
%ADD11C,0.00787402*%
%ADD12C,0.011811*%
G04 APERTURE END LIST*
G54D10*
G54D11*
X44488Y-10334D02*
X44685Y-10531D01*
X44685Y-10334D02*
X44488Y-10531D01*
X44527Y-10236D02*
X44527Y-10629D01*
X44645Y-10236D02*
X44645Y-10629D01*
X44527Y-10629D02*
G75*
G03X44645Y-10629I59J0D01*
G74*
G01*
X44645Y-10236D02*
G75*
G03X44527Y-10236I-59J0D01*
G74*
G01*
X45177Y-11515D02*
X45374Y-11712D01*
X45374Y-11515D02*
X45177Y-11712D01*
X45472Y-11555D02*
X45078Y-11555D01*
X45472Y-11673D02*
X45078Y-11673D01*
X45078Y-11555D02*
G75*
G03X45078Y-11673I0J-59D01*
G74*
G01*
X45472Y-11673D02*
G75*
G03X45472Y-11555I0J59D01*
G74*
G01*
X45866Y-10334D02*
X46062Y-10531D01*
X46062Y-10334D02*
X45866Y-10531D01*
X45905Y-10236D02*
X45905Y-10629D01*
X46023Y-10236D02*
X46023Y-10629D01*
X45905Y-10629D02*
G75*
G03X46023Y-10629I59J0D01*
G74*
G01*
X46023Y-10236D02*
G75*
G03X45905Y-10236I-59J0D01*
G74*
G01*
X40715Y-25590D02*
G75*
G03X40715Y-25590I-125J0D01*
G74*
G01*
X40715Y-27204D02*
G75*
G03X40715Y-27204I-125J0D01*
G74*
G01*
X41463Y-18897D02*
G75*
G03X41463Y-18897I-125J0D01*
G74*
G01*
X41463Y-19685D02*
G75*
G03X41463Y-19685I-125J0D01*
G74*
G01*
X42250Y-18897D02*
G75*
G03X42250Y-18897I-125J0D01*
G74*
G01*
X42250Y-19685D02*
G75*
G03X42250Y-19685I-125J0D01*
G74*
G01*
X42428Y-24409D02*
G75*
G03X42428Y-24409I-125J0D01*
G74*
G01*
X42447Y-25157D02*
G75*
G03X42447Y-25157I-125J0D01*
G74*
G01*
X42447Y-25984D02*
G75*
G03X42447Y-25984I-125J0D01*
G74*
G01*
X42447Y-27559D02*
G75*
G03X42447Y-27559I-125J0D01*
G74*
G01*
X43432Y-35039D02*
G75*
G03X43432Y-35039I-125J0D01*
G74*
G01*
X43432Y-35826D02*
G75*
G03X43432Y-35826I-125J0D01*
G74*
G01*
X44219Y-35039D02*
G75*
G03X44219Y-35039I-125J0D01*
G74*
G01*
X44219Y-35826D02*
G75*
G03X44219Y-35826I-125J0D01*
G74*
G01*
X45400Y-29527D02*
G75*
G03X45400Y-29527I-125J0D01*
G74*
G01*
X45400Y-30314D02*
G75*
G03X45400Y-30314I-125J0D01*
G74*
G01*
X46187Y-29527D02*
G75*
G03X46187Y-29527I-125J0D01*
G74*
G01*
X46187Y-30314D02*
G75*
G03X46187Y-30314I-125J0D01*
G74*
G01*
X49337Y-23425D02*
G75*
G03X49337Y-23425I-125J0D01*
G74*
G01*
X49337Y-25236D02*
G75*
G03X49337Y-25236I-125J0D01*
G74*
G01*
X49337Y-25984D02*
G75*
G03X49337Y-25984I-125J0D01*
G74*
G01*
X49337Y-26771D02*
G75*
G03X49337Y-26771I-125J0D01*
G74*
G01*
X49337Y-28346D02*
G75*
G03X49337Y-28346I-125J0D01*
G74*
G01*
X49652Y-18031D02*
G75*
G03X49652Y-18031I-125J0D01*
G74*
G01*
X49731Y-16338D02*
G75*
G03X49731Y-16338I-125J0D01*
G74*
G01*
X49731Y-19921D02*
G75*
G03X49731Y-19921I-125J0D01*
G74*
G01*
X49928Y-18700D02*
G75*
G03X49928Y-18700I-125J0D01*
G74*
G01*
X50006Y-17755D02*
G75*
G03X50006Y-17755I-125J0D01*
G74*
G01*
X50046Y-20236D02*
G75*
G03X50046Y-20236I-125J0D01*
G74*
G01*
X50125Y-14960D02*
G75*
G03X50125Y-14960I-125J0D01*
G74*
G01*
X50361Y-17559D02*
G75*
G03X50361Y-17559I-125J0D01*
G74*
G01*
X50361Y-22559D02*
G75*
G03X50361Y-22559I-125J0D01*
G74*
G01*
X50676Y-22125D02*
G75*
G03X50676Y-22125I-125J0D01*
G74*
G01*
X50912Y-15551D02*
G75*
G03X50912Y-15551I-125J0D01*
G74*
G01*
X51306Y-20393D02*
G75*
G03X51306Y-20393I-125J0D01*
G74*
G01*
X51306Y-26377D02*
G75*
G03X51306Y-26377I-125J0D01*
G74*
G01*
X51306Y-27362D02*
G75*
G03X51306Y-27362I-125J0D01*
G74*
G01*
X51699Y-13582D02*
G75*
G03X51699Y-13582I-125J0D01*
G74*
G01*
X51739Y-20787D02*
G75*
G03X51739Y-20787I-125J0D01*
G74*
G01*
X52290Y-19488D02*
G75*
G03X52290Y-19488I-125J0D01*
G74*
G01*
X52290Y-26377D02*
G75*
G03X52290Y-26377I-125J0D01*
G74*
G01*
X52290Y-27952D02*
G75*
G03X52290Y-27952I-125J0D01*
G74*
G01*
X52880Y-19291D02*
G75*
G03X52880Y-19291I-125J0D01*
G74*
G01*
X53668Y-15551D02*
G75*
G03X53668Y-15551I-125J0D01*
G74*
G01*
X53865Y-25196D02*
G75*
G03X53865Y-25196I-125J0D01*
G74*
G01*
X53865Y-25984D02*
G75*
G03X53865Y-25984I-125J0D01*
G74*
G01*
X53865Y-26771D02*
G75*
G03X53865Y-26771I-125J0D01*
G74*
G01*
X53865Y-28346D02*
G75*
G03X53865Y-28346I-125J0D01*
G74*
G01*
X54337Y-38464D02*
G75*
G03X54337Y-38464I-125J0D01*
G74*
G01*
X54455Y-18700D02*
G75*
G03X54455Y-18700I-125J0D01*
G74*
G01*
X54731Y-38031D02*
G75*
G03X54731Y-38031I-125J0D01*
G74*
G01*
X54849Y-19685D02*
G75*
G03X54849Y-19685I-125J0D01*
G74*
G01*
X55046Y-19094D02*
G75*
G03X55046Y-19094I-125J0D01*
G74*
G01*
X55125Y-37677D02*
G75*
G03X55125Y-37677I-125J0D01*
G74*
G01*
X55479Y-37165D02*
G75*
G03X55479Y-37165I-125J0D01*
G74*
G01*
X55833Y-23425D02*
G75*
G03X55833Y-23425I-125J0D01*
G74*
G01*
X56227Y-15551D02*
G75*
G03X56227Y-15551I-125J0D01*
G74*
G01*
X56817Y-29527D02*
G75*
G03X56817Y-29527I-125J0D01*
G74*
G01*
X56817Y-30314D02*
G75*
G03X56817Y-30314I-125J0D01*
G74*
G01*
X57605Y-29527D02*
G75*
G03X57605Y-29527I-125J0D01*
G74*
G01*
X57605Y-30314D02*
G75*
G03X57605Y-30314I-125J0D01*
G74*
G01*
X59180Y-35039D02*
G75*
G03X59180Y-35039I-125J0D01*
G74*
G01*
X59180Y-35826D02*
G75*
G03X59180Y-35826I-125J0D01*
G74*
G01*
X59967Y-19291D02*
G75*
G03X59967Y-19291I-125J0D01*
G74*
G01*
X59967Y-20078D02*
G75*
G03X59967Y-20078I-125J0D01*
G74*
G01*
X59967Y-35039D02*
G75*
G03X59967Y-35039I-125J0D01*
G74*
G01*
X59967Y-35826D02*
G75*
G03X59967Y-35826I-125J0D01*
G74*
G01*
X60558Y-25196D02*
G75*
G03X60558Y-25196I-125J0D01*
G74*
G01*
X60558Y-25984D02*
G75*
G03X60558Y-25984I-125J0D01*
G74*
G01*
X60558Y-27559D02*
G75*
G03X60558Y-27559I-125J0D01*
G74*
G01*
X60754Y-19291D02*
G75*
G03X60754Y-19291I-125J0D01*
G74*
G01*
X60754Y-20078D02*
G75*
G03X60754Y-20078I-125J0D01*
G74*
G01*
X61542Y-26377D02*
G75*
G03X61542Y-26377I-125J0D01*
G74*
G01*
X62329Y-25590D02*
G75*
G03X62329Y-25590I-125J0D01*
G74*
G01*
X62329Y-27165D02*
G75*
G03X62329Y-27165I-125J0D01*
G74*
G01*
X47244Y-17747D02*
X47244Y-18047D01*
X47094Y-17897D02*
X47394Y-17897D01*
X47244Y-19747D02*
X47244Y-20047D01*
X47094Y-19897D02*
X47394Y-19897D01*
X42132Y-11136D02*
X42132Y-10910D01*
X41906Y-10910D01*
X41906Y-11136D01*
X42132Y-11136D01*
X43132Y-11136D02*
X43132Y-10910D01*
X42906Y-10910D01*
X42906Y-11136D01*
X43132Y-11136D01*
X50794Y-11609D02*
X50794Y-11382D01*
X50567Y-11382D01*
X50567Y-11609D01*
X50794Y-11609D01*
X50794Y-12396D02*
X50794Y-12169D01*
X50567Y-12169D01*
X50567Y-12396D01*
X50794Y-12396D01*
X51794Y-11609D02*
X51794Y-11382D01*
X51567Y-11382D01*
X51567Y-11609D01*
X51794Y-11609D01*
X51794Y-12396D02*
X51794Y-12169D01*
X51567Y-12169D01*
X51567Y-12396D01*
X51794Y-12396D01*
X59849Y-11136D02*
X59849Y-10910D01*
X59623Y-10910D01*
X59623Y-11136D01*
X59849Y-11136D01*
X60849Y-11136D02*
X60849Y-10910D01*
X60623Y-10910D01*
X60623Y-11136D01*
X60849Y-11136D01*
X56200Y-8661D02*
X56397Y-8464D01*
X56200Y-8267D01*
X56003Y-8464D01*
X56200Y-8661D01*
X57972Y-8661D02*
X58169Y-8464D01*
X57972Y-8267D01*
X57775Y-8464D01*
X57972Y-8661D01*
X44091Y-15803D02*
X44491Y-16203D01*
X44491Y-15803D02*
X44091Y-16203D01*
X44491Y-16003D02*
G75*
G03X44491Y-16003I-200J0D01*
G74*
G01*
X44091Y-16803D02*
X44491Y-17203D01*
X44491Y-16803D02*
X44091Y-17203D01*
X44491Y-17003D02*
G75*
G03X44491Y-17003I-200J0D01*
G74*
G01*
X44091Y-17803D02*
X44491Y-18203D01*
X44491Y-17803D02*
X44091Y-18203D01*
X44491Y-18003D02*
G75*
G03X44491Y-18003I-200J0D01*
G74*
G01*
X44091Y-18803D02*
X44491Y-19203D01*
X44491Y-18803D02*
X44091Y-19203D01*
X44491Y-19003D02*
G75*
G03X44491Y-19003I-200J0D01*
G74*
G01*
X44091Y-19803D02*
X44491Y-20203D01*
X44491Y-19803D02*
X44091Y-20203D01*
X44491Y-20003D02*
G75*
G03X44491Y-20003I-200J0D01*
G74*
G01*
X44091Y-20803D02*
X44491Y-21203D01*
X44491Y-20803D02*
X44091Y-21203D01*
X44491Y-21003D02*
G75*
G03X44491Y-21003I-200J0D01*
G74*
G01*
X49174Y-35914D02*
X49574Y-36314D01*
X49574Y-35914D02*
X49174Y-36314D01*
X49574Y-36114D02*
G75*
G03X49574Y-36114I-200J0D01*
G74*
G01*
X49724Y-36914D02*
X50124Y-37314D01*
X50124Y-36914D02*
X49724Y-37314D01*
X50124Y-37114D02*
G75*
G03X50124Y-37114I-200J0D01*
G74*
G01*
X50274Y-35914D02*
X50674Y-36314D01*
X50674Y-35914D02*
X50274Y-36314D01*
X50674Y-36114D02*
G75*
G03X50674Y-36114I-200J0D01*
G74*
G01*
X50824Y-36914D02*
X51224Y-37314D01*
X51224Y-36914D02*
X50824Y-37314D01*
X51224Y-37114D02*
G75*
G03X51224Y-37114I-200J0D01*
G74*
G01*
X51374Y-35914D02*
X51774Y-36314D01*
X51774Y-35914D02*
X51374Y-36314D01*
X51774Y-36114D02*
G75*
G03X51774Y-36114I-200J0D01*
G74*
G01*
X51874Y-36914D02*
X52274Y-37314D01*
X52274Y-36914D02*
X51874Y-37314D01*
X52274Y-37114D02*
G75*
G03X52274Y-37114I-200J0D01*
G74*
G01*
X52424Y-35914D02*
X52824Y-36314D01*
X52824Y-35914D02*
X52424Y-36314D01*
X52824Y-36114D02*
G75*
G03X52824Y-36114I-200J0D01*
G74*
G01*
X52974Y-36914D02*
X53374Y-37314D01*
X53374Y-36914D02*
X52974Y-37314D01*
X53374Y-37114D02*
G75*
G03X53374Y-37114I-200J0D01*
G74*
G01*
X53524Y-35914D02*
X53924Y-36314D01*
X53924Y-35914D02*
X53524Y-36314D01*
X53924Y-36114D02*
G75*
G03X53924Y-36114I-200J0D01*
G74*
G01*
X55452Y-9192D02*
X55964Y-9704D01*
X55964Y-9192D02*
X55452Y-9704D01*
X55708Y-9192D02*
X55708Y-9704D01*
X55452Y-9448D02*
X55964Y-9448D01*
X58208Y-9192D02*
X58720Y-9704D01*
X58720Y-9192D02*
X58208Y-9704D01*
X58464Y-9192D02*
X58464Y-9704D01*
X58208Y-9448D02*
X58720Y-9448D01*
X53090Y-9980D02*
X53996Y-10886D01*
X53996Y-9980D02*
X53090Y-10886D01*
X53863Y-10753D02*
X53863Y-10112D01*
X53222Y-10112D01*
X53222Y-10753D01*
X53863Y-10753D01*
X45924Y-36514D02*
X47124Y-37714D01*
X47124Y-36514D02*
X45924Y-37714D01*
X46524Y-37714D02*
X47124Y-37114D01*
X46524Y-36514D01*
X45924Y-37114D01*
X46524Y-37714D01*
X55924Y-36514D02*
X57124Y-37714D01*
X57124Y-36514D02*
X55924Y-37714D01*
X56524Y-37714D02*
X57124Y-37114D01*
X56524Y-36514D01*
X55924Y-37114D01*
X56524Y-37714D01*
G54D12*
X1068Y-1777D02*
X1068Y-596D01*
X1349Y-596D01*
X1518Y-652D01*
X1631Y-764D01*
X1687Y-877D01*
X1743Y-1102D01*
X1743Y-1271D01*
X1687Y-1496D01*
X1631Y-1608D01*
X1518Y-1721D01*
X1349Y-1777D01*
X1068Y-1777D01*
X2249Y-1777D02*
X2249Y-989D01*
X2249Y-1214D02*
X2305Y-1102D01*
X2362Y-1046D01*
X2474Y-989D01*
X2587Y-989D01*
X2980Y-1777D02*
X2980Y-989D01*
X2980Y-596D02*
X2924Y-652D01*
X2980Y-708D01*
X3037Y-652D01*
X2980Y-596D01*
X2980Y-708D01*
X3712Y-1777D02*
X3599Y-1721D01*
X3543Y-1608D01*
X3543Y-596D01*
X4330Y-1777D02*
X4218Y-1721D01*
X4161Y-1608D01*
X4161Y-596D01*
X5680Y-1777D02*
X5680Y-596D01*
X6074Y-1439D01*
X6467Y-596D01*
X6467Y-1777D01*
X7536Y-1777D02*
X7536Y-1158D01*
X7480Y-1046D01*
X7367Y-989D01*
X7142Y-989D01*
X7030Y-1046D01*
X7536Y-1721D02*
X7424Y-1777D01*
X7142Y-1777D01*
X7030Y-1721D01*
X6974Y-1608D01*
X6974Y-1496D01*
X7030Y-1383D01*
X7142Y-1327D01*
X7424Y-1327D01*
X7536Y-1271D01*
X8098Y-989D02*
X8098Y-2170D01*
X8098Y-1046D02*
X8211Y-989D01*
X8436Y-989D01*
X8548Y-1046D01*
X8605Y-1102D01*
X8661Y-1214D01*
X8661Y-1552D01*
X8605Y-1664D01*
X8548Y-1721D01*
X8436Y-1777D01*
X8211Y-1777D01*
X8098Y-1721D01*
X9167Y-1664D02*
X9223Y-1721D01*
X9167Y-1777D01*
X9111Y-1721D01*
X9167Y-1664D01*
X9167Y-1777D01*
X9167Y-1046D02*
X9223Y-1102D01*
X9167Y-1158D01*
X9111Y-1102D01*
X9167Y-1046D01*
X9167Y-1158D01*
X-196Y-3681D02*
X0Y-3877D01*
X0Y-3681D02*
X-196Y-3877D01*
X1293Y-3076D02*
X1406Y-3076D01*
X1518Y-3132D01*
X1574Y-3188D01*
X1631Y-3301D01*
X1687Y-3526D01*
X1687Y-3807D01*
X1631Y-4032D01*
X1574Y-4145D01*
X1518Y-4201D01*
X1406Y-4257D01*
X1293Y-4257D01*
X1181Y-4201D01*
X1124Y-4145D01*
X1068Y-4032D01*
X1012Y-3807D01*
X1012Y-3526D01*
X1068Y-3301D01*
X1124Y-3188D01*
X1181Y-3132D01*
X1293Y-3076D01*
X2193Y-4145D02*
X2249Y-4201D01*
X2193Y-4257D01*
X2137Y-4201D01*
X2193Y-4145D01*
X2193Y-4257D01*
X3318Y-3076D02*
X2755Y-3076D01*
X2699Y-3638D01*
X2755Y-3582D01*
X2868Y-3526D01*
X3149Y-3526D01*
X3262Y-3582D01*
X3318Y-3638D01*
X3374Y-3751D01*
X3374Y-4032D01*
X3318Y-4145D01*
X3262Y-4201D01*
X3149Y-4257D01*
X2868Y-4257D01*
X2755Y-4201D01*
X2699Y-4145D01*
X4105Y-3076D02*
X4218Y-3076D01*
X4330Y-3132D01*
X4386Y-3188D01*
X4443Y-3301D01*
X4499Y-3526D01*
X4499Y-3807D01*
X4443Y-4032D01*
X4386Y-4145D01*
X4330Y-4201D01*
X4218Y-4257D01*
X4105Y-4257D01*
X3993Y-4201D01*
X3937Y-4145D01*
X3880Y-4032D01*
X3824Y-3807D01*
X3824Y-3526D01*
X3880Y-3301D01*
X3937Y-3188D01*
X3993Y-3132D01*
X4105Y-3076D01*
X5005Y-4257D02*
X5005Y-3470D01*
X5005Y-3582D02*
X5061Y-3526D01*
X5174Y-3470D01*
X5343Y-3470D01*
X5455Y-3526D01*
X5511Y-3638D01*
X5511Y-4257D01*
X5511Y-3638D02*
X5568Y-3526D01*
X5680Y-3470D01*
X5849Y-3470D01*
X5961Y-3526D01*
X6017Y-3638D01*
X6017Y-4257D01*
X6580Y-4257D02*
X6580Y-3470D01*
X6580Y-3582D02*
X6636Y-3526D01*
X6749Y-3470D01*
X6917Y-3470D01*
X7030Y-3526D01*
X7086Y-3638D01*
X7086Y-4257D01*
X7086Y-3638D02*
X7142Y-3526D01*
X7255Y-3470D01*
X7424Y-3470D01*
X7536Y-3526D01*
X7592Y-3638D01*
X7592Y-4257D01*
X9898Y-3020D02*
X8886Y-4538D01*
X11417Y-3076D02*
X11529Y-3076D01*
X11642Y-3132D01*
X11698Y-3188D01*
X11754Y-3301D01*
X11811Y-3526D01*
X11811Y-3807D01*
X11754Y-4032D01*
X11698Y-4145D01*
X11642Y-4201D01*
X11529Y-4257D01*
X11417Y-4257D01*
X11304Y-4201D01*
X11248Y-4145D01*
X11192Y-4032D01*
X11136Y-3807D01*
X11136Y-3526D01*
X11192Y-3301D01*
X11248Y-3188D01*
X11304Y-3132D01*
X11417Y-3076D01*
X12317Y-4145D02*
X12373Y-4201D01*
X12317Y-4257D01*
X12260Y-4201D01*
X12317Y-4145D01*
X12317Y-4257D01*
X13104Y-3076D02*
X13217Y-3076D01*
X13329Y-3132D01*
X13385Y-3188D01*
X13442Y-3301D01*
X13498Y-3526D01*
X13498Y-3807D01*
X13442Y-4032D01*
X13385Y-4145D01*
X13329Y-4201D01*
X13217Y-4257D01*
X13104Y-4257D01*
X12992Y-4201D01*
X12935Y-4145D01*
X12879Y-4032D01*
X12823Y-3807D01*
X12823Y-3526D01*
X12879Y-3301D01*
X12935Y-3188D01*
X12992Y-3132D01*
X13104Y-3076D01*
X13948Y-3188D02*
X14004Y-3132D01*
X14116Y-3076D01*
X14398Y-3076D01*
X14510Y-3132D01*
X14566Y-3188D01*
X14623Y-3301D01*
X14623Y-3413D01*
X14566Y-3582D01*
X13892Y-4257D01*
X14623Y-4257D01*
X15354Y-3076D02*
X15466Y-3076D01*
X15579Y-3132D01*
X15635Y-3188D01*
X15691Y-3301D01*
X15748Y-3526D01*
X15748Y-3807D01*
X15691Y-4032D01*
X15635Y-4145D01*
X15579Y-4201D01*
X15466Y-4257D01*
X15354Y-4257D01*
X15241Y-4201D01*
X15185Y-4145D01*
X15129Y-4032D01*
X15073Y-3807D01*
X15073Y-3526D01*
X15129Y-3301D01*
X15185Y-3188D01*
X15241Y-3132D01*
X15354Y-3076D01*
X16197Y-3076D02*
X16197Y-3301D01*
X16647Y-3076D02*
X16647Y-3301D01*
X18391Y-4707D02*
X18335Y-4651D01*
X18222Y-4482D01*
X18166Y-4370D01*
X18110Y-4201D01*
X18053Y-3920D01*
X18053Y-3695D01*
X18110Y-3413D01*
X18166Y-3245D01*
X18222Y-3132D01*
X18335Y-2964D01*
X18391Y-2907D01*
X19066Y-3076D02*
X19178Y-3076D01*
X19291Y-3132D01*
X19347Y-3188D01*
X19403Y-3301D01*
X19460Y-3526D01*
X19460Y-3807D01*
X19403Y-4032D01*
X19347Y-4145D01*
X19291Y-4201D01*
X19178Y-4257D01*
X19066Y-4257D01*
X18953Y-4201D01*
X18897Y-4145D01*
X18841Y-4032D01*
X18785Y-3807D01*
X18785Y-3526D01*
X18841Y-3301D01*
X18897Y-3188D01*
X18953Y-3132D01*
X19066Y-3076D01*
X20866Y-4257D02*
X20866Y-3076D01*
X21372Y-4257D02*
X21372Y-3638D01*
X21316Y-3526D01*
X21203Y-3470D01*
X21034Y-3470D01*
X20922Y-3526D01*
X20866Y-3582D01*
X22103Y-4257D02*
X21991Y-4201D01*
X21934Y-4145D01*
X21878Y-4032D01*
X21878Y-3695D01*
X21934Y-3582D01*
X21991Y-3526D01*
X22103Y-3470D01*
X22272Y-3470D01*
X22384Y-3526D01*
X22440Y-3582D01*
X22497Y-3695D01*
X22497Y-4032D01*
X22440Y-4145D01*
X22384Y-4201D01*
X22272Y-4257D01*
X22103Y-4257D01*
X23172Y-4257D02*
X23059Y-4201D01*
X23003Y-4088D01*
X23003Y-3076D01*
X24071Y-4201D02*
X23959Y-4257D01*
X23734Y-4257D01*
X23622Y-4201D01*
X23565Y-4088D01*
X23565Y-3638D01*
X23622Y-3526D01*
X23734Y-3470D01*
X23959Y-3470D01*
X24071Y-3526D01*
X24128Y-3638D01*
X24128Y-3751D01*
X23565Y-3863D01*
X24578Y-4201D02*
X24690Y-4257D01*
X24915Y-4257D01*
X25028Y-4201D01*
X25084Y-4088D01*
X25084Y-4032D01*
X25028Y-3920D01*
X24915Y-3863D01*
X24746Y-3863D01*
X24634Y-3807D01*
X24578Y-3695D01*
X24578Y-3638D01*
X24634Y-3526D01*
X24746Y-3470D01*
X24915Y-3470D01*
X25028Y-3526D01*
X26490Y-3807D02*
X27390Y-3807D01*
X26940Y-4257D02*
X26940Y-3357D01*
X28740Y-3076D02*
X29471Y-3076D01*
X29077Y-3526D01*
X29246Y-3526D01*
X29358Y-3582D01*
X29415Y-3638D01*
X29471Y-3751D01*
X29471Y-4032D01*
X29415Y-4145D01*
X29358Y-4201D01*
X29246Y-4257D01*
X28908Y-4257D01*
X28796Y-4201D01*
X28740Y-4145D01*
X30821Y-4201D02*
X30933Y-4257D01*
X31158Y-4257D01*
X31271Y-4201D01*
X31327Y-4088D01*
X31327Y-4032D01*
X31271Y-3920D01*
X31158Y-3863D01*
X30989Y-3863D01*
X30877Y-3807D01*
X30821Y-3695D01*
X30821Y-3638D01*
X30877Y-3526D01*
X30989Y-3470D01*
X31158Y-3470D01*
X31271Y-3526D01*
X32002Y-4257D02*
X31889Y-4201D01*
X31833Y-4088D01*
X31833Y-3076D01*
X32620Y-4257D02*
X32508Y-4201D01*
X32452Y-4145D01*
X32395Y-4032D01*
X32395Y-3695D01*
X32452Y-3582D01*
X32508Y-3526D01*
X32620Y-3470D01*
X32789Y-3470D01*
X32902Y-3526D01*
X32958Y-3582D01*
X33014Y-3695D01*
X33014Y-4032D01*
X32958Y-4145D01*
X32902Y-4201D01*
X32789Y-4257D01*
X32620Y-4257D01*
X33352Y-3470D02*
X33802Y-3470D01*
X33520Y-3076D02*
X33520Y-4088D01*
X33577Y-4201D01*
X33689Y-4257D01*
X33802Y-4257D01*
X34139Y-4201D02*
X34251Y-4257D01*
X34476Y-4257D01*
X34589Y-4201D01*
X34645Y-4088D01*
X34645Y-4032D01*
X34589Y-3920D01*
X34476Y-3863D01*
X34308Y-3863D01*
X34195Y-3807D01*
X34139Y-3695D01*
X34139Y-3638D01*
X34195Y-3526D01*
X34308Y-3470D01*
X34476Y-3470D01*
X34589Y-3526D01*
X35039Y-4707D02*
X35095Y-4651D01*
X35208Y-4482D01*
X35264Y-4370D01*
X35320Y-4201D01*
X35376Y-3920D01*
X35376Y-3695D01*
X35320Y-3413D01*
X35264Y-3245D01*
X35208Y-3132D01*
X35095Y-2964D01*
X35039Y-2907D01*
G54D11*
X0Y-5338D02*
G75*
G03X0Y-5338I-125J0D01*
G74*
G01*
G54D12*
X1293Y-4635D02*
X1406Y-4635D01*
X1518Y-4691D01*
X1574Y-4748D01*
X1631Y-4860D01*
X1687Y-5085D01*
X1687Y-5366D01*
X1631Y-5591D01*
X1574Y-5704D01*
X1518Y-5760D01*
X1406Y-5816D01*
X1293Y-5816D01*
X1181Y-5760D01*
X1124Y-5704D01*
X1068Y-5591D01*
X1012Y-5366D01*
X1012Y-5085D01*
X1068Y-4860D01*
X1124Y-4748D01*
X1181Y-4691D01*
X1293Y-4635D01*
X2193Y-5704D02*
X2249Y-5760D01*
X2193Y-5816D01*
X2137Y-5760D01*
X2193Y-5704D01*
X2193Y-5816D01*
X3262Y-4635D02*
X3037Y-4635D01*
X2924Y-4691D01*
X2868Y-4748D01*
X2755Y-4916D01*
X2699Y-5141D01*
X2699Y-5591D01*
X2755Y-5704D01*
X2812Y-5760D01*
X2924Y-5816D01*
X3149Y-5816D01*
X3262Y-5760D01*
X3318Y-5704D01*
X3374Y-5591D01*
X3374Y-5310D01*
X3318Y-5197D01*
X3262Y-5141D01*
X3149Y-5085D01*
X2924Y-5085D01*
X2812Y-5141D01*
X2755Y-5197D01*
X2699Y-5310D01*
X4386Y-5029D02*
X4386Y-5816D01*
X4105Y-4579D02*
X3824Y-5422D01*
X4555Y-5422D01*
X5005Y-5816D02*
X5005Y-5029D01*
X5005Y-5141D02*
X5061Y-5085D01*
X5174Y-5029D01*
X5343Y-5029D01*
X5455Y-5085D01*
X5511Y-5197D01*
X5511Y-5816D01*
X5511Y-5197D02*
X5568Y-5085D01*
X5680Y-5029D01*
X5849Y-5029D01*
X5961Y-5085D01*
X6017Y-5197D01*
X6017Y-5816D01*
X6580Y-5816D02*
X6580Y-5029D01*
X6580Y-5141D02*
X6636Y-5085D01*
X6749Y-5029D01*
X6917Y-5029D01*
X7030Y-5085D01*
X7086Y-5197D01*
X7086Y-5816D01*
X7086Y-5197D02*
X7142Y-5085D01*
X7255Y-5029D01*
X7424Y-5029D01*
X7536Y-5085D01*
X7592Y-5197D01*
X7592Y-5816D01*
X9898Y-4579D02*
X8886Y-6097D01*
X11417Y-4635D02*
X11529Y-4635D01*
X11642Y-4691D01*
X11698Y-4748D01*
X11754Y-4860D01*
X11811Y-5085D01*
X11811Y-5366D01*
X11754Y-5591D01*
X11698Y-5704D01*
X11642Y-5760D01*
X11529Y-5816D01*
X11417Y-5816D01*
X11304Y-5760D01*
X11248Y-5704D01*
X11192Y-5591D01*
X11136Y-5366D01*
X11136Y-5085D01*
X11192Y-4860D01*
X11248Y-4748D01*
X11304Y-4691D01*
X11417Y-4635D01*
X12317Y-5704D02*
X12373Y-5760D01*
X12317Y-5816D01*
X12260Y-5760D01*
X12317Y-5704D01*
X12317Y-5816D01*
X13104Y-4635D02*
X13217Y-4635D01*
X13329Y-4691D01*
X13385Y-4748D01*
X13442Y-4860D01*
X13498Y-5085D01*
X13498Y-5366D01*
X13442Y-5591D01*
X13385Y-5704D01*
X13329Y-5760D01*
X13217Y-5816D01*
X13104Y-5816D01*
X12992Y-5760D01*
X12935Y-5704D01*
X12879Y-5591D01*
X12823Y-5366D01*
X12823Y-5085D01*
X12879Y-4860D01*
X12935Y-4748D01*
X12992Y-4691D01*
X13104Y-4635D01*
X13948Y-4748D02*
X14004Y-4691D01*
X14116Y-4635D01*
X14398Y-4635D01*
X14510Y-4691D01*
X14566Y-4748D01*
X14623Y-4860D01*
X14623Y-4973D01*
X14566Y-5141D01*
X13892Y-5816D01*
X14623Y-5816D01*
X15691Y-4635D02*
X15129Y-4635D01*
X15073Y-5197D01*
X15129Y-5141D01*
X15241Y-5085D01*
X15523Y-5085D01*
X15635Y-5141D01*
X15691Y-5197D01*
X15748Y-5310D01*
X15748Y-5591D01*
X15691Y-5704D01*
X15635Y-5760D01*
X15523Y-5816D01*
X15241Y-5816D01*
X15129Y-5760D01*
X15073Y-5704D01*
X16197Y-4635D02*
X16197Y-4860D01*
X16647Y-4635D02*
X16647Y-4860D01*
X18391Y-6266D02*
X18335Y-6210D01*
X18222Y-6041D01*
X18166Y-5929D01*
X18110Y-5760D01*
X18053Y-5479D01*
X18053Y-5254D01*
X18110Y-4973D01*
X18166Y-4804D01*
X18222Y-4691D01*
X18335Y-4523D01*
X18391Y-4466D01*
X18728Y-4635D02*
X19516Y-4635D01*
X19010Y-5816D01*
X20528Y-4635D02*
X19966Y-4635D01*
X19910Y-5197D01*
X19966Y-5141D01*
X20078Y-5085D01*
X20359Y-5085D01*
X20472Y-5141D01*
X20528Y-5197D01*
X20584Y-5310D01*
X20584Y-5591D01*
X20528Y-5704D01*
X20472Y-5760D01*
X20359Y-5816D01*
X20078Y-5816D01*
X19966Y-5760D01*
X19910Y-5704D01*
X21991Y-5816D02*
X21991Y-4635D01*
X22497Y-5816D02*
X22497Y-5197D01*
X22440Y-5085D01*
X22328Y-5029D01*
X22159Y-5029D01*
X22047Y-5085D01*
X21991Y-5141D01*
X23228Y-5816D02*
X23115Y-5760D01*
X23059Y-5704D01*
X23003Y-5591D01*
X23003Y-5254D01*
X23059Y-5141D01*
X23115Y-5085D01*
X23228Y-5029D01*
X23397Y-5029D01*
X23509Y-5085D01*
X23565Y-5141D01*
X23622Y-5254D01*
X23622Y-5591D01*
X23565Y-5704D01*
X23509Y-5760D01*
X23397Y-5816D01*
X23228Y-5816D01*
X24296Y-5816D02*
X24184Y-5760D01*
X24128Y-5647D01*
X24128Y-4635D01*
X25196Y-5760D02*
X25084Y-5816D01*
X24859Y-5816D01*
X24746Y-5760D01*
X24690Y-5647D01*
X24690Y-5197D01*
X24746Y-5085D01*
X24859Y-5029D01*
X25084Y-5029D01*
X25196Y-5085D01*
X25253Y-5197D01*
X25253Y-5310D01*
X24690Y-5422D01*
X25703Y-5760D02*
X25815Y-5816D01*
X26040Y-5816D01*
X26152Y-5760D01*
X26209Y-5647D01*
X26209Y-5591D01*
X26152Y-5479D01*
X26040Y-5422D01*
X25871Y-5422D01*
X25759Y-5366D01*
X25703Y-5254D01*
X25703Y-5197D01*
X25759Y-5085D01*
X25871Y-5029D01*
X26040Y-5029D01*
X26152Y-5085D01*
X26602Y-6266D02*
X26659Y-6210D01*
X26771Y-6041D01*
X26827Y-5929D01*
X26884Y-5760D01*
X26940Y-5479D01*
X26940Y-5254D01*
X26884Y-4973D01*
X26827Y-4804D01*
X26771Y-4691D01*
X26659Y-4523D01*
X26602Y-4466D01*
X-150Y-6747D02*
X-150Y-7047D01*
X-300Y-6897D02*
X0Y-6897D01*
X1293Y-6194D02*
X1406Y-6194D01*
X1518Y-6250D01*
X1574Y-6307D01*
X1631Y-6419D01*
X1687Y-6644D01*
X1687Y-6925D01*
X1631Y-7150D01*
X1574Y-7263D01*
X1518Y-7319D01*
X1406Y-7375D01*
X1293Y-7375D01*
X1181Y-7319D01*
X1124Y-7263D01*
X1068Y-7150D01*
X1012Y-6925D01*
X1012Y-6644D01*
X1068Y-6419D01*
X1124Y-6307D01*
X1181Y-6250D01*
X1293Y-6194D01*
X2193Y-7263D02*
X2249Y-7319D01*
X2193Y-7375D01*
X2137Y-7319D01*
X2193Y-7263D01*
X2193Y-7375D01*
X2643Y-6194D02*
X3430Y-6194D01*
X2924Y-7375D01*
X4386Y-6194D02*
X4161Y-6194D01*
X4049Y-6250D01*
X3993Y-6307D01*
X3880Y-6475D01*
X3824Y-6700D01*
X3824Y-7150D01*
X3880Y-7263D01*
X3937Y-7319D01*
X4049Y-7375D01*
X4274Y-7375D01*
X4386Y-7319D01*
X4443Y-7263D01*
X4499Y-7150D01*
X4499Y-6869D01*
X4443Y-6757D01*
X4386Y-6700D01*
X4274Y-6644D01*
X4049Y-6644D01*
X3937Y-6700D01*
X3880Y-6757D01*
X3824Y-6869D01*
X5005Y-7375D02*
X5005Y-6588D01*
X5005Y-6700D02*
X5061Y-6644D01*
X5174Y-6588D01*
X5343Y-6588D01*
X5455Y-6644D01*
X5511Y-6757D01*
X5511Y-7375D01*
X5511Y-6757D02*
X5568Y-6644D01*
X5680Y-6588D01*
X5849Y-6588D01*
X5961Y-6644D01*
X6017Y-6757D01*
X6017Y-7375D01*
X6580Y-7375D02*
X6580Y-6588D01*
X6580Y-6700D02*
X6636Y-6644D01*
X6749Y-6588D01*
X6917Y-6588D01*
X7030Y-6644D01*
X7086Y-6757D01*
X7086Y-7375D01*
X7086Y-6757D02*
X7142Y-6644D01*
X7255Y-6588D01*
X7424Y-6588D01*
X7536Y-6644D01*
X7592Y-6757D01*
X7592Y-7375D01*
X9898Y-6138D02*
X8886Y-7656D01*
X11417Y-6194D02*
X11529Y-6194D01*
X11642Y-6250D01*
X11698Y-6307D01*
X11754Y-6419D01*
X11811Y-6644D01*
X11811Y-6925D01*
X11754Y-7150D01*
X11698Y-7263D01*
X11642Y-7319D01*
X11529Y-7375D01*
X11417Y-7375D01*
X11304Y-7319D01*
X11248Y-7263D01*
X11192Y-7150D01*
X11136Y-6925D01*
X11136Y-6644D01*
X11192Y-6419D01*
X11248Y-6307D01*
X11304Y-6250D01*
X11417Y-6194D01*
X12317Y-7263D02*
X12373Y-7319D01*
X12317Y-7375D01*
X12260Y-7319D01*
X12317Y-7263D01*
X12317Y-7375D01*
X13104Y-6194D02*
X13217Y-6194D01*
X13329Y-6250D01*
X13385Y-6307D01*
X13442Y-6419D01*
X13498Y-6644D01*
X13498Y-6925D01*
X13442Y-7150D01*
X13385Y-7263D01*
X13329Y-7319D01*
X13217Y-7375D01*
X13104Y-7375D01*
X12992Y-7319D01*
X12935Y-7263D01*
X12879Y-7150D01*
X12823Y-6925D01*
X12823Y-6644D01*
X12879Y-6419D01*
X12935Y-6307D01*
X12992Y-6250D01*
X13104Y-6194D01*
X13892Y-6194D02*
X14623Y-6194D01*
X14229Y-6644D01*
X14398Y-6644D01*
X14510Y-6700D01*
X14566Y-6757D01*
X14623Y-6869D01*
X14623Y-7150D01*
X14566Y-7263D01*
X14510Y-7319D01*
X14398Y-7375D01*
X14060Y-7375D01*
X13948Y-7319D01*
X13892Y-7263D01*
X15354Y-6194D02*
X15466Y-6194D01*
X15579Y-6250D01*
X15635Y-6307D01*
X15691Y-6419D01*
X15748Y-6644D01*
X15748Y-6925D01*
X15691Y-7150D01*
X15635Y-7263D01*
X15579Y-7319D01*
X15466Y-7375D01*
X15354Y-7375D01*
X15241Y-7319D01*
X15185Y-7263D01*
X15129Y-7150D01*
X15073Y-6925D01*
X15073Y-6644D01*
X15129Y-6419D01*
X15185Y-6307D01*
X15241Y-6250D01*
X15354Y-6194D01*
X16197Y-6194D02*
X16197Y-6419D01*
X16647Y-6194D02*
X16647Y-6419D01*
X18391Y-7825D02*
X18335Y-7769D01*
X18222Y-7600D01*
X18166Y-7488D01*
X18110Y-7319D01*
X18053Y-7038D01*
X18053Y-6813D01*
X18110Y-6532D01*
X18166Y-6363D01*
X18222Y-6250D01*
X18335Y-6082D01*
X18391Y-6025D01*
X18785Y-6307D02*
X18841Y-6250D01*
X18953Y-6194D01*
X19235Y-6194D01*
X19347Y-6250D01*
X19403Y-6307D01*
X19460Y-6419D01*
X19460Y-6532D01*
X19403Y-6700D01*
X18728Y-7375D01*
X19460Y-7375D01*
X20866Y-7375D02*
X20866Y-6194D01*
X21372Y-7375D02*
X21372Y-6757D01*
X21316Y-6644D01*
X21203Y-6588D01*
X21034Y-6588D01*
X20922Y-6644D01*
X20866Y-6700D01*
X22103Y-7375D02*
X21991Y-7319D01*
X21934Y-7263D01*
X21878Y-7150D01*
X21878Y-6813D01*
X21934Y-6700D01*
X21991Y-6644D01*
X22103Y-6588D01*
X22272Y-6588D01*
X22384Y-6644D01*
X22440Y-6700D01*
X22497Y-6813D01*
X22497Y-7150D01*
X22440Y-7263D01*
X22384Y-7319D01*
X22272Y-7375D01*
X22103Y-7375D01*
X23172Y-7375D02*
X23059Y-7319D01*
X23003Y-7206D01*
X23003Y-6194D01*
X24071Y-7319D02*
X23959Y-7375D01*
X23734Y-7375D01*
X23622Y-7319D01*
X23565Y-7206D01*
X23565Y-6757D01*
X23622Y-6644D01*
X23734Y-6588D01*
X23959Y-6588D01*
X24071Y-6644D01*
X24128Y-6757D01*
X24128Y-6869D01*
X23565Y-6982D01*
X24578Y-7319D02*
X24690Y-7375D01*
X24915Y-7375D01*
X25028Y-7319D01*
X25084Y-7206D01*
X25084Y-7150D01*
X25028Y-7038D01*
X24915Y-6982D01*
X24746Y-6982D01*
X24634Y-6925D01*
X24578Y-6813D01*
X24578Y-6757D01*
X24634Y-6644D01*
X24746Y-6588D01*
X24915Y-6588D01*
X25028Y-6644D01*
X25478Y-7825D02*
X25534Y-7769D01*
X25646Y-7600D01*
X25703Y-7488D01*
X25759Y-7319D01*
X25815Y-7038D01*
X25815Y-6813D01*
X25759Y-6532D01*
X25703Y-6363D01*
X25646Y-6250D01*
X25534Y-6082D01*
X25478Y-6025D01*
G54D11*
X-46Y-8569D02*
X-46Y-8343D01*
X-273Y-8343D01*
X-273Y-8569D01*
X-46Y-8569D01*
G54D12*
X1293Y-7753D02*
X1406Y-7753D01*
X1518Y-7809D01*
X1574Y-7866D01*
X1631Y-7978D01*
X1687Y-8203D01*
X1687Y-8484D01*
X1631Y-8709D01*
X1574Y-8822D01*
X1518Y-8878D01*
X1406Y-8934D01*
X1293Y-8934D01*
X1181Y-8878D01*
X1124Y-8822D01*
X1068Y-8709D01*
X1012Y-8484D01*
X1012Y-8203D01*
X1068Y-7978D01*
X1124Y-7866D01*
X1181Y-7809D01*
X1293Y-7753D01*
X2193Y-8822D02*
X2249Y-8878D01*
X2193Y-8934D01*
X2137Y-8878D01*
X2193Y-8822D01*
X2193Y-8934D01*
X2924Y-8259D02*
X2812Y-8203D01*
X2755Y-8147D01*
X2699Y-8034D01*
X2699Y-7978D01*
X2755Y-7866D01*
X2812Y-7809D01*
X2924Y-7753D01*
X3149Y-7753D01*
X3262Y-7809D01*
X3318Y-7866D01*
X3374Y-7978D01*
X3374Y-8034D01*
X3318Y-8147D01*
X3262Y-8203D01*
X3149Y-8259D01*
X2924Y-8259D01*
X2812Y-8316D01*
X2755Y-8372D01*
X2699Y-8484D01*
X2699Y-8709D01*
X2755Y-8822D01*
X2812Y-8878D01*
X2924Y-8934D01*
X3149Y-8934D01*
X3262Y-8878D01*
X3318Y-8822D01*
X3374Y-8709D01*
X3374Y-8484D01*
X3318Y-8372D01*
X3262Y-8316D01*
X3149Y-8259D01*
X4499Y-8934D02*
X3824Y-8934D01*
X4161Y-8934D02*
X4161Y-7753D01*
X4049Y-7922D01*
X3937Y-8034D01*
X3824Y-8091D01*
X5005Y-8934D02*
X5005Y-8147D01*
X5005Y-8259D02*
X5061Y-8203D01*
X5174Y-8147D01*
X5343Y-8147D01*
X5455Y-8203D01*
X5511Y-8316D01*
X5511Y-8934D01*
X5511Y-8316D02*
X5568Y-8203D01*
X5680Y-8147D01*
X5849Y-8147D01*
X5961Y-8203D01*
X6017Y-8316D01*
X6017Y-8934D01*
X6580Y-8934D02*
X6580Y-8147D01*
X6580Y-8259D02*
X6636Y-8203D01*
X6749Y-8147D01*
X6917Y-8147D01*
X7030Y-8203D01*
X7086Y-8316D01*
X7086Y-8934D01*
X7086Y-8316D02*
X7142Y-8203D01*
X7255Y-8147D01*
X7424Y-8147D01*
X7536Y-8203D01*
X7592Y-8316D01*
X7592Y-8934D01*
X9898Y-7697D02*
X8886Y-9215D01*
X11417Y-7753D02*
X11529Y-7753D01*
X11642Y-7809D01*
X11698Y-7866D01*
X11754Y-7978D01*
X11811Y-8203D01*
X11811Y-8484D01*
X11754Y-8709D01*
X11698Y-8822D01*
X11642Y-8878D01*
X11529Y-8934D01*
X11417Y-8934D01*
X11304Y-8878D01*
X11248Y-8822D01*
X11192Y-8709D01*
X11136Y-8484D01*
X11136Y-8203D01*
X11192Y-7978D01*
X11248Y-7866D01*
X11304Y-7809D01*
X11417Y-7753D01*
X12317Y-8822D02*
X12373Y-8878D01*
X12317Y-8934D01*
X12260Y-8878D01*
X12317Y-8822D01*
X12317Y-8934D01*
X13104Y-7753D02*
X13217Y-7753D01*
X13329Y-7809D01*
X13385Y-7866D01*
X13442Y-7978D01*
X13498Y-8203D01*
X13498Y-8484D01*
X13442Y-8709D01*
X13385Y-8822D01*
X13329Y-8878D01*
X13217Y-8934D01*
X13104Y-8934D01*
X12992Y-8878D01*
X12935Y-8822D01*
X12879Y-8709D01*
X12823Y-8484D01*
X12823Y-8203D01*
X12879Y-7978D01*
X12935Y-7866D01*
X12992Y-7809D01*
X13104Y-7753D01*
X13892Y-7753D02*
X14623Y-7753D01*
X14229Y-8203D01*
X14398Y-8203D01*
X14510Y-8259D01*
X14566Y-8316D01*
X14623Y-8428D01*
X14623Y-8709D01*
X14566Y-8822D01*
X14510Y-8878D01*
X14398Y-8934D01*
X14060Y-8934D01*
X13948Y-8878D01*
X13892Y-8822D01*
X15073Y-7866D02*
X15129Y-7809D01*
X15241Y-7753D01*
X15523Y-7753D01*
X15635Y-7809D01*
X15691Y-7866D01*
X15748Y-7978D01*
X15748Y-8091D01*
X15691Y-8259D01*
X15016Y-8934D01*
X15748Y-8934D01*
X16197Y-7753D02*
X16197Y-7978D01*
X16647Y-7753D02*
X16647Y-7978D01*
X18391Y-9384D02*
X18335Y-9328D01*
X18222Y-9159D01*
X18166Y-9047D01*
X18110Y-8878D01*
X18053Y-8597D01*
X18053Y-8372D01*
X18110Y-8091D01*
X18166Y-7922D01*
X18222Y-7809D01*
X18335Y-7641D01*
X18391Y-7584D01*
X19010Y-8259D02*
X18897Y-8203D01*
X18841Y-8147D01*
X18785Y-8034D01*
X18785Y-7978D01*
X18841Y-7866D01*
X18897Y-7809D01*
X19010Y-7753D01*
X19235Y-7753D01*
X19347Y-7809D01*
X19403Y-7866D01*
X19460Y-7978D01*
X19460Y-8034D01*
X19403Y-8147D01*
X19347Y-8203D01*
X19235Y-8259D01*
X19010Y-8259D01*
X18897Y-8316D01*
X18841Y-8372D01*
X18785Y-8484D01*
X18785Y-8709D01*
X18841Y-8822D01*
X18897Y-8878D01*
X19010Y-8934D01*
X19235Y-8934D01*
X19347Y-8878D01*
X19403Y-8822D01*
X19460Y-8709D01*
X19460Y-8484D01*
X19403Y-8372D01*
X19347Y-8316D01*
X19235Y-8259D01*
X20866Y-8934D02*
X20866Y-7753D01*
X21372Y-8934D02*
X21372Y-8316D01*
X21316Y-8203D01*
X21203Y-8147D01*
X21034Y-8147D01*
X20922Y-8203D01*
X20866Y-8259D01*
X22103Y-8934D02*
X21991Y-8878D01*
X21934Y-8822D01*
X21878Y-8709D01*
X21878Y-8372D01*
X21934Y-8259D01*
X21991Y-8203D01*
X22103Y-8147D01*
X22272Y-8147D01*
X22384Y-8203D01*
X22440Y-8259D01*
X22497Y-8372D01*
X22497Y-8709D01*
X22440Y-8822D01*
X22384Y-8878D01*
X22272Y-8934D01*
X22103Y-8934D01*
X23172Y-8934D02*
X23059Y-8878D01*
X23003Y-8766D01*
X23003Y-7753D01*
X24071Y-8878D02*
X23959Y-8934D01*
X23734Y-8934D01*
X23622Y-8878D01*
X23565Y-8766D01*
X23565Y-8316D01*
X23622Y-8203D01*
X23734Y-8147D01*
X23959Y-8147D01*
X24071Y-8203D01*
X24128Y-8316D01*
X24128Y-8428D01*
X23565Y-8541D01*
X24578Y-8878D02*
X24690Y-8934D01*
X24915Y-8934D01*
X25028Y-8878D01*
X25084Y-8766D01*
X25084Y-8709D01*
X25028Y-8597D01*
X24915Y-8541D01*
X24746Y-8541D01*
X24634Y-8484D01*
X24578Y-8372D01*
X24578Y-8316D01*
X24634Y-8203D01*
X24746Y-8147D01*
X24915Y-8147D01*
X25028Y-8203D01*
X25478Y-9384D02*
X25534Y-9328D01*
X25646Y-9159D01*
X25703Y-9047D01*
X25759Y-8878D01*
X25815Y-8597D01*
X25815Y-8372D01*
X25759Y-8091D01*
X25703Y-7922D01*
X25646Y-7809D01*
X25534Y-7641D01*
X25478Y-7584D01*
G54D11*
X-196Y-10212D02*
X0Y-10015D01*
X-196Y-9818D01*
X-393Y-10015D01*
X-196Y-10212D01*
G54D12*
X1687Y-10493D02*
X1012Y-10493D01*
X1349Y-10493D02*
X1349Y-9312D01*
X1237Y-9481D01*
X1124Y-9593D01*
X1012Y-9650D01*
X2193Y-10381D02*
X2249Y-10437D01*
X2193Y-10493D01*
X2137Y-10437D01*
X2193Y-10381D01*
X2193Y-10493D01*
X2980Y-9312D02*
X3093Y-9312D01*
X3205Y-9368D01*
X3262Y-9425D01*
X3318Y-9537D01*
X3374Y-9762D01*
X3374Y-10043D01*
X3318Y-10268D01*
X3262Y-10381D01*
X3205Y-10437D01*
X3093Y-10493D01*
X2980Y-10493D01*
X2868Y-10437D01*
X2812Y-10381D01*
X2755Y-10268D01*
X2699Y-10043D01*
X2699Y-9762D01*
X2755Y-9537D01*
X2812Y-9425D01*
X2868Y-9368D01*
X2980Y-9312D01*
X4105Y-9312D02*
X4218Y-9312D01*
X4330Y-9368D01*
X4386Y-9425D01*
X4443Y-9537D01*
X4499Y-9762D01*
X4499Y-10043D01*
X4443Y-10268D01*
X4386Y-10381D01*
X4330Y-10437D01*
X4218Y-10493D01*
X4105Y-10493D01*
X3993Y-10437D01*
X3937Y-10381D01*
X3880Y-10268D01*
X3824Y-10043D01*
X3824Y-9762D01*
X3880Y-9537D01*
X3937Y-9425D01*
X3993Y-9368D01*
X4105Y-9312D01*
X5005Y-10493D02*
X5005Y-9706D01*
X5005Y-9818D02*
X5061Y-9762D01*
X5174Y-9706D01*
X5343Y-9706D01*
X5455Y-9762D01*
X5511Y-9875D01*
X5511Y-10493D01*
X5511Y-9875D02*
X5568Y-9762D01*
X5680Y-9706D01*
X5849Y-9706D01*
X5961Y-9762D01*
X6017Y-9875D01*
X6017Y-10493D01*
X6580Y-10493D02*
X6580Y-9706D01*
X6580Y-9818D02*
X6636Y-9762D01*
X6749Y-9706D01*
X6917Y-9706D01*
X7030Y-9762D01*
X7086Y-9875D01*
X7086Y-10493D01*
X7086Y-9875D02*
X7142Y-9762D01*
X7255Y-9706D01*
X7424Y-9706D01*
X7536Y-9762D01*
X7592Y-9875D01*
X7592Y-10493D01*
X9898Y-9256D02*
X8886Y-10775D01*
X11417Y-9312D02*
X11529Y-9312D01*
X11642Y-9368D01*
X11698Y-9425D01*
X11754Y-9537D01*
X11811Y-9762D01*
X11811Y-10043D01*
X11754Y-10268D01*
X11698Y-10381D01*
X11642Y-10437D01*
X11529Y-10493D01*
X11417Y-10493D01*
X11304Y-10437D01*
X11248Y-10381D01*
X11192Y-10268D01*
X11136Y-10043D01*
X11136Y-9762D01*
X11192Y-9537D01*
X11248Y-9425D01*
X11304Y-9368D01*
X11417Y-9312D01*
X12317Y-10381D02*
X12373Y-10437D01*
X12317Y-10493D01*
X12260Y-10437D01*
X12317Y-10381D01*
X12317Y-10493D01*
X13104Y-9312D02*
X13217Y-9312D01*
X13329Y-9368D01*
X13385Y-9425D01*
X13442Y-9537D01*
X13498Y-9762D01*
X13498Y-10043D01*
X13442Y-10268D01*
X13385Y-10381D01*
X13329Y-10437D01*
X13217Y-10493D01*
X13104Y-10493D01*
X12992Y-10437D01*
X12935Y-10381D01*
X12879Y-10268D01*
X12823Y-10043D01*
X12823Y-9762D01*
X12879Y-9537D01*
X12935Y-9425D01*
X12992Y-9368D01*
X13104Y-9312D01*
X13892Y-9312D02*
X14623Y-9312D01*
X14229Y-9762D01*
X14398Y-9762D01*
X14510Y-9818D01*
X14566Y-9875D01*
X14623Y-9987D01*
X14623Y-10268D01*
X14566Y-10381D01*
X14510Y-10437D01*
X14398Y-10493D01*
X14060Y-10493D01*
X13948Y-10437D01*
X13892Y-10381D01*
X15185Y-10493D02*
X15410Y-10493D01*
X15523Y-10437D01*
X15579Y-10381D01*
X15691Y-10212D01*
X15748Y-9987D01*
X15748Y-9537D01*
X15691Y-9425D01*
X15635Y-9368D01*
X15523Y-9312D01*
X15298Y-9312D01*
X15185Y-9368D01*
X15129Y-9425D01*
X15073Y-9537D01*
X15073Y-9818D01*
X15129Y-9931D01*
X15185Y-9987D01*
X15298Y-10043D01*
X15523Y-10043D01*
X15635Y-9987D01*
X15691Y-9931D01*
X15748Y-9818D01*
X16197Y-9312D02*
X16197Y-9537D01*
X16647Y-9312D02*
X16647Y-9537D01*
X18391Y-10943D02*
X18335Y-10887D01*
X18222Y-10718D01*
X18166Y-10606D01*
X18110Y-10437D01*
X18053Y-10156D01*
X18053Y-9931D01*
X18110Y-9650D01*
X18166Y-9481D01*
X18222Y-9368D01*
X18335Y-9200D01*
X18391Y-9143D01*
X18785Y-9425D02*
X18841Y-9368D01*
X18953Y-9312D01*
X19235Y-9312D01*
X19347Y-9368D01*
X19403Y-9425D01*
X19460Y-9537D01*
X19460Y-9650D01*
X19403Y-9818D01*
X18728Y-10493D01*
X19460Y-10493D01*
X20866Y-10493D02*
X20866Y-9312D01*
X21372Y-10493D02*
X21372Y-9875D01*
X21316Y-9762D01*
X21203Y-9706D01*
X21034Y-9706D01*
X20922Y-9762D01*
X20866Y-9818D01*
X22103Y-10493D02*
X21991Y-10437D01*
X21934Y-10381D01*
X21878Y-10268D01*
X21878Y-9931D01*
X21934Y-9818D01*
X21991Y-9762D01*
X22103Y-9706D01*
X22272Y-9706D01*
X22384Y-9762D01*
X22440Y-9818D01*
X22497Y-9931D01*
X22497Y-10268D01*
X22440Y-10381D01*
X22384Y-10437D01*
X22272Y-10493D01*
X22103Y-10493D01*
X23172Y-10493D02*
X23059Y-10437D01*
X23003Y-10325D01*
X23003Y-9312D01*
X24071Y-10437D02*
X23959Y-10493D01*
X23734Y-10493D01*
X23622Y-10437D01*
X23565Y-10325D01*
X23565Y-9875D01*
X23622Y-9762D01*
X23734Y-9706D01*
X23959Y-9706D01*
X24071Y-9762D01*
X24128Y-9875D01*
X24128Y-9987D01*
X23565Y-10100D01*
X24578Y-10437D02*
X24690Y-10493D01*
X24915Y-10493D01*
X25028Y-10437D01*
X25084Y-10325D01*
X25084Y-10268D01*
X25028Y-10156D01*
X24915Y-10100D01*
X24746Y-10100D01*
X24634Y-10043D01*
X24578Y-9931D01*
X24578Y-9875D01*
X24634Y-9762D01*
X24746Y-9706D01*
X24915Y-9706D01*
X25028Y-9762D01*
X25478Y-10943D02*
X25534Y-10887D01*
X25646Y-10718D01*
X25703Y-10606D01*
X25759Y-10437D01*
X25815Y-10156D01*
X25815Y-9931D01*
X25759Y-9650D01*
X25703Y-9481D01*
X25646Y-9368D01*
X25534Y-9200D01*
X25478Y-9143D01*
X-400Y-11374D02*
X0Y-11774D01*
X0Y-11374D02*
X-400Y-11774D01*
G54D11*
X0Y-11574D02*
G75*
G03X0Y-11574I-200J0D01*
G74*
G01*
G54D12*
X1687Y-12052D02*
X1012Y-12052D01*
X1349Y-12052D02*
X1349Y-10871D01*
X1237Y-11040D01*
X1124Y-11152D01*
X1012Y-11209D01*
X2193Y-11940D02*
X2249Y-11996D01*
X2193Y-12052D01*
X2137Y-11996D01*
X2193Y-11940D01*
X2193Y-12052D01*
X2980Y-10871D02*
X3093Y-10871D01*
X3205Y-10928D01*
X3262Y-10984D01*
X3318Y-11096D01*
X3374Y-11321D01*
X3374Y-11602D01*
X3318Y-11827D01*
X3262Y-11940D01*
X3205Y-11996D01*
X3093Y-12052D01*
X2980Y-12052D01*
X2868Y-11996D01*
X2812Y-11940D01*
X2755Y-11827D01*
X2699Y-11602D01*
X2699Y-11321D01*
X2755Y-11096D01*
X2812Y-10984D01*
X2868Y-10928D01*
X2980Y-10871D01*
X3824Y-10984D02*
X3880Y-10928D01*
X3993Y-10871D01*
X4274Y-10871D01*
X4386Y-10928D01*
X4443Y-10984D01*
X4499Y-11096D01*
X4499Y-11209D01*
X4443Y-11377D01*
X3768Y-12052D01*
X4499Y-12052D01*
X5005Y-12052D02*
X5005Y-11265D01*
X5005Y-11377D02*
X5061Y-11321D01*
X5174Y-11265D01*
X5343Y-11265D01*
X5455Y-11321D01*
X5511Y-11434D01*
X5511Y-12052D01*
X5511Y-11434D02*
X5568Y-11321D01*
X5680Y-11265D01*
X5849Y-11265D01*
X5961Y-11321D01*
X6017Y-11434D01*
X6017Y-12052D01*
X6580Y-12052D02*
X6580Y-11265D01*
X6580Y-11377D02*
X6636Y-11321D01*
X6749Y-11265D01*
X6917Y-11265D01*
X7030Y-11321D01*
X7086Y-11434D01*
X7086Y-12052D01*
X7086Y-11434D02*
X7142Y-11321D01*
X7255Y-11265D01*
X7424Y-11265D01*
X7536Y-11321D01*
X7592Y-11434D01*
X7592Y-12052D01*
X9898Y-10815D02*
X8886Y-12334D01*
X11417Y-10871D02*
X11529Y-10871D01*
X11642Y-10928D01*
X11698Y-10984D01*
X11754Y-11096D01*
X11811Y-11321D01*
X11811Y-11602D01*
X11754Y-11827D01*
X11698Y-11940D01*
X11642Y-11996D01*
X11529Y-12052D01*
X11417Y-12052D01*
X11304Y-11996D01*
X11248Y-11940D01*
X11192Y-11827D01*
X11136Y-11602D01*
X11136Y-11321D01*
X11192Y-11096D01*
X11248Y-10984D01*
X11304Y-10928D01*
X11417Y-10871D01*
X12317Y-11940D02*
X12373Y-11996D01*
X12317Y-12052D01*
X12260Y-11996D01*
X12317Y-11940D01*
X12317Y-12052D01*
X13104Y-10871D02*
X13217Y-10871D01*
X13329Y-10928D01*
X13385Y-10984D01*
X13442Y-11096D01*
X13498Y-11321D01*
X13498Y-11602D01*
X13442Y-11827D01*
X13385Y-11940D01*
X13329Y-11996D01*
X13217Y-12052D01*
X13104Y-12052D01*
X12992Y-11996D01*
X12935Y-11940D01*
X12879Y-11827D01*
X12823Y-11602D01*
X12823Y-11321D01*
X12879Y-11096D01*
X12935Y-10984D01*
X12992Y-10928D01*
X13104Y-10871D01*
X14510Y-11265D02*
X14510Y-12052D01*
X14229Y-10815D02*
X13948Y-11659D01*
X14679Y-11659D01*
X15354Y-10871D02*
X15466Y-10871D01*
X15579Y-10928D01*
X15635Y-10984D01*
X15691Y-11096D01*
X15748Y-11321D01*
X15748Y-11602D01*
X15691Y-11827D01*
X15635Y-11940D01*
X15579Y-11996D01*
X15466Y-12052D01*
X15354Y-12052D01*
X15241Y-11996D01*
X15185Y-11940D01*
X15129Y-11827D01*
X15073Y-11602D01*
X15073Y-11321D01*
X15129Y-11096D01*
X15185Y-10984D01*
X15241Y-10928D01*
X15354Y-10871D01*
X16197Y-10871D02*
X16197Y-11096D01*
X16647Y-10871D02*
X16647Y-11096D01*
X18391Y-12502D02*
X18335Y-12446D01*
X18222Y-12277D01*
X18166Y-12165D01*
X18110Y-11996D01*
X18053Y-11715D01*
X18053Y-11490D01*
X18110Y-11209D01*
X18166Y-11040D01*
X18222Y-10928D01*
X18335Y-10759D01*
X18391Y-10703D01*
X19460Y-12052D02*
X18785Y-12052D01*
X19122Y-12052D02*
X19122Y-10871D01*
X19010Y-11040D01*
X18897Y-11152D01*
X18785Y-11209D01*
X20528Y-10871D02*
X19966Y-10871D01*
X19910Y-11434D01*
X19966Y-11377D01*
X20078Y-11321D01*
X20359Y-11321D01*
X20472Y-11377D01*
X20528Y-11434D01*
X20584Y-11546D01*
X20584Y-11827D01*
X20528Y-11940D01*
X20472Y-11996D01*
X20359Y-12052D01*
X20078Y-12052D01*
X19966Y-11996D01*
X19910Y-11940D01*
X21991Y-12052D02*
X21991Y-10871D01*
X22497Y-12052D02*
X22497Y-11434D01*
X22440Y-11321D01*
X22328Y-11265D01*
X22159Y-11265D01*
X22047Y-11321D01*
X21991Y-11377D01*
X23228Y-12052D02*
X23115Y-11996D01*
X23059Y-11940D01*
X23003Y-11827D01*
X23003Y-11490D01*
X23059Y-11377D01*
X23115Y-11321D01*
X23228Y-11265D01*
X23397Y-11265D01*
X23509Y-11321D01*
X23565Y-11377D01*
X23622Y-11490D01*
X23622Y-11827D01*
X23565Y-11940D01*
X23509Y-11996D01*
X23397Y-12052D01*
X23228Y-12052D01*
X24296Y-12052D02*
X24184Y-11996D01*
X24128Y-11884D01*
X24128Y-10871D01*
X25196Y-11996D02*
X25084Y-12052D01*
X24859Y-12052D01*
X24746Y-11996D01*
X24690Y-11884D01*
X24690Y-11434D01*
X24746Y-11321D01*
X24859Y-11265D01*
X25084Y-11265D01*
X25196Y-11321D01*
X25253Y-11434D01*
X25253Y-11546D01*
X24690Y-11659D01*
X25703Y-11996D02*
X25815Y-12052D01*
X26040Y-12052D01*
X26152Y-11996D01*
X26209Y-11884D01*
X26209Y-11827D01*
X26152Y-11715D01*
X26040Y-11659D01*
X25871Y-11659D01*
X25759Y-11602D01*
X25703Y-11490D01*
X25703Y-11434D01*
X25759Y-11321D01*
X25871Y-11265D01*
X26040Y-11265D01*
X26152Y-11321D01*
X26602Y-12502D02*
X26659Y-12446D01*
X26771Y-12277D01*
X26827Y-12165D01*
X26884Y-11996D01*
X26940Y-11715D01*
X26940Y-11490D01*
X26884Y-11209D01*
X26827Y-11040D01*
X26771Y-10928D01*
X26659Y-10759D01*
X26602Y-10703D01*
X-511Y-12877D02*
X0Y-13389D01*
X0Y-12877D02*
X-511Y-13389D01*
X-255Y-12877D02*
X-255Y-13389D01*
X-511Y-13133D02*
X0Y-13133D01*
X1687Y-13611D02*
X1012Y-13611D01*
X1349Y-13611D02*
X1349Y-12430D01*
X1237Y-12599D01*
X1124Y-12712D01*
X1012Y-12768D01*
X2193Y-13499D02*
X2249Y-13555D01*
X2193Y-13611D01*
X2137Y-13555D01*
X2193Y-13499D01*
X2193Y-13611D01*
X2643Y-12430D02*
X3374Y-12430D01*
X2980Y-12880D01*
X3149Y-12880D01*
X3262Y-12937D01*
X3318Y-12993D01*
X3374Y-13105D01*
X3374Y-13386D01*
X3318Y-13499D01*
X3262Y-13555D01*
X3149Y-13611D01*
X2812Y-13611D01*
X2699Y-13555D01*
X2643Y-13499D01*
X4105Y-12430D02*
X4218Y-12430D01*
X4330Y-12487D01*
X4386Y-12543D01*
X4443Y-12655D01*
X4499Y-12880D01*
X4499Y-13161D01*
X4443Y-13386D01*
X4386Y-13499D01*
X4330Y-13555D01*
X4218Y-13611D01*
X4105Y-13611D01*
X3993Y-13555D01*
X3937Y-13499D01*
X3880Y-13386D01*
X3824Y-13161D01*
X3824Y-12880D01*
X3880Y-12655D01*
X3937Y-12543D01*
X3993Y-12487D01*
X4105Y-12430D01*
X5005Y-13611D02*
X5005Y-12824D01*
X5005Y-12937D02*
X5061Y-12880D01*
X5174Y-12824D01*
X5343Y-12824D01*
X5455Y-12880D01*
X5511Y-12993D01*
X5511Y-13611D01*
X5511Y-12993D02*
X5568Y-12880D01*
X5680Y-12824D01*
X5849Y-12824D01*
X5961Y-12880D01*
X6017Y-12993D01*
X6017Y-13611D01*
X6580Y-13611D02*
X6580Y-12824D01*
X6580Y-12937D02*
X6636Y-12880D01*
X6749Y-12824D01*
X6917Y-12824D01*
X7030Y-12880D01*
X7086Y-12993D01*
X7086Y-13611D01*
X7086Y-12993D02*
X7142Y-12880D01*
X7255Y-12824D01*
X7424Y-12824D01*
X7536Y-12880D01*
X7592Y-12993D01*
X7592Y-13611D01*
X9898Y-12374D02*
X8886Y-13893D01*
X11417Y-12430D02*
X11529Y-12430D01*
X11642Y-12487D01*
X11698Y-12543D01*
X11754Y-12655D01*
X11811Y-12880D01*
X11811Y-13161D01*
X11754Y-13386D01*
X11698Y-13499D01*
X11642Y-13555D01*
X11529Y-13611D01*
X11417Y-13611D01*
X11304Y-13555D01*
X11248Y-13499D01*
X11192Y-13386D01*
X11136Y-13161D01*
X11136Y-12880D01*
X11192Y-12655D01*
X11248Y-12543D01*
X11304Y-12487D01*
X11417Y-12430D01*
X12317Y-13499D02*
X12373Y-13555D01*
X12317Y-13611D01*
X12260Y-13555D01*
X12317Y-13499D01*
X12317Y-13611D01*
X13104Y-12430D02*
X13217Y-12430D01*
X13329Y-12487D01*
X13385Y-12543D01*
X13442Y-12655D01*
X13498Y-12880D01*
X13498Y-13161D01*
X13442Y-13386D01*
X13385Y-13499D01*
X13329Y-13555D01*
X13217Y-13611D01*
X13104Y-13611D01*
X12992Y-13555D01*
X12935Y-13499D01*
X12879Y-13386D01*
X12823Y-13161D01*
X12823Y-12880D01*
X12879Y-12655D01*
X12935Y-12543D01*
X12992Y-12487D01*
X13104Y-12430D01*
X14566Y-12430D02*
X14004Y-12430D01*
X13948Y-12993D01*
X14004Y-12937D01*
X14116Y-12880D01*
X14398Y-12880D01*
X14510Y-12937D01*
X14566Y-12993D01*
X14623Y-13105D01*
X14623Y-13386D01*
X14566Y-13499D01*
X14510Y-13555D01*
X14398Y-13611D01*
X14116Y-13611D01*
X14004Y-13555D01*
X13948Y-13499D01*
X15748Y-13611D02*
X15073Y-13611D01*
X15410Y-13611D02*
X15410Y-12430D01*
X15298Y-12599D01*
X15185Y-12712D01*
X15073Y-12768D01*
X16197Y-12430D02*
X16197Y-12655D01*
X16647Y-12430D02*
X16647Y-12655D01*
X18391Y-14061D02*
X18335Y-14005D01*
X18222Y-13836D01*
X18166Y-13724D01*
X18110Y-13555D01*
X18053Y-13274D01*
X18053Y-13049D01*
X18110Y-12768D01*
X18166Y-12599D01*
X18222Y-12487D01*
X18335Y-12318D01*
X18391Y-12262D01*
X18785Y-12543D02*
X18841Y-12487D01*
X18953Y-12430D01*
X19235Y-12430D01*
X19347Y-12487D01*
X19403Y-12543D01*
X19460Y-12655D01*
X19460Y-12768D01*
X19403Y-12937D01*
X18728Y-13611D01*
X19460Y-13611D01*
X20866Y-13611D02*
X20866Y-12430D01*
X21372Y-13611D02*
X21372Y-12993D01*
X21316Y-12880D01*
X21203Y-12824D01*
X21034Y-12824D01*
X20922Y-12880D01*
X20866Y-12937D01*
X22103Y-13611D02*
X21991Y-13555D01*
X21934Y-13499D01*
X21878Y-13386D01*
X21878Y-13049D01*
X21934Y-12937D01*
X21991Y-12880D01*
X22103Y-12824D01*
X22272Y-12824D01*
X22384Y-12880D01*
X22440Y-12937D01*
X22497Y-13049D01*
X22497Y-13386D01*
X22440Y-13499D01*
X22384Y-13555D01*
X22272Y-13611D01*
X22103Y-13611D01*
X23172Y-13611D02*
X23059Y-13555D01*
X23003Y-13443D01*
X23003Y-12430D01*
X24071Y-13555D02*
X23959Y-13611D01*
X23734Y-13611D01*
X23622Y-13555D01*
X23565Y-13443D01*
X23565Y-12993D01*
X23622Y-12880D01*
X23734Y-12824D01*
X23959Y-12824D01*
X24071Y-12880D01*
X24128Y-12993D01*
X24128Y-13105D01*
X23565Y-13218D01*
X24578Y-13555D02*
X24690Y-13611D01*
X24915Y-13611D01*
X25028Y-13555D01*
X25084Y-13443D01*
X25084Y-13386D01*
X25028Y-13274D01*
X24915Y-13218D01*
X24746Y-13218D01*
X24634Y-13161D01*
X24578Y-13049D01*
X24578Y-12993D01*
X24634Y-12880D01*
X24746Y-12824D01*
X24915Y-12824D01*
X25028Y-12880D01*
X25478Y-14061D02*
X25534Y-14005D01*
X25646Y-13836D01*
X25703Y-13724D01*
X25759Y-13555D01*
X25815Y-13274D01*
X25815Y-13049D01*
X25759Y-12768D01*
X25703Y-12599D01*
X25646Y-12487D01*
X25534Y-12318D01*
X25478Y-12262D01*
X-906Y-14239D02*
X0Y-15145D01*
X0Y-14239D02*
X-906Y-15145D01*
G54D11*
X-132Y-15013D02*
X-132Y-14372D01*
X-773Y-14372D01*
X-773Y-15013D01*
X-132Y-15013D01*
G54D12*
X1012Y-14102D02*
X1068Y-14046D01*
X1181Y-13989D01*
X1462Y-13989D01*
X1574Y-14046D01*
X1631Y-14102D01*
X1687Y-14214D01*
X1687Y-14327D01*
X1631Y-14496D01*
X956Y-15170D01*
X1687Y-15170D01*
X2193Y-15058D02*
X2249Y-15114D01*
X2193Y-15170D01*
X2137Y-15114D01*
X2193Y-15058D01*
X2193Y-15170D01*
X2643Y-13989D02*
X3374Y-13989D01*
X2980Y-14439D01*
X3149Y-14439D01*
X3262Y-14496D01*
X3318Y-14552D01*
X3374Y-14664D01*
X3374Y-14946D01*
X3318Y-15058D01*
X3262Y-15114D01*
X3149Y-15170D01*
X2812Y-15170D01*
X2699Y-15114D01*
X2643Y-15058D01*
X4105Y-13989D02*
X4218Y-13989D01*
X4330Y-14046D01*
X4386Y-14102D01*
X4443Y-14214D01*
X4499Y-14439D01*
X4499Y-14721D01*
X4443Y-14946D01*
X4386Y-15058D01*
X4330Y-15114D01*
X4218Y-15170D01*
X4105Y-15170D01*
X3993Y-15114D01*
X3937Y-15058D01*
X3880Y-14946D01*
X3824Y-14721D01*
X3824Y-14439D01*
X3880Y-14214D01*
X3937Y-14102D01*
X3993Y-14046D01*
X4105Y-13989D01*
X5005Y-15170D02*
X5005Y-14383D01*
X5005Y-14496D02*
X5061Y-14439D01*
X5174Y-14383D01*
X5343Y-14383D01*
X5455Y-14439D01*
X5511Y-14552D01*
X5511Y-15170D01*
X5511Y-14552D02*
X5568Y-14439D01*
X5680Y-14383D01*
X5849Y-14383D01*
X5961Y-14439D01*
X6017Y-14552D01*
X6017Y-15170D01*
X6580Y-15170D02*
X6580Y-14383D01*
X6580Y-14496D02*
X6636Y-14439D01*
X6749Y-14383D01*
X6917Y-14383D01*
X7030Y-14439D01*
X7086Y-14552D01*
X7086Y-15170D01*
X7086Y-14552D02*
X7142Y-14439D01*
X7255Y-14383D01*
X7424Y-14383D01*
X7536Y-14439D01*
X7592Y-14552D01*
X7592Y-15170D01*
X9898Y-13933D02*
X8886Y-15452D01*
X11417Y-13989D02*
X11529Y-13989D01*
X11642Y-14046D01*
X11698Y-14102D01*
X11754Y-14214D01*
X11811Y-14439D01*
X11811Y-14721D01*
X11754Y-14946D01*
X11698Y-15058D01*
X11642Y-15114D01*
X11529Y-15170D01*
X11417Y-15170D01*
X11304Y-15114D01*
X11248Y-15058D01*
X11192Y-14946D01*
X11136Y-14721D01*
X11136Y-14439D01*
X11192Y-14214D01*
X11248Y-14102D01*
X11304Y-14046D01*
X11417Y-13989D01*
X12317Y-15058D02*
X12373Y-15114D01*
X12317Y-15170D01*
X12260Y-15114D01*
X12317Y-15058D01*
X12317Y-15170D01*
X13104Y-13989D02*
X13217Y-13989D01*
X13329Y-14046D01*
X13385Y-14102D01*
X13442Y-14214D01*
X13498Y-14439D01*
X13498Y-14721D01*
X13442Y-14946D01*
X13385Y-15058D01*
X13329Y-15114D01*
X13217Y-15170D01*
X13104Y-15170D01*
X12992Y-15114D01*
X12935Y-15058D01*
X12879Y-14946D01*
X12823Y-14721D01*
X12823Y-14439D01*
X12879Y-14214D01*
X12935Y-14102D01*
X12992Y-14046D01*
X13104Y-13989D01*
X14060Y-15170D02*
X14285Y-15170D01*
X14398Y-15114D01*
X14454Y-15058D01*
X14566Y-14889D01*
X14623Y-14664D01*
X14623Y-14214D01*
X14566Y-14102D01*
X14510Y-14046D01*
X14398Y-13989D01*
X14173Y-13989D01*
X14060Y-14046D01*
X14004Y-14102D01*
X13948Y-14214D01*
X13948Y-14496D01*
X14004Y-14608D01*
X14060Y-14664D01*
X14173Y-14721D01*
X14398Y-14721D01*
X14510Y-14664D01*
X14566Y-14608D01*
X14623Y-14496D01*
X15748Y-15170D02*
X15073Y-15170D01*
X15410Y-15170D02*
X15410Y-13989D01*
X15298Y-14158D01*
X15185Y-14271D01*
X15073Y-14327D01*
X16197Y-13989D02*
X16197Y-14214D01*
X16647Y-13989D02*
X16647Y-14214D01*
X18391Y-15620D02*
X18335Y-15564D01*
X18222Y-15395D01*
X18166Y-15283D01*
X18110Y-15114D01*
X18053Y-14833D01*
X18053Y-14608D01*
X18110Y-14327D01*
X18166Y-14158D01*
X18222Y-14046D01*
X18335Y-13877D01*
X18391Y-13821D01*
X19460Y-15170D02*
X18785Y-15170D01*
X19122Y-15170D02*
X19122Y-13989D01*
X19010Y-14158D01*
X18897Y-14271D01*
X18785Y-14327D01*
X20866Y-15170D02*
X20866Y-13989D01*
X21372Y-15170D02*
X21372Y-14552D01*
X21316Y-14439D01*
X21203Y-14383D01*
X21034Y-14383D01*
X20922Y-14439D01*
X20866Y-14496D01*
X22103Y-15170D02*
X21991Y-15114D01*
X21934Y-15058D01*
X21878Y-14946D01*
X21878Y-14608D01*
X21934Y-14496D01*
X21991Y-14439D01*
X22103Y-14383D01*
X22272Y-14383D01*
X22384Y-14439D01*
X22440Y-14496D01*
X22497Y-14608D01*
X22497Y-14946D01*
X22440Y-15058D01*
X22384Y-15114D01*
X22272Y-15170D01*
X22103Y-15170D01*
X23172Y-15170D02*
X23059Y-15114D01*
X23003Y-15002D01*
X23003Y-13989D01*
X24071Y-15114D02*
X23959Y-15170D01*
X23734Y-15170D01*
X23622Y-15114D01*
X23565Y-15002D01*
X23565Y-14552D01*
X23622Y-14439D01*
X23734Y-14383D01*
X23959Y-14383D01*
X24071Y-14439D01*
X24128Y-14552D01*
X24128Y-14664D01*
X23565Y-14777D01*
X24521Y-15620D02*
X24578Y-15564D01*
X24690Y-15395D01*
X24746Y-15283D01*
X24803Y-15114D01*
X24859Y-14833D01*
X24859Y-14608D01*
X24803Y-14327D01*
X24746Y-14158D01*
X24690Y-14046D01*
X24578Y-13877D01*
X24521Y-13821D01*
X-1200Y-15651D02*
X0Y-16851D01*
X0Y-15651D02*
X-1200Y-16851D01*
G54D11*
X-600Y-16851D02*
X0Y-16251D01*
X-600Y-15651D01*
X-1200Y-16251D01*
X-600Y-16851D01*
G54D12*
X956Y-15548D02*
X1687Y-15548D01*
X1293Y-15998D01*
X1462Y-15998D01*
X1574Y-16055D01*
X1631Y-16111D01*
X1687Y-16223D01*
X1687Y-16505D01*
X1631Y-16617D01*
X1574Y-16673D01*
X1462Y-16730D01*
X1124Y-16730D01*
X1012Y-16673D01*
X956Y-16617D01*
X2193Y-16617D02*
X2249Y-16673D01*
X2193Y-16730D01*
X2137Y-16673D01*
X2193Y-16617D01*
X2193Y-16730D01*
X2980Y-15548D02*
X3093Y-15548D01*
X3205Y-15605D01*
X3262Y-15661D01*
X3318Y-15773D01*
X3374Y-15998D01*
X3374Y-16280D01*
X3318Y-16505D01*
X3262Y-16617D01*
X3205Y-16673D01*
X3093Y-16730D01*
X2980Y-16730D01*
X2868Y-16673D01*
X2812Y-16617D01*
X2755Y-16505D01*
X2699Y-16280D01*
X2699Y-15998D01*
X2755Y-15773D01*
X2812Y-15661D01*
X2868Y-15605D01*
X2980Y-15548D01*
X4443Y-15548D02*
X3880Y-15548D01*
X3824Y-16111D01*
X3880Y-16055D01*
X3993Y-15998D01*
X4274Y-15998D01*
X4386Y-16055D01*
X4443Y-16111D01*
X4499Y-16223D01*
X4499Y-16505D01*
X4443Y-16617D01*
X4386Y-16673D01*
X4274Y-16730D01*
X3993Y-16730D01*
X3880Y-16673D01*
X3824Y-16617D01*
X5005Y-16730D02*
X5005Y-15942D01*
X5005Y-16055D02*
X5061Y-15998D01*
X5174Y-15942D01*
X5343Y-15942D01*
X5455Y-15998D01*
X5511Y-16111D01*
X5511Y-16730D01*
X5511Y-16111D02*
X5568Y-15998D01*
X5680Y-15942D01*
X5849Y-15942D01*
X5961Y-15998D01*
X6017Y-16111D01*
X6017Y-16730D01*
X6580Y-16730D02*
X6580Y-15942D01*
X6580Y-16055D02*
X6636Y-15998D01*
X6749Y-15942D01*
X6917Y-15942D01*
X7030Y-15998D01*
X7086Y-16111D01*
X7086Y-16730D01*
X7086Y-16111D02*
X7142Y-15998D01*
X7255Y-15942D01*
X7424Y-15942D01*
X7536Y-15998D01*
X7592Y-16111D01*
X7592Y-16730D01*
X9898Y-15492D02*
X8886Y-17011D01*
X11417Y-15548D02*
X11529Y-15548D01*
X11642Y-15605D01*
X11698Y-15661D01*
X11754Y-15773D01*
X11811Y-15998D01*
X11811Y-16280D01*
X11754Y-16505D01*
X11698Y-16617D01*
X11642Y-16673D01*
X11529Y-16730D01*
X11417Y-16730D01*
X11304Y-16673D01*
X11248Y-16617D01*
X11192Y-16505D01*
X11136Y-16280D01*
X11136Y-15998D01*
X11192Y-15773D01*
X11248Y-15661D01*
X11304Y-15605D01*
X11417Y-15548D01*
X12317Y-16617D02*
X12373Y-16673D01*
X12317Y-16730D01*
X12260Y-16673D01*
X12317Y-16617D01*
X12317Y-16730D01*
X13498Y-16730D02*
X12823Y-16730D01*
X13160Y-16730D02*
X13160Y-15548D01*
X13048Y-15717D01*
X12935Y-15830D01*
X12823Y-15886D01*
X13948Y-15661D02*
X14004Y-15605D01*
X14116Y-15548D01*
X14398Y-15548D01*
X14510Y-15605D01*
X14566Y-15661D01*
X14623Y-15773D01*
X14623Y-15886D01*
X14566Y-16055D01*
X13892Y-16730D01*
X14623Y-16730D01*
X15354Y-15548D02*
X15466Y-15548D01*
X15579Y-15605D01*
X15635Y-15661D01*
X15691Y-15773D01*
X15748Y-15998D01*
X15748Y-16280D01*
X15691Y-16505D01*
X15635Y-16617D01*
X15579Y-16673D01*
X15466Y-16730D01*
X15354Y-16730D01*
X15241Y-16673D01*
X15185Y-16617D01*
X15129Y-16505D01*
X15073Y-16280D01*
X15073Y-15998D01*
X15129Y-15773D01*
X15185Y-15661D01*
X15241Y-15605D01*
X15354Y-15548D01*
X16197Y-15548D02*
X16197Y-15773D01*
X16647Y-15548D02*
X16647Y-15773D01*
X18391Y-17179D02*
X18335Y-17123D01*
X18222Y-16955D01*
X18166Y-16842D01*
X18110Y-16673D01*
X18053Y-16392D01*
X18053Y-16167D01*
X18110Y-15886D01*
X18166Y-15717D01*
X18222Y-15605D01*
X18335Y-15436D01*
X18391Y-15380D01*
X18785Y-15661D02*
X18841Y-15605D01*
X18953Y-15548D01*
X19235Y-15548D01*
X19347Y-15605D01*
X19403Y-15661D01*
X19460Y-15773D01*
X19460Y-15886D01*
X19403Y-16055D01*
X18728Y-16730D01*
X19460Y-16730D01*
X20866Y-16730D02*
X20866Y-15548D01*
X21372Y-16730D02*
X21372Y-16111D01*
X21316Y-15998D01*
X21203Y-15942D01*
X21034Y-15942D01*
X20922Y-15998D01*
X20866Y-16055D01*
X22103Y-16730D02*
X21991Y-16673D01*
X21934Y-16617D01*
X21878Y-16505D01*
X21878Y-16167D01*
X21934Y-16055D01*
X21991Y-15998D01*
X22103Y-15942D01*
X22272Y-15942D01*
X22384Y-15998D01*
X22440Y-16055D01*
X22497Y-16167D01*
X22497Y-16505D01*
X22440Y-16617D01*
X22384Y-16673D01*
X22272Y-16730D01*
X22103Y-16730D01*
X23172Y-16730D02*
X23059Y-16673D01*
X23003Y-16561D01*
X23003Y-15548D01*
X24071Y-16673D02*
X23959Y-16730D01*
X23734Y-16730D01*
X23622Y-16673D01*
X23565Y-16561D01*
X23565Y-16111D01*
X23622Y-15998D01*
X23734Y-15942D01*
X23959Y-15942D01*
X24071Y-15998D01*
X24128Y-16111D01*
X24128Y-16223D01*
X23565Y-16336D01*
X24578Y-16673D02*
X24690Y-16730D01*
X24915Y-16730D01*
X25028Y-16673D01*
X25084Y-16561D01*
X25084Y-16505D01*
X25028Y-16392D01*
X24915Y-16336D01*
X24746Y-16336D01*
X24634Y-16280D01*
X24578Y-16167D01*
X24578Y-16111D01*
X24634Y-15998D01*
X24746Y-15942D01*
X24915Y-15942D01*
X25028Y-15998D01*
X25478Y-17179D02*
X25534Y-17123D01*
X25646Y-16955D01*
X25703Y-16842D01*
X25759Y-16673D01*
X25815Y-16392D01*
X25815Y-16167D01*
X25759Y-15886D01*
X25703Y-15717D01*
X25646Y-15605D01*
X25534Y-15436D01*
X25478Y-15380D01*
M02*
