G04 (created by PCBNEW (2013-07-07 BZR 4022)-stable) date 2016-03-24 오전 10:08:33*
%MOIN*%
G04 Gerber Fmt 3.4, Leading zero omitted, Abs format*
%FSLAX34Y34*%
G01*
G70*
G90*
G04 APERTURE LIST*
%ADD10C,0.00590551*%
%ADD11C,0.011811*%
%ADD12C,0.015*%
%ADD13C,0.012*%
%ADD14C,0.008*%
%ADD15C,0.005*%
%ADD16C,0.003*%
%ADD17C,0.01*%
%ADD18C,0.006*%
%ADD19C,0.0125*%
%ADD20C,0.0031*%
%ADD21C,0.0045*%
%ADD22C,0.0035*%
%ADD23C,0.0047*%
%ADD24C,0.0039*%
G04 APERTURE END LIST*
G54D10*
G54D11*
X45683Y-33675D02*
X45767Y-33703D01*
X45908Y-33703D01*
X45964Y-33675D01*
X45992Y-33647D01*
X46020Y-33591D01*
X46020Y-33534D01*
X45992Y-33478D01*
X45964Y-33450D01*
X45908Y-33422D01*
X45795Y-33394D01*
X45739Y-33366D01*
X45711Y-33338D01*
X45683Y-33281D01*
X45683Y-33225D01*
X45711Y-33169D01*
X45739Y-33141D01*
X45795Y-33113D01*
X45936Y-33113D01*
X46020Y-33141D01*
X46273Y-33703D02*
X46273Y-33113D01*
X46611Y-33703D01*
X46611Y-33113D01*
X46892Y-33113D02*
X46892Y-33591D01*
X46920Y-33647D01*
X46948Y-33675D01*
X47005Y-33703D01*
X47117Y-33703D01*
X47173Y-33675D01*
X47201Y-33647D01*
X47230Y-33591D01*
X47230Y-33113D01*
X47483Y-33534D02*
X47764Y-33534D01*
X47426Y-33703D02*
X47623Y-33113D01*
X47820Y-33703D01*
X48017Y-33703D02*
X48017Y-33113D01*
X48158Y-33113D01*
X48242Y-33141D01*
X48298Y-33197D01*
X48326Y-33253D01*
X48354Y-33366D01*
X48354Y-33450D01*
X48326Y-33562D01*
X48298Y-33619D01*
X48242Y-33675D01*
X48158Y-33703D01*
X48017Y-33703D01*
X48945Y-33647D02*
X48917Y-33675D01*
X48832Y-33703D01*
X48776Y-33703D01*
X48692Y-33675D01*
X48636Y-33619D01*
X48607Y-33562D01*
X48579Y-33450D01*
X48579Y-33366D01*
X48607Y-33253D01*
X48636Y-33197D01*
X48692Y-33141D01*
X48776Y-33113D01*
X48832Y-33113D01*
X48917Y-33141D01*
X48945Y-33169D01*
X49817Y-33928D02*
X49789Y-33900D01*
X49732Y-33816D01*
X49704Y-33759D01*
X49676Y-33675D01*
X49648Y-33534D01*
X49648Y-33422D01*
X49676Y-33281D01*
X49704Y-33197D01*
X49732Y-33141D01*
X49789Y-33056D01*
X49817Y-33028D01*
X49985Y-33309D02*
X50126Y-33703D01*
X50267Y-33309D01*
X50717Y-33675D02*
X50660Y-33703D01*
X50548Y-33703D01*
X50492Y-33675D01*
X50464Y-33619D01*
X50464Y-33394D01*
X50492Y-33338D01*
X50548Y-33309D01*
X50660Y-33309D01*
X50717Y-33338D01*
X50745Y-33394D01*
X50745Y-33450D01*
X50464Y-33506D01*
X50998Y-33703D02*
X50998Y-33309D01*
X50998Y-33422D02*
X51026Y-33366D01*
X51054Y-33338D01*
X51110Y-33309D01*
X51167Y-33309D01*
X51757Y-33113D02*
X52123Y-33113D01*
X51926Y-33338D01*
X52010Y-33338D01*
X52066Y-33366D01*
X52095Y-33394D01*
X52123Y-33450D01*
X52123Y-33591D01*
X52095Y-33647D01*
X52066Y-33675D01*
X52010Y-33703D01*
X51841Y-33703D01*
X51785Y-33675D01*
X51757Y-33647D01*
X52320Y-33928D02*
X52348Y-33900D01*
X52404Y-33816D01*
X52432Y-33759D01*
X52460Y-33675D01*
X52488Y-33534D01*
X52488Y-33422D01*
X52460Y-33281D01*
X52432Y-33197D01*
X52404Y-33141D01*
X52348Y-33056D01*
X52320Y-33028D01*
X53191Y-33169D02*
X53219Y-33141D01*
X53276Y-33113D01*
X53416Y-33113D01*
X53473Y-33141D01*
X53501Y-33169D01*
X53529Y-33225D01*
X53529Y-33281D01*
X53501Y-33366D01*
X53163Y-33703D01*
X53529Y-33703D01*
X53894Y-33113D02*
X53951Y-33113D01*
X54007Y-33141D01*
X54035Y-33169D01*
X54063Y-33225D01*
X54091Y-33338D01*
X54091Y-33478D01*
X54063Y-33591D01*
X54035Y-33647D01*
X54007Y-33675D01*
X53951Y-33703D01*
X53894Y-33703D01*
X53838Y-33675D01*
X53810Y-33647D01*
X53782Y-33591D01*
X53754Y-33478D01*
X53754Y-33338D01*
X53782Y-33225D01*
X53810Y-33169D01*
X53838Y-33141D01*
X53894Y-33113D01*
X54654Y-33703D02*
X54316Y-33703D01*
X54485Y-33703D02*
X54485Y-33113D01*
X54429Y-33197D01*
X54372Y-33253D01*
X54316Y-33281D01*
X55160Y-33113D02*
X55047Y-33113D01*
X54991Y-33141D01*
X54963Y-33169D01*
X54907Y-33253D01*
X54879Y-33366D01*
X54879Y-33591D01*
X54907Y-33647D01*
X54935Y-33675D01*
X54991Y-33703D01*
X55104Y-33703D01*
X55160Y-33675D01*
X55188Y-33647D01*
X55216Y-33591D01*
X55216Y-33450D01*
X55188Y-33394D01*
X55160Y-33366D01*
X55104Y-33338D01*
X54991Y-33338D01*
X54935Y-33366D01*
X54907Y-33394D01*
X54879Y-33450D01*
X55469Y-33647D02*
X55497Y-33675D01*
X55469Y-33703D01*
X55441Y-33675D01*
X55469Y-33647D01*
X55469Y-33703D01*
X55694Y-33113D02*
X56060Y-33113D01*
X55863Y-33338D01*
X55947Y-33338D01*
X56003Y-33366D01*
X56032Y-33394D01*
X56060Y-33450D01*
X56060Y-33591D01*
X56032Y-33647D01*
X56003Y-33675D01*
X55947Y-33703D01*
X55778Y-33703D01*
X55722Y-33675D01*
X55694Y-33647D01*
X56313Y-33647D02*
X56341Y-33675D01*
X56313Y-33703D01*
X56285Y-33675D01*
X56313Y-33647D01*
X56313Y-33703D01*
X56566Y-33169D02*
X56594Y-33141D01*
X56650Y-33113D01*
X56791Y-33113D01*
X56847Y-33141D01*
X56875Y-33169D01*
X56903Y-33225D01*
X56903Y-33281D01*
X56875Y-33366D01*
X56538Y-33703D01*
X56903Y-33703D01*
X57410Y-33309D02*
X57410Y-33703D01*
X57269Y-33084D02*
X57128Y-33506D01*
X57494Y-33506D01*
G54D12*
X57711Y-12992D02*
G75*
G03X57711Y-12992I-900J0D01*
G74*
G01*
X62041Y-31673D02*
G75*
G03X62041Y-31673I-900J0D01*
G74*
G01*
X42356Y-31279D02*
G75*
G03X42356Y-31279I-900J0D01*
G74*
G01*
G54D13*
X53151Y-21261D02*
X49211Y-21261D01*
X49211Y-21261D02*
X49211Y-17321D01*
X52961Y-17321D02*
X49211Y-17321D01*
X53151Y-17511D02*
X53151Y-21261D01*
X52961Y-17321D02*
X53151Y-17511D01*
G54D14*
X52931Y-17791D02*
G75*
G03X52931Y-17791I-250J0D01*
G74*
G01*
G54D15*
X53581Y-6383D02*
X48781Y-6383D01*
X48781Y-6383D02*
X48781Y-13083D01*
X48781Y-13083D02*
X53581Y-13083D01*
X53581Y-13083D02*
X53581Y-6383D01*
X56049Y-17379D02*
X56049Y-16479D01*
X56049Y-16479D02*
X56549Y-16479D01*
X56549Y-16479D02*
X56549Y-17379D01*
X56549Y-17379D02*
X56049Y-17379D01*
G54D13*
X43791Y-15503D02*
X44791Y-15503D01*
X44791Y-15503D02*
X44791Y-21503D01*
X44791Y-21503D02*
X43791Y-21503D01*
X43791Y-21503D02*
X43791Y-15503D01*
X43791Y-16503D02*
X44791Y-16503D01*
G54D14*
X61356Y-11773D02*
X61356Y-10273D01*
G54D16*
X61043Y-11023D02*
G75*
G03X61043Y-11023I-707J0D01*
G74*
G01*
G54D17*
X61335Y-10273D02*
G75*
G03X61335Y-11774I-999J-750D01*
G74*
G01*
G54D18*
X60336Y-10573D02*
G75*
G03X59886Y-11023I0J-450D01*
G74*
G01*
X60336Y-11473D02*
G75*
G03X60786Y-11023I0J450D01*
G74*
G01*
X60336Y-10373D02*
G75*
G03X59686Y-11023I0J-650D01*
G74*
G01*
X60336Y-11673D02*
G75*
G03X60986Y-11023I0J650D01*
G74*
G01*
X60336Y-10173D02*
G75*
G03X59486Y-11023I0J-850D01*
G74*
G01*
X60336Y-11873D02*
G75*
G03X61186Y-11023I0J850D01*
G74*
G01*
G54D14*
X43639Y-11773D02*
X43639Y-10273D01*
G54D16*
X43326Y-11023D02*
G75*
G03X43326Y-11023I-707J0D01*
G74*
G01*
G54D17*
X43619Y-10273D02*
G75*
G03X43619Y-11774I-999J-750D01*
G74*
G01*
G54D18*
X42619Y-10573D02*
G75*
G03X42169Y-11023I0J-450D01*
G74*
G01*
X42619Y-11473D02*
G75*
G03X43069Y-11023I0J450D01*
G74*
G01*
X42619Y-10373D02*
G75*
G03X41969Y-11023I0J-650D01*
G74*
G01*
X42619Y-11673D02*
G75*
G03X43269Y-11023I0J650D01*
G74*
G01*
X42619Y-10173D02*
G75*
G03X41769Y-11023I0J-850D01*
G74*
G01*
X42619Y-11873D02*
G75*
G03X43469Y-11023I0J850D01*
G74*
G01*
G54D19*
X46244Y-17647D02*
X46244Y-20147D01*
X48244Y-17647D02*
X48244Y-20147D01*
X47244Y-21147D02*
G75*
G03X48244Y-20147I0J1000D01*
G74*
G01*
X46244Y-20147D02*
G75*
G03X47244Y-21147I1000J0D01*
G74*
G01*
X48244Y-17647D02*
G75*
G03X47244Y-16647I-1000J0D01*
G74*
G01*
X47244Y-16647D02*
G75*
G03X46244Y-17647I0J-1000D01*
G74*
G01*
G54D13*
X57924Y-35714D02*
X45124Y-35714D01*
X45124Y-35714D02*
X45124Y-42714D01*
X45124Y-42714D02*
X57924Y-42714D01*
X57924Y-42714D02*
X57924Y-35714D01*
X55124Y-42714D02*
X55124Y-39714D01*
X55124Y-39714D02*
X47924Y-39714D01*
X47924Y-39714D02*
X47924Y-42714D01*
X54524Y-42714D02*
X54524Y-46114D01*
X54524Y-46114D02*
X48524Y-46114D01*
X48524Y-46114D02*
X48524Y-42714D01*
G54D14*
X57786Y-24871D02*
X57786Y-28671D01*
X57786Y-28671D02*
X56286Y-28671D01*
X56286Y-28671D02*
X56286Y-24871D01*
X56286Y-24871D02*
X57786Y-24871D01*
X57286Y-24871D02*
X57286Y-25171D01*
X57286Y-25171D02*
X56886Y-25171D01*
X56886Y-25171D02*
X56886Y-24871D01*
G54D15*
X41394Y-25446D02*
X40494Y-25446D01*
X40494Y-25446D02*
X40494Y-24946D01*
X40494Y-24946D02*
X41394Y-24946D01*
X41394Y-24946D02*
X41394Y-25446D01*
X48875Y-27809D02*
X47975Y-27809D01*
X47975Y-27809D02*
X47975Y-27309D01*
X47975Y-27309D02*
X48875Y-27309D01*
X48875Y-27309D02*
X48875Y-27809D01*
X53880Y-24946D02*
X54780Y-24946D01*
X54780Y-24946D02*
X54780Y-25446D01*
X54780Y-25446D02*
X53880Y-25446D01*
X53880Y-25446D02*
X53880Y-24946D01*
X53880Y-26521D02*
X54780Y-26521D01*
X54780Y-26521D02*
X54780Y-27021D01*
X54780Y-27021D02*
X53880Y-27021D01*
X53880Y-27021D02*
X53880Y-26521D01*
X48875Y-25446D02*
X47975Y-25446D01*
X47975Y-25446D02*
X47975Y-24946D01*
X47975Y-24946D02*
X48875Y-24946D01*
X48875Y-24946D02*
X48875Y-25446D01*
X42463Y-24946D02*
X43363Y-24946D01*
X43363Y-24946D02*
X43363Y-25446D01*
X43363Y-25446D02*
X42463Y-25446D01*
X42463Y-25446D02*
X42463Y-24946D01*
X60292Y-26234D02*
X59392Y-26234D01*
X59392Y-26234D02*
X59392Y-25734D01*
X59392Y-25734D02*
X60292Y-25734D01*
X60292Y-25734D02*
X60292Y-26234D01*
X42463Y-27309D02*
X43363Y-27309D01*
X43363Y-27309D02*
X43363Y-27809D01*
X43363Y-27809D02*
X42463Y-27809D01*
X42463Y-27809D02*
X42463Y-27309D01*
X60292Y-27809D02*
X59392Y-27809D01*
X59392Y-27809D02*
X59392Y-27309D01*
X59392Y-27309D02*
X60292Y-27309D01*
X60292Y-27309D02*
X60292Y-27809D01*
X60292Y-24659D02*
X59392Y-24659D01*
X59392Y-24659D02*
X59392Y-24159D01*
X59392Y-24159D02*
X60292Y-24159D01*
X60292Y-24159D02*
X60292Y-24659D01*
X53399Y-13920D02*
X53399Y-14820D01*
X53399Y-14820D02*
X52899Y-14820D01*
X52899Y-14820D02*
X52899Y-13920D01*
X52899Y-13920D02*
X53399Y-13920D01*
X42463Y-26521D02*
X43363Y-26521D01*
X43363Y-26521D02*
X43363Y-27021D01*
X43363Y-27021D02*
X42463Y-27021D01*
X42463Y-27021D02*
X42463Y-26521D01*
X52612Y-13920D02*
X52612Y-14820D01*
X52612Y-14820D02*
X52112Y-14820D01*
X52112Y-14820D02*
X52112Y-13920D01*
X52112Y-13920D02*
X52612Y-13920D01*
X60095Y-13438D02*
X59195Y-13438D01*
X59195Y-13438D02*
X59195Y-12938D01*
X59195Y-12938D02*
X60095Y-12938D01*
X60095Y-12938D02*
X60095Y-13438D01*
X53880Y-25734D02*
X54780Y-25734D01*
X54780Y-25734D02*
X54780Y-26234D01*
X54780Y-26234D02*
X53880Y-26234D01*
X53880Y-26234D02*
X53880Y-25734D01*
X48875Y-29383D02*
X47975Y-29383D01*
X47975Y-29383D02*
X47975Y-28883D01*
X47975Y-28883D02*
X48875Y-28883D01*
X48875Y-28883D02*
X48875Y-29383D01*
X52812Y-28596D02*
X51912Y-28596D01*
X51912Y-28596D02*
X51912Y-28096D01*
X51912Y-28096D02*
X52812Y-28096D01*
X52812Y-28096D02*
X52812Y-28596D01*
X52812Y-30171D02*
X51912Y-30171D01*
X51912Y-30171D02*
X51912Y-29671D01*
X51912Y-29671D02*
X52812Y-29671D01*
X52812Y-29671D02*
X52812Y-30171D01*
X53880Y-27309D02*
X54780Y-27309D01*
X54780Y-27309D02*
X54780Y-27809D01*
X54780Y-27809D02*
X53880Y-27809D01*
X53880Y-27809D02*
X53880Y-27309D01*
X48875Y-28596D02*
X47975Y-28596D01*
X47975Y-28596D02*
X47975Y-28096D01*
X47975Y-28096D02*
X48875Y-28096D01*
X48875Y-28096D02*
X48875Y-28596D01*
X61361Y-23372D02*
X62261Y-23372D01*
X62261Y-23372D02*
X62261Y-23872D01*
X62261Y-23872D02*
X61361Y-23872D01*
X61361Y-23872D02*
X61361Y-23372D01*
X61361Y-24946D02*
X62261Y-24946D01*
X62261Y-24946D02*
X62261Y-25446D01*
X62261Y-25446D02*
X61361Y-25446D01*
X61361Y-25446D02*
X61361Y-24946D01*
X41394Y-23872D02*
X40494Y-23872D01*
X40494Y-23872D02*
X40494Y-23372D01*
X40494Y-23372D02*
X41394Y-23372D01*
X41394Y-23372D02*
X41394Y-23872D01*
X52812Y-26234D02*
X51912Y-26234D01*
X51912Y-26234D02*
X51912Y-25734D01*
X51912Y-25734D02*
X52812Y-25734D01*
X52812Y-25734D02*
X52812Y-26234D01*
X41394Y-27809D02*
X40494Y-27809D01*
X40494Y-27809D02*
X40494Y-27309D01*
X40494Y-27309D02*
X41394Y-27309D01*
X41394Y-27309D02*
X41394Y-27809D01*
X43166Y-13438D02*
X42266Y-13438D01*
X42266Y-13438D02*
X42266Y-12938D01*
X42266Y-12938D02*
X43166Y-12938D01*
X43166Y-12938D02*
X43166Y-13438D01*
X42463Y-25734D02*
X43363Y-25734D01*
X43363Y-25734D02*
X43363Y-26234D01*
X43363Y-26234D02*
X42463Y-26234D01*
X42463Y-26234D02*
X42463Y-25734D01*
X55564Y-22581D02*
X55564Y-23481D01*
X55564Y-23481D02*
X55064Y-23481D01*
X55064Y-23481D02*
X55064Y-22581D01*
X55064Y-22581D02*
X55564Y-22581D01*
X61361Y-27309D02*
X62261Y-27309D01*
X62261Y-27309D02*
X62261Y-27809D01*
X62261Y-27809D02*
X61361Y-27809D01*
X61361Y-27809D02*
X61361Y-27309D01*
X53880Y-28883D02*
X54780Y-28883D01*
X54780Y-28883D02*
X54780Y-29383D01*
X54780Y-29383D02*
X53880Y-29383D01*
X53880Y-29383D02*
X53880Y-28883D01*
X48875Y-26234D02*
X47975Y-26234D01*
X47975Y-26234D02*
X47975Y-25734D01*
X47975Y-25734D02*
X48875Y-25734D01*
X48875Y-25734D02*
X48875Y-26234D01*
X60292Y-25446D02*
X59392Y-25446D01*
X59392Y-25446D02*
X59392Y-24946D01*
X59392Y-24946D02*
X60292Y-24946D01*
X60292Y-24946D02*
X60292Y-25446D01*
X49943Y-24159D02*
X50843Y-24159D01*
X50843Y-24159D02*
X50843Y-24659D01*
X50843Y-24659D02*
X49943Y-24659D01*
X49943Y-24659D02*
X49943Y-24159D01*
X42463Y-28096D02*
X43363Y-28096D01*
X43363Y-28096D02*
X43363Y-28596D01*
X43363Y-28596D02*
X42463Y-28596D01*
X42463Y-28596D02*
X42463Y-28096D01*
X42463Y-24159D02*
X43363Y-24159D01*
X43363Y-24159D02*
X43363Y-24659D01*
X43363Y-24659D02*
X42463Y-24659D01*
X42463Y-24659D02*
X42463Y-24159D01*
X49943Y-29671D02*
X50843Y-29671D01*
X50843Y-29671D02*
X50843Y-30171D01*
X50843Y-30171D02*
X49943Y-30171D01*
X49943Y-30171D02*
X49943Y-29671D01*
X49943Y-28096D02*
X50843Y-28096D01*
X50843Y-28096D02*
X50843Y-28596D01*
X50843Y-28596D02*
X49943Y-28596D01*
X49943Y-28596D02*
X49943Y-28096D01*
X41394Y-29383D02*
X40494Y-29383D01*
X40494Y-29383D02*
X40494Y-28883D01*
X40494Y-28883D02*
X41394Y-28883D01*
X41394Y-28883D02*
X41394Y-29383D01*
X48875Y-27021D02*
X47975Y-27021D01*
X47975Y-27021D02*
X47975Y-26521D01*
X47975Y-26521D02*
X48875Y-26521D01*
X48875Y-26521D02*
X48875Y-27021D01*
X52812Y-24659D02*
X51912Y-24659D01*
X51912Y-24659D02*
X51912Y-24159D01*
X51912Y-24159D02*
X52812Y-24159D01*
X52812Y-24159D02*
X52812Y-24659D01*
X49462Y-13920D02*
X49462Y-14820D01*
X49462Y-14820D02*
X48962Y-14820D01*
X48962Y-14820D02*
X48962Y-13920D01*
X48962Y-13920D02*
X49462Y-13920D01*
X49943Y-25734D02*
X50843Y-25734D01*
X50843Y-25734D02*
X50843Y-26234D01*
X50843Y-26234D02*
X49943Y-26234D01*
X49943Y-26234D02*
X49943Y-25734D01*
X61361Y-28883D02*
X62261Y-28883D01*
X62261Y-28883D02*
X62261Y-29383D01*
X62261Y-29383D02*
X61361Y-29383D01*
X61361Y-29383D02*
X61361Y-28883D01*
X60292Y-27021D02*
X59392Y-27021D01*
X59392Y-27021D02*
X59392Y-26521D01*
X59392Y-26521D02*
X60292Y-26521D01*
X60292Y-26521D02*
X60292Y-27021D01*
X60292Y-28596D02*
X59392Y-28596D01*
X59392Y-28596D02*
X59392Y-28096D01*
X59392Y-28096D02*
X60292Y-28096D01*
X60292Y-28096D02*
X60292Y-28596D01*
X53880Y-28096D02*
X54780Y-28096D01*
X54780Y-28096D02*
X54780Y-28596D01*
X54780Y-28596D02*
X53880Y-28596D01*
X53880Y-28596D02*
X53880Y-28096D01*
X49943Y-28883D02*
X50843Y-28883D01*
X50843Y-28883D02*
X50843Y-29383D01*
X50843Y-29383D02*
X49943Y-29383D01*
X49943Y-29383D02*
X49943Y-28883D01*
X45419Y-20528D02*
X45419Y-19628D01*
X45419Y-19628D02*
X45919Y-19628D01*
X45919Y-19628D02*
X45919Y-20528D01*
X45919Y-20528D02*
X45419Y-20528D01*
X45219Y-23962D02*
X46119Y-23962D01*
X46119Y-23962D02*
X46119Y-24462D01*
X46119Y-24462D02*
X45219Y-24462D01*
X45219Y-24462D02*
X45219Y-23962D01*
X41394Y-28596D02*
X40494Y-28596D01*
X40494Y-28596D02*
X40494Y-28096D01*
X40494Y-28096D02*
X41394Y-28096D01*
X41394Y-28096D02*
X41394Y-28596D01*
X49750Y-14820D02*
X49750Y-13920D01*
X49750Y-13920D02*
X50250Y-13920D01*
X50250Y-13920D02*
X50250Y-14820D01*
X50250Y-14820D02*
X49750Y-14820D01*
X55761Y-16479D02*
X55761Y-17379D01*
X55761Y-17379D02*
X55261Y-17379D01*
X55261Y-17379D02*
X55261Y-16479D01*
X55261Y-16479D02*
X55761Y-16479D01*
X54474Y-20922D02*
X54474Y-20022D01*
X54474Y-20022D02*
X54974Y-20022D01*
X54974Y-20022D02*
X54974Y-20922D01*
X54974Y-20922D02*
X54474Y-20922D01*
X55261Y-18953D02*
X55261Y-18053D01*
X55261Y-18053D02*
X55761Y-18053D01*
X55761Y-18053D02*
X55761Y-18953D01*
X55761Y-18953D02*
X55261Y-18953D01*
X52812Y-25446D02*
X51912Y-25446D01*
X51912Y-25446D02*
X51912Y-24946D01*
X51912Y-24946D02*
X52812Y-24946D01*
X52812Y-24946D02*
X52812Y-25446D01*
X40494Y-25734D02*
X41394Y-25734D01*
X41394Y-25734D02*
X41394Y-26234D01*
X41394Y-26234D02*
X40494Y-26234D01*
X40494Y-26234D02*
X40494Y-25734D01*
X51824Y-13920D02*
X51824Y-14820D01*
X51824Y-14820D02*
X51324Y-14820D01*
X51324Y-14820D02*
X51324Y-13920D01*
X51324Y-13920D02*
X51824Y-13920D01*
X50843Y-27809D02*
X49943Y-27809D01*
X49943Y-27809D02*
X49943Y-27309D01*
X49943Y-27309D02*
X50843Y-27309D01*
X50843Y-27309D02*
X50843Y-27809D01*
X52812Y-29383D02*
X51912Y-29383D01*
X51912Y-29383D02*
X51912Y-28883D01*
X51912Y-28883D02*
X52812Y-28883D01*
X52812Y-28883D02*
X52812Y-29383D01*
X49943Y-24946D02*
X50843Y-24946D01*
X50843Y-24946D02*
X50843Y-25446D01*
X50843Y-25446D02*
X49943Y-25446D01*
X49943Y-25446D02*
X49943Y-24946D01*
X40494Y-26521D02*
X41394Y-26521D01*
X41394Y-26521D02*
X41394Y-27021D01*
X41394Y-27021D02*
X40494Y-27021D01*
X40494Y-27021D02*
X40494Y-26521D01*
X45419Y-18560D02*
X45419Y-17660D01*
X45419Y-17660D02*
X45919Y-17660D01*
X45919Y-17660D02*
X45919Y-18560D01*
X45919Y-18560D02*
X45419Y-18560D01*
X41394Y-24659D02*
X40494Y-24659D01*
X40494Y-24659D02*
X40494Y-24159D01*
X40494Y-24159D02*
X41394Y-24159D01*
X41394Y-24159D02*
X41394Y-24659D01*
X56636Y-24159D02*
X57536Y-24159D01*
X57536Y-24159D02*
X57536Y-24659D01*
X57536Y-24659D02*
X56636Y-24659D01*
X56636Y-24659D02*
X56636Y-24159D01*
X51912Y-26521D02*
X52812Y-26521D01*
X52812Y-26521D02*
X52812Y-27021D01*
X52812Y-27021D02*
X51912Y-27021D01*
X51912Y-27021D02*
X51912Y-26521D01*
X51912Y-27309D02*
X52812Y-27309D01*
X52812Y-27309D02*
X52812Y-27809D01*
X52812Y-27809D02*
X51912Y-27809D01*
X51912Y-27809D02*
X51912Y-27309D01*
X52702Y-23481D02*
X52702Y-22581D01*
X52702Y-22581D02*
X53202Y-22581D01*
X53202Y-22581D02*
X53202Y-23481D01*
X53202Y-23481D02*
X52702Y-23481D01*
X50843Y-27021D02*
X49943Y-27021D01*
X49943Y-27021D02*
X49943Y-26521D01*
X49943Y-26521D02*
X50843Y-26521D01*
X50843Y-26521D02*
X50843Y-27021D01*
G54D12*
X57586Y-7548D02*
X56486Y-7548D01*
X56486Y-7548D02*
X56486Y-7948D01*
X58386Y-7948D02*
X58386Y-8848D01*
X55786Y-7948D02*
X55786Y-8948D01*
X58486Y-8848D02*
X58486Y-9548D01*
X55686Y-8848D02*
X55686Y-9548D01*
X57586Y-7948D02*
X57586Y-7548D01*
G54D13*
X55786Y-8948D02*
X58386Y-8948D01*
X58386Y-7948D02*
X55786Y-7948D01*
G54D20*
X53733Y-22972D02*
G75*
G03X53733Y-22972I-62J0D01*
G74*
G01*
X54633Y-22634D02*
X54633Y-23034D01*
X53608Y-22634D02*
X53608Y-23034D01*
X54633Y-23034D02*
X53608Y-23034D01*
X53608Y-22634D02*
X54633Y-22634D01*
G54D15*
X61361Y-28096D02*
X62261Y-28096D01*
X62261Y-28096D02*
X62261Y-28596D01*
X62261Y-28596D02*
X61361Y-28596D01*
X61361Y-28596D02*
X61361Y-28096D01*
X62261Y-27021D02*
X61361Y-27021D01*
X61361Y-27021D02*
X61361Y-26521D01*
X61361Y-26521D02*
X62261Y-26521D01*
X62261Y-26521D02*
X62261Y-27021D01*
X61361Y-24159D02*
X62261Y-24159D01*
X62261Y-24159D02*
X62261Y-24659D01*
X62261Y-24659D02*
X61361Y-24659D01*
X61361Y-24659D02*
X61361Y-24159D01*
X62261Y-26234D02*
X61361Y-26234D01*
X61361Y-26234D02*
X61361Y-25734D01*
X61361Y-25734D02*
X62261Y-25734D01*
X62261Y-25734D02*
X62261Y-26234D01*
G54D14*
X46369Y-24871D02*
X46369Y-28671D01*
X46369Y-28671D02*
X44869Y-28671D01*
X44869Y-28671D02*
X44869Y-24871D01*
X44869Y-24871D02*
X46369Y-24871D01*
X45869Y-24871D02*
X45869Y-25171D01*
X45869Y-25171D02*
X45469Y-25171D01*
X45469Y-25171D02*
X45469Y-24871D01*
G54D10*
X46259Y-6889D02*
X44291Y-6889D01*
X44291Y-6889D02*
X44291Y-8070D01*
X46259Y-6889D02*
X46259Y-8070D01*
G54D14*
X46259Y-8070D02*
X46259Y-11614D01*
X46259Y-11614D02*
X44291Y-11614D01*
X44291Y-11614D02*
X44291Y-8070D01*
X44291Y-8070D02*
X46259Y-8070D01*
G54D12*
X42356Y-15570D02*
G75*
G03X42356Y-15570I-900J0D01*
G74*
G01*
X62041Y-15570D02*
G75*
G03X62041Y-15570I-900J0D01*
G74*
G01*
X46687Y-12992D02*
G75*
G03X46687Y-12992I-900J0D01*
G74*
G01*
G54D14*
X51573Y-19596D02*
X52059Y-19596D01*
X52116Y-19577D01*
X52145Y-19558D01*
X52173Y-19519D01*
X52173Y-19443D01*
X52145Y-19405D01*
X52116Y-19386D01*
X52059Y-19367D01*
X51573Y-19367D01*
X51631Y-19196D02*
X51602Y-19177D01*
X51573Y-19138D01*
X51573Y-19043D01*
X51602Y-19005D01*
X51631Y-18986D01*
X51688Y-18967D01*
X51745Y-18967D01*
X51831Y-18986D01*
X52173Y-19215D01*
X52173Y-18967D01*
X49371Y-19362D02*
X49562Y-19362D01*
X49333Y-19534D02*
X49466Y-18934D01*
X49600Y-19534D01*
X49676Y-18934D02*
X49904Y-18934D01*
X49790Y-19534D02*
X49790Y-18934D01*
X50038Y-19534D02*
X50038Y-18934D01*
X50171Y-19362D01*
X50304Y-18934D01*
X50304Y-19534D01*
X50495Y-19219D02*
X50628Y-19219D01*
X50685Y-19534D02*
X50495Y-19534D01*
X50495Y-18934D01*
X50685Y-18934D01*
X51066Y-18962D02*
X51028Y-18934D01*
X50971Y-18934D01*
X50914Y-18962D01*
X50876Y-19019D01*
X50857Y-19077D01*
X50838Y-19191D01*
X50838Y-19277D01*
X50857Y-19391D01*
X50876Y-19448D01*
X50914Y-19505D01*
X50971Y-19534D01*
X51009Y-19534D01*
X51066Y-19505D01*
X51085Y-19477D01*
X51085Y-19277D01*
X51009Y-19277D01*
X51238Y-19362D02*
X51428Y-19362D01*
X51200Y-19534D02*
X51333Y-18934D01*
X51466Y-19534D01*
X51562Y-18934D02*
X51809Y-18934D01*
X51676Y-19162D01*
X51733Y-19162D01*
X51771Y-19191D01*
X51790Y-19219D01*
X51809Y-19277D01*
X51809Y-19419D01*
X51790Y-19477D01*
X51771Y-19505D01*
X51733Y-19534D01*
X51619Y-19534D01*
X51581Y-19505D01*
X51562Y-19477D01*
X51962Y-18991D02*
X51981Y-18962D01*
X52019Y-18934D01*
X52114Y-18934D01*
X52152Y-18962D01*
X52171Y-18991D01*
X52190Y-19048D01*
X52190Y-19105D01*
X52171Y-19191D01*
X51943Y-19534D01*
X52190Y-19534D01*
X52362Y-18934D02*
X52362Y-19419D01*
X52381Y-19477D01*
X52400Y-19505D01*
X52438Y-19534D01*
X52514Y-19534D01*
X52552Y-19505D01*
X52571Y-19477D01*
X52590Y-19419D01*
X52590Y-18934D01*
X52952Y-19134D02*
X52952Y-19534D01*
X52857Y-18905D02*
X52762Y-19334D01*
X53009Y-19334D01*
G54D13*
X50177Y-9012D02*
X50177Y-9498D01*
X50206Y-9555D01*
X50234Y-9584D01*
X50291Y-9612D01*
X50406Y-9612D01*
X50463Y-9584D01*
X50491Y-9555D01*
X50520Y-9498D01*
X50520Y-9012D01*
X50777Y-9584D02*
X50863Y-9612D01*
X51006Y-9612D01*
X51063Y-9584D01*
X51091Y-9555D01*
X51120Y-9498D01*
X51120Y-9441D01*
X51091Y-9384D01*
X51063Y-9355D01*
X51006Y-9327D01*
X50891Y-9298D01*
X50834Y-9270D01*
X50806Y-9241D01*
X50777Y-9184D01*
X50777Y-9127D01*
X50806Y-9070D01*
X50834Y-9041D01*
X50891Y-9012D01*
X51034Y-9012D01*
X51120Y-9041D01*
X51577Y-9298D02*
X51663Y-9327D01*
X51691Y-9355D01*
X51720Y-9412D01*
X51720Y-9498D01*
X51691Y-9555D01*
X51663Y-9584D01*
X51606Y-9612D01*
X51377Y-9612D01*
X51377Y-9012D01*
X51577Y-9012D01*
X51634Y-9041D01*
X51663Y-9070D01*
X51691Y-9127D01*
X51691Y-9184D01*
X51663Y-9241D01*
X51634Y-9270D01*
X51577Y-9298D01*
X51377Y-9298D01*
X52291Y-9612D02*
X51949Y-9612D01*
X52120Y-9612D02*
X52120Y-9012D01*
X52063Y-9098D01*
X52006Y-9155D01*
X51949Y-9184D01*
G54D21*
X56380Y-17746D02*
X56380Y-17832D01*
X56180Y-17832D01*
X56380Y-17592D02*
X56380Y-17695D01*
X56380Y-17643D02*
X56180Y-17643D01*
X56208Y-17660D01*
X56227Y-17677D01*
X56237Y-17695D01*
G54D14*
X44903Y-18637D02*
X45188Y-18637D01*
X45246Y-18656D01*
X45284Y-18694D01*
X45303Y-18751D01*
X45303Y-18789D01*
X44941Y-18465D02*
X44922Y-18446D01*
X44903Y-18408D01*
X44903Y-18313D01*
X44922Y-18275D01*
X44941Y-18256D01*
X44979Y-18237D01*
X45017Y-18237D01*
X45074Y-18256D01*
X45303Y-18484D01*
X45303Y-18237D01*
G54D22*
X60014Y-9645D02*
X60014Y-9345D01*
X60086Y-9345D01*
X60129Y-9359D01*
X60157Y-9387D01*
X60171Y-9416D01*
X60186Y-9473D01*
X60186Y-9516D01*
X60171Y-9573D01*
X60157Y-9602D01*
X60129Y-9630D01*
X60086Y-9645D01*
X60014Y-9645D01*
X60300Y-9373D02*
X60314Y-9359D01*
X60343Y-9345D01*
X60414Y-9345D01*
X60443Y-9359D01*
X60457Y-9373D01*
X60471Y-9402D01*
X60471Y-9430D01*
X60457Y-9473D01*
X60286Y-9645D01*
X60471Y-9645D01*
X60043Y-12645D02*
X59900Y-12645D01*
X59900Y-12345D01*
X60143Y-12487D02*
X60243Y-12487D01*
X60286Y-12645D02*
X60143Y-12645D01*
X60143Y-12345D01*
X60286Y-12345D01*
X60414Y-12645D02*
X60414Y-12345D01*
X60486Y-12345D01*
X60529Y-12359D01*
X60557Y-12387D01*
X60571Y-12416D01*
X60586Y-12473D01*
X60586Y-12516D01*
X60571Y-12573D01*
X60557Y-12602D01*
X60529Y-12630D01*
X60486Y-12645D01*
X60414Y-12645D01*
X42298Y-9645D02*
X42298Y-9345D01*
X42369Y-9345D01*
X42412Y-9359D01*
X42441Y-9387D01*
X42455Y-9416D01*
X42469Y-9473D01*
X42469Y-9516D01*
X42455Y-9573D01*
X42441Y-9602D01*
X42412Y-9630D01*
X42369Y-9645D01*
X42298Y-9645D01*
X42755Y-9645D02*
X42583Y-9645D01*
X42669Y-9645D02*
X42669Y-9345D01*
X42641Y-9387D01*
X42612Y-9416D01*
X42583Y-9430D01*
X42326Y-12645D02*
X42183Y-12645D01*
X42183Y-12345D01*
X42426Y-12487D02*
X42526Y-12487D01*
X42569Y-12645D02*
X42426Y-12645D01*
X42426Y-12345D01*
X42569Y-12345D01*
X42698Y-12645D02*
X42698Y-12345D01*
X42769Y-12345D01*
X42812Y-12359D01*
X42841Y-12387D01*
X42855Y-12416D01*
X42869Y-12473D01*
X42869Y-12516D01*
X42855Y-12573D01*
X42841Y-12602D01*
X42812Y-12630D01*
X42769Y-12645D01*
X42698Y-12645D01*
G54D13*
X48701Y-19183D02*
X48986Y-19183D01*
X48386Y-19383D02*
X48701Y-19183D01*
X48386Y-18983D01*
X48986Y-18469D02*
X48986Y-18811D01*
X48986Y-18640D02*
X48386Y-18640D01*
X48472Y-18697D01*
X48529Y-18754D01*
X48558Y-18811D01*
X46426Y-21896D02*
X46083Y-21896D01*
X46255Y-21896D02*
X46255Y-21296D01*
X46198Y-21382D01*
X46140Y-21439D01*
X46083Y-21467D01*
X46940Y-21296D02*
X46826Y-21296D01*
X46769Y-21324D01*
X46740Y-21353D01*
X46683Y-21439D01*
X46655Y-21553D01*
X46655Y-21782D01*
X46683Y-21839D01*
X46712Y-21867D01*
X46769Y-21896D01*
X46883Y-21896D01*
X46940Y-21867D01*
X46969Y-21839D01*
X46998Y-21782D01*
X46998Y-21639D01*
X46969Y-21582D01*
X46940Y-21553D01*
X46883Y-21524D01*
X46769Y-21524D01*
X46712Y-21553D01*
X46683Y-21582D01*
X46655Y-21639D01*
X47255Y-21896D02*
X47255Y-21296D01*
X47455Y-21724D01*
X47655Y-21296D01*
X47655Y-21896D01*
X47940Y-21896D02*
X47940Y-21296D01*
X47940Y-21582D02*
X48283Y-21582D01*
X48283Y-21896D02*
X48283Y-21296D01*
X48512Y-21496D02*
X48826Y-21496D01*
X48512Y-21896D01*
X48826Y-21896D01*
X50331Y-38357D02*
X50331Y-37757D01*
X50474Y-37757D01*
X50560Y-37785D01*
X50617Y-37842D01*
X50646Y-37899D01*
X50674Y-38014D01*
X50674Y-38099D01*
X50646Y-38214D01*
X50617Y-38271D01*
X50560Y-38328D01*
X50474Y-38357D01*
X50331Y-38357D01*
X51131Y-38042D02*
X51217Y-38071D01*
X51246Y-38099D01*
X51274Y-38157D01*
X51274Y-38242D01*
X51246Y-38299D01*
X51217Y-38328D01*
X51160Y-38357D01*
X50931Y-38357D01*
X50931Y-37757D01*
X51131Y-37757D01*
X51189Y-37785D01*
X51217Y-37814D01*
X51246Y-37871D01*
X51246Y-37928D01*
X51217Y-37985D01*
X51189Y-38014D01*
X51131Y-38042D01*
X50931Y-38042D01*
X51560Y-38357D02*
X51674Y-38357D01*
X51731Y-38328D01*
X51760Y-38299D01*
X51817Y-38214D01*
X51846Y-38099D01*
X51846Y-37871D01*
X51817Y-37814D01*
X51789Y-37785D01*
X51731Y-37757D01*
X51617Y-37757D01*
X51560Y-37785D01*
X51531Y-37814D01*
X51503Y-37871D01*
X51503Y-38014D01*
X51531Y-38071D01*
X51560Y-38099D01*
X51617Y-38128D01*
X51731Y-38128D01*
X51789Y-38099D01*
X51817Y-38071D01*
X51846Y-38014D01*
G54D15*
X57148Y-27114D02*
X57472Y-27114D01*
X57510Y-27093D01*
X57529Y-27071D01*
X57548Y-27028D01*
X57548Y-26943D01*
X57529Y-26900D01*
X57510Y-26878D01*
X57472Y-26857D01*
X57148Y-26857D01*
X57281Y-26450D02*
X57548Y-26450D01*
X57129Y-26557D02*
X57415Y-26664D01*
X57415Y-26385D01*
X56848Y-27847D02*
X56848Y-28038D01*
X56448Y-28038D01*
X56848Y-27714D02*
X56448Y-27714D01*
X56734Y-27581D01*
X56448Y-27447D01*
X56848Y-27447D01*
X56486Y-27276D02*
X56467Y-27257D01*
X56448Y-27219D01*
X56448Y-27124D01*
X56467Y-27085D01*
X56486Y-27066D01*
X56524Y-27047D01*
X56562Y-27047D01*
X56619Y-27066D01*
X56848Y-27295D01*
X56848Y-27047D01*
X56848Y-26857D02*
X56848Y-26781D01*
X56829Y-26743D01*
X56810Y-26724D01*
X56753Y-26685D01*
X56677Y-26666D01*
X56524Y-26666D01*
X56486Y-26685D01*
X56467Y-26704D01*
X56448Y-26743D01*
X56448Y-26819D01*
X56467Y-26857D01*
X56486Y-26876D01*
X56524Y-26895D01*
X56619Y-26895D01*
X56658Y-26876D01*
X56677Y-26857D01*
X56696Y-26819D01*
X56696Y-26743D01*
X56677Y-26704D01*
X56658Y-26685D01*
X56619Y-26666D01*
X56448Y-26419D02*
X56448Y-26381D01*
X56467Y-26343D01*
X56486Y-26324D01*
X56524Y-26304D01*
X56600Y-26285D01*
X56696Y-26285D01*
X56772Y-26304D01*
X56810Y-26324D01*
X56829Y-26343D01*
X56848Y-26381D01*
X56848Y-26419D01*
X56829Y-26457D01*
X56810Y-26476D01*
X56772Y-26495D01*
X56696Y-26514D01*
X56600Y-26514D01*
X56524Y-26495D01*
X56486Y-26476D01*
X56467Y-26457D01*
X56448Y-26419D01*
X56486Y-26133D02*
X56467Y-26114D01*
X56448Y-26076D01*
X56448Y-25981D01*
X56467Y-25943D01*
X56486Y-25924D01*
X56524Y-25904D01*
X56562Y-25904D01*
X56619Y-25924D01*
X56848Y-26152D01*
X56848Y-25904D01*
X56848Y-25733D02*
X56448Y-25733D01*
X56848Y-25504D01*
X56448Y-25504D01*
G54D21*
X40041Y-25277D02*
X39981Y-25182D01*
X39938Y-25277D02*
X39938Y-25077D01*
X40007Y-25077D01*
X40024Y-25087D01*
X40033Y-25096D01*
X40041Y-25115D01*
X40041Y-25144D01*
X40033Y-25163D01*
X40024Y-25173D01*
X40007Y-25182D01*
X39938Y-25182D01*
X40213Y-25277D02*
X40110Y-25277D01*
X40161Y-25277D02*
X40161Y-25077D01*
X40144Y-25106D01*
X40127Y-25125D01*
X40110Y-25134D01*
X40376Y-25077D02*
X40290Y-25077D01*
X40281Y-25173D01*
X40290Y-25163D01*
X40307Y-25153D01*
X40350Y-25153D01*
X40367Y-25163D01*
X40376Y-25173D01*
X40384Y-25192D01*
X40384Y-25239D01*
X40376Y-25258D01*
X40367Y-25268D01*
X40350Y-25277D01*
X40307Y-25277D01*
X40290Y-25268D01*
X40281Y-25258D01*
X47522Y-27640D02*
X47462Y-27544D01*
X47419Y-27640D02*
X47419Y-27440D01*
X47487Y-27440D01*
X47504Y-27449D01*
X47513Y-27459D01*
X47522Y-27478D01*
X47522Y-27506D01*
X47513Y-27525D01*
X47504Y-27535D01*
X47487Y-27544D01*
X47419Y-27544D01*
X47590Y-27459D02*
X47599Y-27449D01*
X47616Y-27440D01*
X47659Y-27440D01*
X47676Y-27449D01*
X47684Y-27459D01*
X47693Y-27478D01*
X47693Y-27497D01*
X47684Y-27525D01*
X47582Y-27640D01*
X47693Y-27640D01*
X47864Y-27640D02*
X47762Y-27640D01*
X47813Y-27640D02*
X47813Y-27440D01*
X47796Y-27468D01*
X47779Y-27487D01*
X47762Y-27497D01*
X55002Y-25277D02*
X54942Y-25182D01*
X54899Y-25277D02*
X54899Y-25077D01*
X54968Y-25077D01*
X54985Y-25087D01*
X54993Y-25096D01*
X55002Y-25115D01*
X55002Y-25144D01*
X54993Y-25163D01*
X54985Y-25173D01*
X54968Y-25182D01*
X54899Y-25182D01*
X55173Y-25277D02*
X55070Y-25277D01*
X55122Y-25277D02*
X55122Y-25077D01*
X55105Y-25106D01*
X55088Y-25125D01*
X55070Y-25134D01*
X55328Y-25144D02*
X55328Y-25277D01*
X55285Y-25068D02*
X55242Y-25211D01*
X55353Y-25211D01*
X55002Y-26852D02*
X54942Y-26757D01*
X54899Y-26852D02*
X54899Y-26652D01*
X54968Y-26652D01*
X54985Y-26662D01*
X54993Y-26671D01*
X55002Y-26690D01*
X55002Y-26719D01*
X54993Y-26738D01*
X54985Y-26747D01*
X54968Y-26757D01*
X54899Y-26757D01*
X55173Y-26852D02*
X55070Y-26852D01*
X55122Y-26852D02*
X55122Y-26652D01*
X55105Y-26681D01*
X55088Y-26700D01*
X55070Y-26709D01*
X55233Y-26652D02*
X55345Y-26652D01*
X55285Y-26728D01*
X55310Y-26728D01*
X55328Y-26738D01*
X55336Y-26747D01*
X55345Y-26766D01*
X55345Y-26814D01*
X55336Y-26833D01*
X55328Y-26843D01*
X55310Y-26852D01*
X55259Y-26852D01*
X55242Y-26843D01*
X55233Y-26833D01*
X47522Y-25277D02*
X47462Y-25182D01*
X47419Y-25277D02*
X47419Y-25077D01*
X47487Y-25077D01*
X47504Y-25087D01*
X47513Y-25096D01*
X47522Y-25115D01*
X47522Y-25144D01*
X47513Y-25163D01*
X47504Y-25173D01*
X47487Y-25182D01*
X47419Y-25182D01*
X47590Y-25096D02*
X47599Y-25087D01*
X47616Y-25077D01*
X47659Y-25077D01*
X47676Y-25087D01*
X47684Y-25096D01*
X47693Y-25115D01*
X47693Y-25134D01*
X47684Y-25163D01*
X47582Y-25277D01*
X47693Y-25277D01*
X47856Y-25077D02*
X47770Y-25077D01*
X47762Y-25173D01*
X47770Y-25163D01*
X47787Y-25153D01*
X47830Y-25153D01*
X47847Y-25163D01*
X47856Y-25173D01*
X47864Y-25192D01*
X47864Y-25239D01*
X47856Y-25258D01*
X47847Y-25268D01*
X47830Y-25277D01*
X47787Y-25277D01*
X47770Y-25268D01*
X47762Y-25258D01*
X43585Y-25277D02*
X43525Y-25182D01*
X43482Y-25277D02*
X43482Y-25077D01*
X43550Y-25077D01*
X43567Y-25087D01*
X43576Y-25096D01*
X43585Y-25115D01*
X43585Y-25144D01*
X43576Y-25163D01*
X43567Y-25173D01*
X43550Y-25182D01*
X43482Y-25182D01*
X43645Y-25077D02*
X43756Y-25077D01*
X43696Y-25153D01*
X43722Y-25153D01*
X43739Y-25163D01*
X43747Y-25173D01*
X43756Y-25192D01*
X43756Y-25239D01*
X43747Y-25258D01*
X43739Y-25268D01*
X43722Y-25277D01*
X43670Y-25277D01*
X43653Y-25268D01*
X43645Y-25258D01*
X43919Y-25077D02*
X43833Y-25077D01*
X43825Y-25173D01*
X43833Y-25163D01*
X43850Y-25153D01*
X43893Y-25153D01*
X43910Y-25163D01*
X43919Y-25173D01*
X43927Y-25192D01*
X43927Y-25239D01*
X43919Y-25258D01*
X43910Y-25268D01*
X43893Y-25277D01*
X43850Y-25277D01*
X43833Y-25268D01*
X43825Y-25258D01*
X58939Y-26065D02*
X58879Y-25969D01*
X58836Y-26065D02*
X58836Y-25865D01*
X58905Y-25865D01*
X58922Y-25874D01*
X58930Y-25884D01*
X58939Y-25903D01*
X58939Y-25931D01*
X58930Y-25950D01*
X58922Y-25960D01*
X58905Y-25969D01*
X58836Y-25969D01*
X59093Y-25931D02*
X59093Y-26065D01*
X59050Y-25855D02*
X59007Y-25998D01*
X59119Y-25998D01*
X59273Y-25865D02*
X59187Y-25865D01*
X59179Y-25960D01*
X59187Y-25950D01*
X59205Y-25941D01*
X59247Y-25941D01*
X59265Y-25950D01*
X59273Y-25960D01*
X59282Y-25979D01*
X59282Y-26027D01*
X59273Y-26046D01*
X59265Y-26055D01*
X59247Y-26065D01*
X59205Y-26065D01*
X59187Y-26055D01*
X59179Y-26046D01*
X43585Y-27640D02*
X43525Y-27544D01*
X43482Y-27640D02*
X43482Y-27440D01*
X43550Y-27440D01*
X43567Y-27449D01*
X43576Y-27459D01*
X43585Y-27478D01*
X43585Y-27506D01*
X43576Y-27525D01*
X43567Y-27535D01*
X43550Y-27544D01*
X43482Y-27544D01*
X43645Y-27440D02*
X43756Y-27440D01*
X43696Y-27516D01*
X43722Y-27516D01*
X43739Y-27525D01*
X43747Y-27535D01*
X43756Y-27554D01*
X43756Y-27601D01*
X43747Y-27620D01*
X43739Y-27630D01*
X43722Y-27640D01*
X43670Y-27640D01*
X43653Y-27630D01*
X43645Y-27620D01*
X43816Y-27440D02*
X43936Y-27440D01*
X43859Y-27640D01*
X58939Y-27640D02*
X58879Y-27544D01*
X58836Y-27640D02*
X58836Y-27440D01*
X58905Y-27440D01*
X58922Y-27449D01*
X58930Y-27459D01*
X58939Y-27478D01*
X58939Y-27506D01*
X58930Y-27525D01*
X58922Y-27535D01*
X58905Y-27544D01*
X58836Y-27544D01*
X59093Y-27506D02*
X59093Y-27640D01*
X59050Y-27430D02*
X59007Y-27573D01*
X59119Y-27573D01*
X59282Y-27640D02*
X59179Y-27640D01*
X59230Y-27640D02*
X59230Y-27440D01*
X59213Y-27468D01*
X59196Y-27487D01*
X59179Y-27497D01*
X58939Y-24490D02*
X58879Y-24395D01*
X58836Y-24490D02*
X58836Y-24290D01*
X58905Y-24290D01*
X58922Y-24299D01*
X58930Y-24309D01*
X58939Y-24328D01*
X58939Y-24357D01*
X58930Y-24376D01*
X58922Y-24385D01*
X58905Y-24395D01*
X58836Y-24395D01*
X59093Y-24357D02*
X59093Y-24490D01*
X59050Y-24280D02*
X59007Y-24423D01*
X59119Y-24423D01*
X59265Y-24290D02*
X59230Y-24290D01*
X59213Y-24299D01*
X59205Y-24309D01*
X59187Y-24338D01*
X59179Y-24376D01*
X59179Y-24452D01*
X59187Y-24471D01*
X59196Y-24480D01*
X59213Y-24490D01*
X59247Y-24490D01*
X59265Y-24480D01*
X59273Y-24471D01*
X59282Y-24452D01*
X59282Y-24404D01*
X59273Y-24385D01*
X59265Y-24376D01*
X59247Y-24366D01*
X59213Y-24366D01*
X59196Y-24376D01*
X59187Y-24385D01*
X59179Y-24404D01*
X53230Y-15187D02*
X53135Y-15247D01*
X53230Y-15290D02*
X53030Y-15290D01*
X53030Y-15221D01*
X53040Y-15204D01*
X53049Y-15196D01*
X53068Y-15187D01*
X53097Y-15187D01*
X53116Y-15196D01*
X53125Y-15204D01*
X53135Y-15221D01*
X53135Y-15290D01*
X53030Y-15127D02*
X53030Y-15016D01*
X53106Y-15076D01*
X53106Y-15050D01*
X53116Y-15033D01*
X53125Y-15024D01*
X53144Y-15016D01*
X53192Y-15016D01*
X53211Y-15024D01*
X53221Y-15033D01*
X53230Y-15050D01*
X53230Y-15101D01*
X53221Y-15118D01*
X53211Y-15127D01*
X43585Y-26852D02*
X43525Y-26757D01*
X43482Y-26852D02*
X43482Y-26652D01*
X43550Y-26652D01*
X43567Y-26662D01*
X43576Y-26671D01*
X43585Y-26690D01*
X43585Y-26719D01*
X43576Y-26738D01*
X43567Y-26747D01*
X43550Y-26757D01*
X43482Y-26757D01*
X43756Y-26852D02*
X43653Y-26852D01*
X43705Y-26852D02*
X43705Y-26652D01*
X43687Y-26681D01*
X43670Y-26700D01*
X43653Y-26709D01*
X43859Y-26738D02*
X43842Y-26728D01*
X43833Y-26719D01*
X43825Y-26700D01*
X43825Y-26690D01*
X43833Y-26671D01*
X43842Y-26662D01*
X43859Y-26652D01*
X43893Y-26652D01*
X43910Y-26662D01*
X43919Y-26671D01*
X43927Y-26690D01*
X43927Y-26700D01*
X43919Y-26719D01*
X43910Y-26728D01*
X43893Y-26738D01*
X43859Y-26738D01*
X43842Y-26747D01*
X43833Y-26757D01*
X43825Y-26776D01*
X43825Y-26814D01*
X43833Y-26833D01*
X43842Y-26843D01*
X43859Y-26852D01*
X43893Y-26852D01*
X43910Y-26843D01*
X43919Y-26833D01*
X43927Y-26814D01*
X43927Y-26776D01*
X43919Y-26757D01*
X43910Y-26747D01*
X43893Y-26738D01*
X52443Y-15187D02*
X52347Y-15247D01*
X52443Y-15290D02*
X52243Y-15290D01*
X52243Y-15221D01*
X52252Y-15204D01*
X52262Y-15196D01*
X52281Y-15187D01*
X52309Y-15187D01*
X52328Y-15196D01*
X52338Y-15204D01*
X52347Y-15221D01*
X52347Y-15290D01*
X52309Y-15033D02*
X52443Y-15033D01*
X52233Y-15076D02*
X52376Y-15118D01*
X52376Y-15007D01*
X60363Y-13309D02*
X60303Y-13214D01*
X60260Y-13309D02*
X60260Y-13109D01*
X60329Y-13109D01*
X60346Y-13118D01*
X60355Y-13128D01*
X60363Y-13147D01*
X60363Y-13175D01*
X60355Y-13195D01*
X60346Y-13204D01*
X60329Y-13214D01*
X60260Y-13214D01*
X60526Y-13109D02*
X60440Y-13109D01*
X60432Y-13204D01*
X60440Y-13195D01*
X60457Y-13185D01*
X60500Y-13185D01*
X60517Y-13195D01*
X60526Y-13204D01*
X60535Y-13223D01*
X60535Y-13271D01*
X60526Y-13290D01*
X60517Y-13299D01*
X60500Y-13309D01*
X60457Y-13309D01*
X60440Y-13299D01*
X60432Y-13290D01*
X55002Y-26065D02*
X54942Y-25969D01*
X54899Y-26065D02*
X54899Y-25865D01*
X54968Y-25865D01*
X54985Y-25874D01*
X54993Y-25884D01*
X55002Y-25903D01*
X55002Y-25931D01*
X54993Y-25950D01*
X54985Y-25960D01*
X54968Y-25969D01*
X54899Y-25969D01*
X55062Y-25865D02*
X55173Y-25865D01*
X55113Y-25941D01*
X55139Y-25941D01*
X55156Y-25950D01*
X55165Y-25960D01*
X55173Y-25979D01*
X55173Y-26027D01*
X55165Y-26046D01*
X55156Y-26055D01*
X55139Y-26065D01*
X55088Y-26065D01*
X55070Y-26055D01*
X55062Y-26046D01*
X55328Y-25865D02*
X55293Y-25865D01*
X55276Y-25874D01*
X55268Y-25884D01*
X55250Y-25912D01*
X55242Y-25950D01*
X55242Y-26027D01*
X55250Y-26046D01*
X55259Y-26055D01*
X55276Y-26065D01*
X55310Y-26065D01*
X55328Y-26055D01*
X55336Y-26046D01*
X55345Y-26027D01*
X55345Y-25979D01*
X55336Y-25960D01*
X55328Y-25950D01*
X55310Y-25941D01*
X55276Y-25941D01*
X55259Y-25950D01*
X55250Y-25960D01*
X55242Y-25979D01*
X47522Y-29214D02*
X47462Y-29119D01*
X47419Y-29214D02*
X47419Y-29014D01*
X47487Y-29014D01*
X47504Y-29024D01*
X47513Y-29033D01*
X47522Y-29052D01*
X47522Y-29081D01*
X47513Y-29100D01*
X47504Y-29110D01*
X47487Y-29119D01*
X47419Y-29119D01*
X47590Y-29033D02*
X47599Y-29024D01*
X47616Y-29014D01*
X47659Y-29014D01*
X47676Y-29024D01*
X47684Y-29033D01*
X47693Y-29052D01*
X47693Y-29071D01*
X47684Y-29100D01*
X47582Y-29214D01*
X47693Y-29214D01*
X47762Y-29033D02*
X47770Y-29024D01*
X47787Y-29014D01*
X47830Y-29014D01*
X47847Y-29024D01*
X47856Y-29033D01*
X47864Y-29052D01*
X47864Y-29071D01*
X47856Y-29100D01*
X47753Y-29214D01*
X47864Y-29214D01*
X53033Y-28427D02*
X52973Y-28332D01*
X52931Y-28427D02*
X52931Y-28227D01*
X52999Y-28227D01*
X53016Y-28236D01*
X53025Y-28246D01*
X53033Y-28265D01*
X53033Y-28294D01*
X53025Y-28313D01*
X53016Y-28322D01*
X52999Y-28332D01*
X52931Y-28332D01*
X53102Y-28246D02*
X53111Y-28236D01*
X53128Y-28227D01*
X53171Y-28227D01*
X53188Y-28236D01*
X53196Y-28246D01*
X53205Y-28265D01*
X53205Y-28284D01*
X53196Y-28313D01*
X53093Y-28427D01*
X53205Y-28427D01*
X53359Y-28227D02*
X53325Y-28227D01*
X53308Y-28236D01*
X53299Y-28246D01*
X53282Y-28275D01*
X53273Y-28313D01*
X53273Y-28389D01*
X53282Y-28408D01*
X53291Y-28417D01*
X53308Y-28427D01*
X53342Y-28427D01*
X53359Y-28417D01*
X53368Y-28408D01*
X53376Y-28389D01*
X53376Y-28341D01*
X53368Y-28322D01*
X53359Y-28313D01*
X53342Y-28303D01*
X53308Y-28303D01*
X53291Y-28313D01*
X53282Y-28322D01*
X53273Y-28341D01*
X53033Y-30002D02*
X52973Y-29906D01*
X52931Y-30002D02*
X52931Y-29802D01*
X52999Y-29802D01*
X53016Y-29811D01*
X53025Y-29821D01*
X53033Y-29840D01*
X53033Y-29868D01*
X53025Y-29887D01*
X53016Y-29897D01*
X52999Y-29906D01*
X52931Y-29906D01*
X53102Y-29821D02*
X53111Y-29811D01*
X53128Y-29802D01*
X53171Y-29802D01*
X53188Y-29811D01*
X53196Y-29821D01*
X53205Y-29840D01*
X53205Y-29859D01*
X53196Y-29887D01*
X53093Y-30002D01*
X53205Y-30002D01*
X53265Y-29802D02*
X53385Y-29802D01*
X53308Y-30002D01*
X55002Y-27640D02*
X54942Y-27544D01*
X54899Y-27640D02*
X54899Y-27440D01*
X54968Y-27440D01*
X54985Y-27449D01*
X54993Y-27459D01*
X55002Y-27478D01*
X55002Y-27506D01*
X54993Y-27525D01*
X54985Y-27535D01*
X54968Y-27544D01*
X54899Y-27544D01*
X55070Y-27459D02*
X55079Y-27449D01*
X55096Y-27440D01*
X55139Y-27440D01*
X55156Y-27449D01*
X55165Y-27459D01*
X55173Y-27478D01*
X55173Y-27497D01*
X55165Y-27525D01*
X55062Y-27640D01*
X55173Y-27640D01*
X55276Y-27525D02*
X55259Y-27516D01*
X55250Y-27506D01*
X55242Y-27487D01*
X55242Y-27478D01*
X55250Y-27459D01*
X55259Y-27449D01*
X55276Y-27440D01*
X55310Y-27440D01*
X55328Y-27449D01*
X55336Y-27459D01*
X55345Y-27478D01*
X55345Y-27487D01*
X55336Y-27506D01*
X55328Y-27516D01*
X55310Y-27525D01*
X55276Y-27525D01*
X55259Y-27535D01*
X55250Y-27544D01*
X55242Y-27563D01*
X55242Y-27601D01*
X55250Y-27620D01*
X55259Y-27630D01*
X55276Y-27640D01*
X55310Y-27640D01*
X55328Y-27630D01*
X55336Y-27620D01*
X55345Y-27601D01*
X55345Y-27563D01*
X55336Y-27544D01*
X55328Y-27535D01*
X55310Y-27525D01*
X47522Y-28427D02*
X47462Y-28332D01*
X47419Y-28427D02*
X47419Y-28227D01*
X47487Y-28227D01*
X47504Y-28236D01*
X47513Y-28246D01*
X47522Y-28265D01*
X47522Y-28294D01*
X47513Y-28313D01*
X47504Y-28322D01*
X47487Y-28332D01*
X47419Y-28332D01*
X47582Y-28227D02*
X47693Y-28227D01*
X47633Y-28303D01*
X47659Y-28303D01*
X47676Y-28313D01*
X47684Y-28322D01*
X47693Y-28341D01*
X47693Y-28389D01*
X47684Y-28408D01*
X47676Y-28417D01*
X47659Y-28427D01*
X47607Y-28427D01*
X47590Y-28417D01*
X47582Y-28408D01*
X47796Y-28313D02*
X47779Y-28303D01*
X47770Y-28294D01*
X47762Y-28275D01*
X47762Y-28265D01*
X47770Y-28246D01*
X47779Y-28236D01*
X47796Y-28227D01*
X47830Y-28227D01*
X47847Y-28236D01*
X47856Y-28246D01*
X47864Y-28265D01*
X47864Y-28275D01*
X47856Y-28294D01*
X47847Y-28303D01*
X47830Y-28313D01*
X47796Y-28313D01*
X47779Y-28322D01*
X47770Y-28332D01*
X47762Y-28351D01*
X47762Y-28389D01*
X47770Y-28408D01*
X47779Y-28417D01*
X47796Y-28427D01*
X47830Y-28427D01*
X47847Y-28417D01*
X47856Y-28408D01*
X47864Y-28389D01*
X47864Y-28351D01*
X47856Y-28332D01*
X47847Y-28322D01*
X47830Y-28313D01*
X62482Y-23702D02*
X62422Y-23607D01*
X62379Y-23702D02*
X62379Y-23502D01*
X62448Y-23502D01*
X62465Y-23512D01*
X62474Y-23522D01*
X62482Y-23541D01*
X62482Y-23569D01*
X62474Y-23588D01*
X62465Y-23598D01*
X62448Y-23607D01*
X62379Y-23607D01*
X62636Y-23569D02*
X62636Y-23702D01*
X62594Y-23493D02*
X62551Y-23636D01*
X62662Y-23636D01*
X62714Y-23502D02*
X62825Y-23502D01*
X62765Y-23579D01*
X62791Y-23579D01*
X62808Y-23588D01*
X62816Y-23598D01*
X62825Y-23617D01*
X62825Y-23664D01*
X62816Y-23683D01*
X62808Y-23693D01*
X62791Y-23702D01*
X62739Y-23702D01*
X62722Y-23693D01*
X62714Y-23683D01*
X62482Y-25277D02*
X62422Y-25182D01*
X62379Y-25277D02*
X62379Y-25077D01*
X62448Y-25077D01*
X62465Y-25087D01*
X62474Y-25096D01*
X62482Y-25115D01*
X62482Y-25144D01*
X62474Y-25163D01*
X62465Y-25173D01*
X62448Y-25182D01*
X62379Y-25182D01*
X62636Y-25144D02*
X62636Y-25277D01*
X62594Y-25068D02*
X62551Y-25211D01*
X62662Y-25211D01*
X62722Y-25096D02*
X62731Y-25087D01*
X62748Y-25077D01*
X62791Y-25077D01*
X62808Y-25087D01*
X62816Y-25096D01*
X62825Y-25115D01*
X62825Y-25134D01*
X62816Y-25163D01*
X62714Y-25277D01*
X62825Y-25277D01*
X40127Y-23702D02*
X40067Y-23607D01*
X40024Y-23702D02*
X40024Y-23502D01*
X40093Y-23502D01*
X40110Y-23512D01*
X40118Y-23522D01*
X40127Y-23541D01*
X40127Y-23569D01*
X40118Y-23588D01*
X40110Y-23598D01*
X40093Y-23607D01*
X40024Y-23607D01*
X40281Y-23502D02*
X40247Y-23502D01*
X40230Y-23512D01*
X40221Y-23522D01*
X40204Y-23550D01*
X40196Y-23588D01*
X40196Y-23664D01*
X40204Y-23683D01*
X40213Y-23693D01*
X40230Y-23702D01*
X40264Y-23702D01*
X40281Y-23693D01*
X40290Y-23683D01*
X40298Y-23664D01*
X40298Y-23617D01*
X40290Y-23598D01*
X40281Y-23588D01*
X40264Y-23579D01*
X40230Y-23579D01*
X40213Y-23588D01*
X40204Y-23598D01*
X40196Y-23617D01*
X53033Y-26065D02*
X52973Y-25969D01*
X52931Y-26065D02*
X52931Y-25865D01*
X52999Y-25865D01*
X53016Y-25874D01*
X53025Y-25884D01*
X53033Y-25903D01*
X53033Y-25931D01*
X53025Y-25950D01*
X53016Y-25960D01*
X52999Y-25969D01*
X52931Y-25969D01*
X53205Y-26065D02*
X53102Y-26065D01*
X53153Y-26065D02*
X53153Y-25865D01*
X53136Y-25893D01*
X53119Y-25912D01*
X53102Y-25922D01*
X53359Y-25865D02*
X53325Y-25865D01*
X53308Y-25874D01*
X53299Y-25884D01*
X53282Y-25912D01*
X53273Y-25950D01*
X53273Y-26027D01*
X53282Y-26046D01*
X53291Y-26055D01*
X53308Y-26065D01*
X53342Y-26065D01*
X53359Y-26055D01*
X53368Y-26046D01*
X53376Y-26027D01*
X53376Y-25979D01*
X53368Y-25960D01*
X53359Y-25950D01*
X53342Y-25941D01*
X53308Y-25941D01*
X53291Y-25950D01*
X53282Y-25960D01*
X53273Y-25979D01*
X40041Y-27640D02*
X39981Y-27544D01*
X39938Y-27640D02*
X39938Y-27440D01*
X40007Y-27440D01*
X40024Y-27449D01*
X40033Y-27459D01*
X40041Y-27478D01*
X40041Y-27506D01*
X40033Y-27525D01*
X40024Y-27535D01*
X40007Y-27544D01*
X39938Y-27544D01*
X40213Y-27640D02*
X40110Y-27640D01*
X40161Y-27640D02*
X40161Y-27440D01*
X40144Y-27468D01*
X40127Y-27487D01*
X40110Y-27497D01*
X40273Y-27440D02*
X40393Y-27440D01*
X40316Y-27640D01*
X43473Y-13269D02*
X43413Y-13174D01*
X43371Y-13269D02*
X43371Y-13069D01*
X43439Y-13069D01*
X43456Y-13079D01*
X43465Y-13088D01*
X43473Y-13108D01*
X43473Y-13136D01*
X43465Y-13155D01*
X43456Y-13165D01*
X43439Y-13174D01*
X43371Y-13174D01*
X43542Y-13088D02*
X43551Y-13079D01*
X43568Y-13069D01*
X43611Y-13069D01*
X43628Y-13079D01*
X43636Y-13088D01*
X43645Y-13108D01*
X43645Y-13127D01*
X43636Y-13155D01*
X43533Y-13269D01*
X43645Y-13269D01*
X43585Y-26065D02*
X43525Y-25969D01*
X43482Y-26065D02*
X43482Y-25865D01*
X43550Y-25865D01*
X43567Y-25874D01*
X43576Y-25884D01*
X43585Y-25903D01*
X43585Y-25931D01*
X43576Y-25950D01*
X43567Y-25960D01*
X43550Y-25969D01*
X43482Y-25969D01*
X43756Y-26065D02*
X43653Y-26065D01*
X43705Y-26065D02*
X43705Y-25865D01*
X43687Y-25893D01*
X43670Y-25912D01*
X43653Y-25922D01*
X43825Y-25884D02*
X43833Y-25874D01*
X43850Y-25865D01*
X43893Y-25865D01*
X43910Y-25874D01*
X43919Y-25884D01*
X43927Y-25903D01*
X43927Y-25922D01*
X43919Y-25950D01*
X43816Y-26065D01*
X43927Y-26065D01*
X55395Y-22359D02*
X55300Y-22419D01*
X55395Y-22462D02*
X55195Y-22462D01*
X55195Y-22394D01*
X55205Y-22376D01*
X55214Y-22368D01*
X55234Y-22359D01*
X55262Y-22359D01*
X55281Y-22368D01*
X55291Y-22376D01*
X55300Y-22394D01*
X55300Y-22462D01*
X55195Y-22299D02*
X55195Y-22188D01*
X55272Y-22248D01*
X55272Y-22222D01*
X55281Y-22205D01*
X55291Y-22196D01*
X55310Y-22188D01*
X55357Y-22188D01*
X55376Y-22196D01*
X55386Y-22205D01*
X55395Y-22222D01*
X55395Y-22274D01*
X55386Y-22291D01*
X55376Y-22299D01*
X55195Y-22076D02*
X55195Y-22059D01*
X55205Y-22042D01*
X55214Y-22034D01*
X55234Y-22025D01*
X55272Y-22016D01*
X55319Y-22016D01*
X55357Y-22025D01*
X55376Y-22034D01*
X55386Y-22042D01*
X55395Y-22059D01*
X55395Y-22076D01*
X55386Y-22094D01*
X55376Y-22102D01*
X55357Y-22111D01*
X55319Y-22119D01*
X55272Y-22119D01*
X55234Y-22111D01*
X55214Y-22102D01*
X55205Y-22094D01*
X55195Y-22076D01*
X62482Y-27640D02*
X62422Y-27544D01*
X62379Y-27640D02*
X62379Y-27440D01*
X62448Y-27440D01*
X62465Y-27449D01*
X62474Y-27459D01*
X62482Y-27478D01*
X62482Y-27506D01*
X62474Y-27525D01*
X62465Y-27535D01*
X62448Y-27544D01*
X62379Y-27544D01*
X62542Y-27440D02*
X62654Y-27440D01*
X62594Y-27516D01*
X62619Y-27516D01*
X62636Y-27525D01*
X62645Y-27535D01*
X62654Y-27554D01*
X62654Y-27601D01*
X62645Y-27620D01*
X62636Y-27630D01*
X62619Y-27640D01*
X62568Y-27640D01*
X62551Y-27630D01*
X62542Y-27620D01*
X62825Y-27640D02*
X62722Y-27640D01*
X62774Y-27640D02*
X62774Y-27440D01*
X62756Y-27468D01*
X62739Y-27487D01*
X62722Y-27497D01*
X55002Y-29214D02*
X54942Y-29119D01*
X54899Y-29214D02*
X54899Y-29014D01*
X54968Y-29014D01*
X54985Y-29024D01*
X54993Y-29033D01*
X55002Y-29052D01*
X55002Y-29081D01*
X54993Y-29100D01*
X54985Y-29110D01*
X54968Y-29119D01*
X54899Y-29119D01*
X55070Y-29033D02*
X55079Y-29024D01*
X55096Y-29014D01*
X55139Y-29014D01*
X55156Y-29024D01*
X55165Y-29033D01*
X55173Y-29052D01*
X55173Y-29071D01*
X55165Y-29100D01*
X55062Y-29214D01*
X55173Y-29214D01*
X55259Y-29214D02*
X55293Y-29214D01*
X55310Y-29205D01*
X55319Y-29195D01*
X55336Y-29167D01*
X55345Y-29129D01*
X55345Y-29052D01*
X55336Y-29033D01*
X55328Y-29024D01*
X55310Y-29014D01*
X55276Y-29014D01*
X55259Y-29024D01*
X55250Y-29033D01*
X55242Y-29052D01*
X55242Y-29100D01*
X55250Y-29119D01*
X55259Y-29129D01*
X55276Y-29138D01*
X55310Y-29138D01*
X55328Y-29129D01*
X55336Y-29119D01*
X55345Y-29100D01*
X47522Y-26065D02*
X47462Y-25969D01*
X47419Y-26065D02*
X47419Y-25865D01*
X47487Y-25865D01*
X47504Y-25874D01*
X47513Y-25884D01*
X47522Y-25903D01*
X47522Y-25931D01*
X47513Y-25950D01*
X47504Y-25960D01*
X47487Y-25969D01*
X47419Y-25969D01*
X47582Y-25865D02*
X47693Y-25865D01*
X47633Y-25941D01*
X47659Y-25941D01*
X47676Y-25950D01*
X47684Y-25960D01*
X47693Y-25979D01*
X47693Y-26027D01*
X47684Y-26046D01*
X47676Y-26055D01*
X47659Y-26065D01*
X47607Y-26065D01*
X47590Y-26055D01*
X47582Y-26046D01*
X47779Y-26065D02*
X47813Y-26065D01*
X47830Y-26055D01*
X47839Y-26046D01*
X47856Y-26017D01*
X47864Y-25979D01*
X47864Y-25903D01*
X47856Y-25884D01*
X47847Y-25874D01*
X47830Y-25865D01*
X47796Y-25865D01*
X47779Y-25874D01*
X47770Y-25884D01*
X47762Y-25903D01*
X47762Y-25950D01*
X47770Y-25969D01*
X47779Y-25979D01*
X47796Y-25989D01*
X47830Y-25989D01*
X47847Y-25979D01*
X47856Y-25969D01*
X47864Y-25950D01*
X58939Y-25277D02*
X58879Y-25182D01*
X58836Y-25277D02*
X58836Y-25077D01*
X58905Y-25077D01*
X58922Y-25087D01*
X58930Y-25096D01*
X58939Y-25115D01*
X58939Y-25144D01*
X58930Y-25163D01*
X58922Y-25173D01*
X58905Y-25182D01*
X58836Y-25182D01*
X59093Y-25144D02*
X59093Y-25277D01*
X59050Y-25068D02*
X59007Y-25211D01*
X59119Y-25211D01*
X59265Y-25144D02*
X59265Y-25277D01*
X59222Y-25068D02*
X59179Y-25211D01*
X59290Y-25211D01*
X49490Y-24490D02*
X49430Y-24395D01*
X49387Y-24490D02*
X49387Y-24290D01*
X49456Y-24290D01*
X49473Y-24299D01*
X49482Y-24309D01*
X49490Y-24328D01*
X49490Y-24357D01*
X49482Y-24376D01*
X49473Y-24385D01*
X49456Y-24395D01*
X49387Y-24395D01*
X49662Y-24490D02*
X49559Y-24490D01*
X49610Y-24490D02*
X49610Y-24290D01*
X49593Y-24318D01*
X49576Y-24338D01*
X49559Y-24347D01*
X49773Y-24290D02*
X49790Y-24290D01*
X49807Y-24299D01*
X49816Y-24309D01*
X49824Y-24328D01*
X49833Y-24366D01*
X49833Y-24414D01*
X49824Y-24452D01*
X49816Y-24471D01*
X49807Y-24480D01*
X49790Y-24490D01*
X49773Y-24490D01*
X49756Y-24480D01*
X49747Y-24471D01*
X49739Y-24452D01*
X49730Y-24414D01*
X49730Y-24366D01*
X49739Y-24328D01*
X49747Y-24309D01*
X49756Y-24299D01*
X49773Y-24290D01*
X43585Y-28427D02*
X43525Y-28332D01*
X43482Y-28427D02*
X43482Y-28227D01*
X43550Y-28227D01*
X43567Y-28236D01*
X43576Y-28246D01*
X43585Y-28265D01*
X43585Y-28294D01*
X43576Y-28313D01*
X43567Y-28322D01*
X43550Y-28332D01*
X43482Y-28332D01*
X43756Y-28427D02*
X43653Y-28427D01*
X43705Y-28427D02*
X43705Y-28227D01*
X43687Y-28255D01*
X43670Y-28275D01*
X43653Y-28284D01*
X43842Y-28427D02*
X43876Y-28427D01*
X43893Y-28417D01*
X43902Y-28408D01*
X43919Y-28379D01*
X43927Y-28341D01*
X43927Y-28265D01*
X43919Y-28246D01*
X43910Y-28236D01*
X43893Y-28227D01*
X43859Y-28227D01*
X43842Y-28236D01*
X43833Y-28246D01*
X43825Y-28265D01*
X43825Y-28313D01*
X43833Y-28332D01*
X43842Y-28341D01*
X43859Y-28351D01*
X43893Y-28351D01*
X43910Y-28341D01*
X43919Y-28332D01*
X43927Y-28313D01*
X43585Y-24490D02*
X43525Y-24395D01*
X43482Y-24490D02*
X43482Y-24290D01*
X43550Y-24290D01*
X43567Y-24299D01*
X43576Y-24309D01*
X43585Y-24328D01*
X43585Y-24357D01*
X43576Y-24376D01*
X43567Y-24385D01*
X43550Y-24395D01*
X43482Y-24395D01*
X43756Y-24490D02*
X43653Y-24490D01*
X43705Y-24490D02*
X43705Y-24290D01*
X43687Y-24318D01*
X43670Y-24338D01*
X43653Y-24347D01*
X43927Y-24490D02*
X43825Y-24490D01*
X43876Y-24490D02*
X43876Y-24290D01*
X43859Y-24318D01*
X43842Y-24338D01*
X43825Y-24347D01*
X49576Y-30002D02*
X49516Y-29906D01*
X49473Y-30002D02*
X49473Y-29802D01*
X49542Y-29802D01*
X49559Y-29811D01*
X49567Y-29821D01*
X49576Y-29840D01*
X49576Y-29868D01*
X49567Y-29887D01*
X49559Y-29897D01*
X49542Y-29906D01*
X49473Y-29906D01*
X49662Y-30002D02*
X49696Y-30002D01*
X49713Y-29992D01*
X49722Y-29983D01*
X49739Y-29954D01*
X49747Y-29916D01*
X49747Y-29840D01*
X49739Y-29821D01*
X49730Y-29811D01*
X49713Y-29802D01*
X49679Y-29802D01*
X49662Y-29811D01*
X49653Y-29821D01*
X49644Y-29840D01*
X49644Y-29887D01*
X49653Y-29906D01*
X49662Y-29916D01*
X49679Y-29926D01*
X49713Y-29926D01*
X49730Y-29916D01*
X49739Y-29906D01*
X49747Y-29887D01*
X49490Y-28427D02*
X49430Y-28332D01*
X49387Y-28427D02*
X49387Y-28227D01*
X49456Y-28227D01*
X49473Y-28236D01*
X49482Y-28246D01*
X49490Y-28265D01*
X49490Y-28294D01*
X49482Y-28313D01*
X49473Y-28322D01*
X49456Y-28332D01*
X49387Y-28332D01*
X49559Y-28246D02*
X49567Y-28236D01*
X49584Y-28227D01*
X49627Y-28227D01*
X49644Y-28236D01*
X49653Y-28246D01*
X49662Y-28265D01*
X49662Y-28284D01*
X49653Y-28313D01*
X49550Y-28427D01*
X49662Y-28427D01*
X49773Y-28227D02*
X49790Y-28227D01*
X49807Y-28236D01*
X49816Y-28246D01*
X49824Y-28265D01*
X49833Y-28303D01*
X49833Y-28351D01*
X49824Y-28389D01*
X49816Y-28408D01*
X49807Y-28417D01*
X49790Y-28427D01*
X49773Y-28427D01*
X49756Y-28417D01*
X49747Y-28408D01*
X49739Y-28389D01*
X49730Y-28351D01*
X49730Y-28303D01*
X49739Y-28265D01*
X49747Y-28246D01*
X49756Y-28236D01*
X49773Y-28227D01*
X40127Y-29214D02*
X40067Y-29119D01*
X40024Y-29214D02*
X40024Y-29014D01*
X40093Y-29014D01*
X40110Y-29024D01*
X40118Y-29033D01*
X40127Y-29052D01*
X40127Y-29081D01*
X40118Y-29100D01*
X40110Y-29110D01*
X40093Y-29119D01*
X40024Y-29119D01*
X40230Y-29100D02*
X40213Y-29091D01*
X40204Y-29081D01*
X40196Y-29062D01*
X40196Y-29052D01*
X40204Y-29033D01*
X40213Y-29024D01*
X40230Y-29014D01*
X40264Y-29014D01*
X40281Y-29024D01*
X40290Y-29033D01*
X40298Y-29052D01*
X40298Y-29062D01*
X40290Y-29081D01*
X40281Y-29091D01*
X40264Y-29100D01*
X40230Y-29100D01*
X40213Y-29110D01*
X40204Y-29119D01*
X40196Y-29138D01*
X40196Y-29176D01*
X40204Y-29195D01*
X40213Y-29205D01*
X40230Y-29214D01*
X40264Y-29214D01*
X40281Y-29205D01*
X40290Y-29195D01*
X40298Y-29176D01*
X40298Y-29138D01*
X40290Y-29119D01*
X40281Y-29110D01*
X40264Y-29100D01*
X47522Y-26852D02*
X47462Y-26757D01*
X47419Y-26852D02*
X47419Y-26652D01*
X47487Y-26652D01*
X47504Y-26662D01*
X47513Y-26671D01*
X47522Y-26690D01*
X47522Y-26719D01*
X47513Y-26738D01*
X47504Y-26747D01*
X47487Y-26757D01*
X47419Y-26757D01*
X47590Y-26671D02*
X47599Y-26662D01*
X47616Y-26652D01*
X47659Y-26652D01*
X47676Y-26662D01*
X47684Y-26671D01*
X47693Y-26690D01*
X47693Y-26709D01*
X47684Y-26738D01*
X47582Y-26852D01*
X47693Y-26852D01*
X47847Y-26719D02*
X47847Y-26852D01*
X47804Y-26643D02*
X47762Y-26785D01*
X47873Y-26785D01*
X53119Y-24490D02*
X53059Y-24395D01*
X53016Y-24490D02*
X53016Y-24290D01*
X53085Y-24290D01*
X53102Y-24299D01*
X53111Y-24309D01*
X53119Y-24328D01*
X53119Y-24357D01*
X53111Y-24376D01*
X53102Y-24385D01*
X53085Y-24395D01*
X53016Y-24395D01*
X53179Y-24290D02*
X53299Y-24290D01*
X53222Y-24490D01*
X49293Y-15187D02*
X49198Y-15247D01*
X49293Y-15290D02*
X49093Y-15290D01*
X49093Y-15221D01*
X49103Y-15204D01*
X49112Y-15196D01*
X49131Y-15187D01*
X49160Y-15187D01*
X49179Y-15196D01*
X49188Y-15204D01*
X49198Y-15221D01*
X49198Y-15290D01*
X49293Y-15016D02*
X49293Y-15118D01*
X49293Y-15067D02*
X49093Y-15067D01*
X49122Y-15084D01*
X49141Y-15101D01*
X49150Y-15118D01*
X49490Y-26065D02*
X49430Y-25969D01*
X49387Y-26065D02*
X49387Y-25865D01*
X49456Y-25865D01*
X49473Y-25874D01*
X49482Y-25884D01*
X49490Y-25903D01*
X49490Y-25931D01*
X49482Y-25950D01*
X49473Y-25960D01*
X49456Y-25969D01*
X49387Y-25969D01*
X49559Y-25884D02*
X49567Y-25874D01*
X49584Y-25865D01*
X49627Y-25865D01*
X49644Y-25874D01*
X49653Y-25884D01*
X49662Y-25903D01*
X49662Y-25922D01*
X49653Y-25950D01*
X49550Y-26065D01*
X49662Y-26065D01*
X49722Y-25865D02*
X49833Y-25865D01*
X49773Y-25941D01*
X49799Y-25941D01*
X49816Y-25950D01*
X49824Y-25960D01*
X49833Y-25979D01*
X49833Y-26027D01*
X49824Y-26046D01*
X49816Y-26055D01*
X49799Y-26065D01*
X49747Y-26065D01*
X49730Y-26055D01*
X49722Y-26046D01*
X62482Y-29214D02*
X62422Y-29119D01*
X62379Y-29214D02*
X62379Y-29014D01*
X62448Y-29014D01*
X62465Y-29024D01*
X62474Y-29033D01*
X62482Y-29052D01*
X62482Y-29081D01*
X62474Y-29100D01*
X62465Y-29110D01*
X62448Y-29119D01*
X62379Y-29119D01*
X62542Y-29014D02*
X62654Y-29014D01*
X62594Y-29091D01*
X62619Y-29091D01*
X62636Y-29100D01*
X62645Y-29110D01*
X62654Y-29129D01*
X62654Y-29176D01*
X62645Y-29195D01*
X62636Y-29205D01*
X62619Y-29214D01*
X62568Y-29214D01*
X62551Y-29205D01*
X62542Y-29195D01*
X62722Y-29033D02*
X62731Y-29024D01*
X62748Y-29014D01*
X62791Y-29014D01*
X62808Y-29024D01*
X62816Y-29033D01*
X62825Y-29052D01*
X62825Y-29071D01*
X62816Y-29100D01*
X62714Y-29214D01*
X62825Y-29214D01*
X58939Y-26852D02*
X58879Y-26757D01*
X58836Y-26852D02*
X58836Y-26652D01*
X58905Y-26652D01*
X58922Y-26662D01*
X58930Y-26671D01*
X58939Y-26690D01*
X58939Y-26719D01*
X58930Y-26738D01*
X58922Y-26747D01*
X58905Y-26757D01*
X58836Y-26757D01*
X58999Y-26652D02*
X59110Y-26652D01*
X59050Y-26728D01*
X59076Y-26728D01*
X59093Y-26738D01*
X59102Y-26747D01*
X59110Y-26766D01*
X59110Y-26814D01*
X59102Y-26833D01*
X59093Y-26843D01*
X59076Y-26852D01*
X59025Y-26852D01*
X59007Y-26843D01*
X58999Y-26833D01*
X59170Y-26652D02*
X59282Y-26652D01*
X59222Y-26728D01*
X59247Y-26728D01*
X59265Y-26738D01*
X59273Y-26747D01*
X59282Y-26766D01*
X59282Y-26814D01*
X59273Y-26833D01*
X59265Y-26843D01*
X59247Y-26852D01*
X59196Y-26852D01*
X59179Y-26843D01*
X59170Y-26833D01*
X58939Y-28427D02*
X58879Y-28332D01*
X58836Y-28427D02*
X58836Y-28227D01*
X58905Y-28227D01*
X58922Y-28236D01*
X58930Y-28246D01*
X58939Y-28265D01*
X58939Y-28294D01*
X58930Y-28313D01*
X58922Y-28322D01*
X58905Y-28332D01*
X58836Y-28332D01*
X58999Y-28227D02*
X59110Y-28227D01*
X59050Y-28303D01*
X59076Y-28303D01*
X59093Y-28313D01*
X59102Y-28322D01*
X59110Y-28341D01*
X59110Y-28389D01*
X59102Y-28408D01*
X59093Y-28417D01*
X59076Y-28427D01*
X59025Y-28427D01*
X59007Y-28417D01*
X58999Y-28408D01*
X59265Y-28294D02*
X59265Y-28427D01*
X59222Y-28217D02*
X59179Y-28360D01*
X59290Y-28360D01*
X55002Y-28427D02*
X54942Y-28332D01*
X54899Y-28427D02*
X54899Y-28227D01*
X54968Y-28227D01*
X54985Y-28236D01*
X54993Y-28246D01*
X55002Y-28265D01*
X55002Y-28294D01*
X54993Y-28313D01*
X54985Y-28322D01*
X54968Y-28332D01*
X54899Y-28332D01*
X55156Y-28294D02*
X55156Y-28427D01*
X55113Y-28217D02*
X55070Y-28360D01*
X55182Y-28360D01*
X55285Y-28227D02*
X55302Y-28227D01*
X55319Y-28236D01*
X55328Y-28246D01*
X55336Y-28265D01*
X55345Y-28303D01*
X55345Y-28351D01*
X55336Y-28389D01*
X55328Y-28408D01*
X55319Y-28417D01*
X55302Y-28427D01*
X55285Y-28427D01*
X55268Y-28417D01*
X55259Y-28408D01*
X55250Y-28389D01*
X55242Y-28351D01*
X55242Y-28303D01*
X55250Y-28265D01*
X55259Y-28246D01*
X55268Y-28236D01*
X55285Y-28227D01*
X49490Y-29195D02*
X49482Y-29205D01*
X49456Y-29214D01*
X49439Y-29214D01*
X49413Y-29205D01*
X49396Y-29186D01*
X49387Y-29167D01*
X49379Y-29129D01*
X49379Y-29100D01*
X49387Y-29062D01*
X49396Y-29043D01*
X49413Y-29024D01*
X49439Y-29014D01*
X49456Y-29014D01*
X49482Y-29024D01*
X49490Y-29033D01*
X49559Y-29033D02*
X49567Y-29024D01*
X49584Y-29014D01*
X49627Y-29014D01*
X49644Y-29024D01*
X49653Y-29033D01*
X49662Y-29052D01*
X49662Y-29071D01*
X49653Y-29100D01*
X49550Y-29214D01*
X49662Y-29214D01*
X49730Y-29033D02*
X49739Y-29024D01*
X49756Y-29014D01*
X49799Y-29014D01*
X49816Y-29024D01*
X49824Y-29033D01*
X49833Y-29052D01*
X49833Y-29071D01*
X49824Y-29100D01*
X49722Y-29214D01*
X49833Y-29214D01*
X45731Y-20896D02*
X45740Y-20904D01*
X45750Y-20930D01*
X45750Y-20947D01*
X45740Y-20973D01*
X45721Y-20990D01*
X45702Y-20998D01*
X45664Y-21007D01*
X45635Y-21007D01*
X45597Y-20998D01*
X45578Y-20990D01*
X45559Y-20973D01*
X45550Y-20947D01*
X45550Y-20930D01*
X45559Y-20904D01*
X45569Y-20896D01*
X45550Y-20836D02*
X45550Y-20716D01*
X45750Y-20793D01*
X45553Y-23841D02*
X45545Y-23850D01*
X45519Y-23860D01*
X45502Y-23860D01*
X45476Y-23850D01*
X45459Y-23831D01*
X45450Y-23812D01*
X45442Y-23774D01*
X45442Y-23746D01*
X45450Y-23708D01*
X45459Y-23689D01*
X45476Y-23670D01*
X45502Y-23660D01*
X45519Y-23660D01*
X45545Y-23670D01*
X45553Y-23679D01*
X45725Y-23860D02*
X45622Y-23860D01*
X45673Y-23860D02*
X45673Y-23660D01*
X45656Y-23689D01*
X45639Y-23708D01*
X45622Y-23717D01*
X45793Y-23679D02*
X45802Y-23670D01*
X45819Y-23660D01*
X45862Y-23660D01*
X45879Y-23670D01*
X45887Y-23679D01*
X45896Y-23698D01*
X45896Y-23717D01*
X45887Y-23746D01*
X45785Y-23860D01*
X45896Y-23860D01*
X40041Y-28408D02*
X40033Y-28417D01*
X40007Y-28427D01*
X39990Y-28427D01*
X39964Y-28417D01*
X39947Y-28398D01*
X39938Y-28379D01*
X39930Y-28341D01*
X39930Y-28313D01*
X39938Y-28275D01*
X39947Y-28255D01*
X39964Y-28236D01*
X39990Y-28227D01*
X40007Y-28227D01*
X40033Y-28236D01*
X40041Y-28246D01*
X40110Y-28246D02*
X40118Y-28236D01*
X40136Y-28227D01*
X40178Y-28227D01*
X40196Y-28236D01*
X40204Y-28246D01*
X40213Y-28265D01*
X40213Y-28284D01*
X40204Y-28313D01*
X40101Y-28427D01*
X40213Y-28427D01*
X40324Y-28227D02*
X40341Y-28227D01*
X40358Y-28236D01*
X40367Y-28246D01*
X40376Y-28265D01*
X40384Y-28303D01*
X40384Y-28351D01*
X40376Y-28389D01*
X40367Y-28408D01*
X40358Y-28417D01*
X40341Y-28427D01*
X40324Y-28427D01*
X40307Y-28417D01*
X40298Y-28408D01*
X40290Y-28389D01*
X40281Y-28351D01*
X40281Y-28303D01*
X40290Y-28265D01*
X40298Y-28246D01*
X40307Y-28236D01*
X40324Y-28227D01*
X50061Y-15187D02*
X50071Y-15196D01*
X50080Y-15221D01*
X50080Y-15238D01*
X50071Y-15264D01*
X50052Y-15281D01*
X50033Y-15290D01*
X49995Y-15298D01*
X49966Y-15298D01*
X49928Y-15290D01*
X49909Y-15281D01*
X49890Y-15264D01*
X49880Y-15238D01*
X49880Y-15221D01*
X49890Y-15196D01*
X49900Y-15187D01*
X49880Y-15033D02*
X49880Y-15067D01*
X49890Y-15084D01*
X49900Y-15093D01*
X49928Y-15110D01*
X49966Y-15118D01*
X50042Y-15118D01*
X50061Y-15110D01*
X50071Y-15101D01*
X50080Y-15084D01*
X50080Y-15050D01*
X50071Y-15033D01*
X50061Y-15024D01*
X50042Y-15016D01*
X49995Y-15016D01*
X49976Y-15024D01*
X49966Y-15033D01*
X49957Y-15050D01*
X49957Y-15084D01*
X49966Y-15101D01*
X49976Y-15110D01*
X49995Y-15118D01*
X55573Y-17832D02*
X55583Y-17840D01*
X55592Y-17866D01*
X55592Y-17883D01*
X55583Y-17909D01*
X55564Y-17926D01*
X55545Y-17935D01*
X55507Y-17943D01*
X55478Y-17943D01*
X55440Y-17935D01*
X55421Y-17926D01*
X55402Y-17909D01*
X55392Y-17883D01*
X55392Y-17866D01*
X55402Y-17840D01*
X55411Y-17832D01*
X55592Y-17660D02*
X55592Y-17763D01*
X55592Y-17712D02*
X55392Y-17712D01*
X55421Y-17729D01*
X55440Y-17746D01*
X55449Y-17763D01*
X55392Y-17549D02*
X55392Y-17532D01*
X55402Y-17515D01*
X55411Y-17506D01*
X55430Y-17497D01*
X55468Y-17489D01*
X55516Y-17489D01*
X55554Y-17497D01*
X55573Y-17506D01*
X55583Y-17515D01*
X55592Y-17532D01*
X55592Y-17549D01*
X55583Y-17566D01*
X55573Y-17575D01*
X55554Y-17583D01*
X55516Y-17592D01*
X55468Y-17592D01*
X55430Y-17583D01*
X55411Y-17575D01*
X55402Y-17566D01*
X55392Y-17549D01*
X54786Y-21289D02*
X54795Y-21298D01*
X54805Y-21324D01*
X54805Y-21341D01*
X54795Y-21366D01*
X54776Y-21384D01*
X54757Y-21392D01*
X54719Y-21401D01*
X54691Y-21401D01*
X54652Y-21392D01*
X54633Y-21384D01*
X54614Y-21366D01*
X54605Y-21341D01*
X54605Y-21324D01*
X54614Y-21298D01*
X54624Y-21289D01*
X54605Y-21229D02*
X54605Y-21118D01*
X54681Y-21178D01*
X54681Y-21152D01*
X54691Y-21135D01*
X54700Y-21126D01*
X54719Y-21118D01*
X54767Y-21118D01*
X54786Y-21126D01*
X54795Y-21135D01*
X54805Y-21152D01*
X54805Y-21204D01*
X54795Y-21221D01*
X54786Y-21229D01*
X55573Y-19321D02*
X55583Y-19329D01*
X55592Y-19355D01*
X55592Y-19372D01*
X55583Y-19398D01*
X55564Y-19415D01*
X55545Y-19424D01*
X55507Y-19432D01*
X55478Y-19432D01*
X55440Y-19424D01*
X55421Y-19415D01*
X55402Y-19398D01*
X55392Y-19372D01*
X55392Y-19355D01*
X55402Y-19329D01*
X55411Y-19321D01*
X55592Y-19235D02*
X55592Y-19201D01*
X55583Y-19184D01*
X55573Y-19175D01*
X55545Y-19158D01*
X55507Y-19149D01*
X55430Y-19149D01*
X55411Y-19158D01*
X55402Y-19167D01*
X55392Y-19184D01*
X55392Y-19218D01*
X55402Y-19235D01*
X55411Y-19244D01*
X55430Y-19252D01*
X55478Y-19252D01*
X55497Y-19244D01*
X55507Y-19235D01*
X55516Y-19218D01*
X55516Y-19184D01*
X55507Y-19167D01*
X55497Y-19158D01*
X55478Y-19149D01*
X53033Y-25258D02*
X53025Y-25268D01*
X52999Y-25277D01*
X52982Y-25277D01*
X52956Y-25268D01*
X52939Y-25249D01*
X52931Y-25230D01*
X52922Y-25192D01*
X52922Y-25163D01*
X52931Y-25125D01*
X52939Y-25106D01*
X52956Y-25087D01*
X52982Y-25077D01*
X52999Y-25077D01*
X53025Y-25087D01*
X53033Y-25096D01*
X53205Y-25277D02*
X53102Y-25277D01*
X53153Y-25277D02*
X53153Y-25077D01*
X53136Y-25106D01*
X53119Y-25125D01*
X53102Y-25134D01*
X53359Y-25077D02*
X53325Y-25077D01*
X53308Y-25087D01*
X53299Y-25096D01*
X53282Y-25125D01*
X53273Y-25163D01*
X53273Y-25239D01*
X53282Y-25258D01*
X53291Y-25268D01*
X53308Y-25277D01*
X53342Y-25277D01*
X53359Y-25268D01*
X53368Y-25258D01*
X53376Y-25239D01*
X53376Y-25192D01*
X53368Y-25173D01*
X53359Y-25163D01*
X53342Y-25153D01*
X53308Y-25153D01*
X53291Y-25163D01*
X53282Y-25173D01*
X53273Y-25192D01*
X40041Y-26046D02*
X40033Y-26055D01*
X40007Y-26065D01*
X39990Y-26065D01*
X39964Y-26055D01*
X39947Y-26036D01*
X39938Y-26017D01*
X39930Y-25979D01*
X39930Y-25950D01*
X39938Y-25912D01*
X39947Y-25893D01*
X39964Y-25874D01*
X39990Y-25865D01*
X40007Y-25865D01*
X40033Y-25874D01*
X40041Y-25884D01*
X40213Y-26065D02*
X40110Y-26065D01*
X40161Y-26065D02*
X40161Y-25865D01*
X40144Y-25893D01*
X40127Y-25912D01*
X40110Y-25922D01*
X40273Y-25865D02*
X40393Y-25865D01*
X40316Y-26065D01*
X51636Y-15187D02*
X51646Y-15196D01*
X51655Y-15221D01*
X51655Y-15238D01*
X51646Y-15264D01*
X51627Y-15281D01*
X51608Y-15290D01*
X51570Y-15298D01*
X51541Y-15298D01*
X51503Y-15290D01*
X51484Y-15281D01*
X51465Y-15264D01*
X51455Y-15238D01*
X51455Y-15221D01*
X51465Y-15196D01*
X51474Y-15187D01*
X51541Y-15084D02*
X51531Y-15101D01*
X51522Y-15110D01*
X51503Y-15118D01*
X51493Y-15118D01*
X51474Y-15110D01*
X51465Y-15101D01*
X51455Y-15084D01*
X51455Y-15050D01*
X51465Y-15033D01*
X51474Y-15024D01*
X51493Y-15016D01*
X51503Y-15016D01*
X51522Y-15024D01*
X51531Y-15033D01*
X51541Y-15050D01*
X51541Y-15084D01*
X51550Y-15101D01*
X51560Y-15110D01*
X51579Y-15118D01*
X51617Y-15118D01*
X51636Y-15110D01*
X51646Y-15101D01*
X51655Y-15084D01*
X51655Y-15050D01*
X51646Y-15033D01*
X51636Y-15024D01*
X51617Y-15016D01*
X51579Y-15016D01*
X51560Y-15024D01*
X51550Y-15033D01*
X51541Y-15050D01*
X49490Y-27620D02*
X49482Y-27630D01*
X49456Y-27640D01*
X49439Y-27640D01*
X49413Y-27630D01*
X49396Y-27611D01*
X49387Y-27592D01*
X49379Y-27554D01*
X49379Y-27525D01*
X49387Y-27487D01*
X49396Y-27468D01*
X49413Y-27449D01*
X49439Y-27440D01*
X49456Y-27440D01*
X49482Y-27449D01*
X49490Y-27459D01*
X49559Y-27459D02*
X49567Y-27449D01*
X49584Y-27440D01*
X49627Y-27440D01*
X49644Y-27449D01*
X49653Y-27459D01*
X49662Y-27478D01*
X49662Y-27497D01*
X49653Y-27525D01*
X49550Y-27640D01*
X49662Y-27640D01*
X49833Y-27640D02*
X49730Y-27640D01*
X49782Y-27640D02*
X49782Y-27440D01*
X49764Y-27468D01*
X49747Y-27487D01*
X49730Y-27497D01*
X53033Y-29195D02*
X53025Y-29205D01*
X52999Y-29214D01*
X52982Y-29214D01*
X52956Y-29205D01*
X52939Y-29186D01*
X52931Y-29167D01*
X52922Y-29129D01*
X52922Y-29100D01*
X52931Y-29062D01*
X52939Y-29043D01*
X52956Y-29024D01*
X52982Y-29014D01*
X52999Y-29014D01*
X53025Y-29024D01*
X53033Y-29033D01*
X53102Y-29033D02*
X53111Y-29024D01*
X53128Y-29014D01*
X53171Y-29014D01*
X53188Y-29024D01*
X53196Y-29033D01*
X53205Y-29052D01*
X53205Y-29071D01*
X53196Y-29100D01*
X53093Y-29214D01*
X53205Y-29214D01*
X53359Y-29014D02*
X53325Y-29014D01*
X53308Y-29024D01*
X53299Y-29033D01*
X53282Y-29062D01*
X53273Y-29100D01*
X53273Y-29176D01*
X53282Y-29195D01*
X53291Y-29205D01*
X53308Y-29214D01*
X53342Y-29214D01*
X53359Y-29205D01*
X53368Y-29195D01*
X53376Y-29176D01*
X53376Y-29129D01*
X53368Y-29110D01*
X53359Y-29100D01*
X53342Y-29091D01*
X53308Y-29091D01*
X53291Y-29100D01*
X53282Y-29110D01*
X53273Y-29129D01*
X49490Y-25258D02*
X49482Y-25268D01*
X49456Y-25277D01*
X49439Y-25277D01*
X49413Y-25268D01*
X49396Y-25249D01*
X49387Y-25230D01*
X49379Y-25192D01*
X49379Y-25163D01*
X49387Y-25125D01*
X49396Y-25106D01*
X49413Y-25087D01*
X49439Y-25077D01*
X49456Y-25077D01*
X49482Y-25087D01*
X49490Y-25096D01*
X49559Y-25096D02*
X49567Y-25087D01*
X49584Y-25077D01*
X49627Y-25077D01*
X49644Y-25087D01*
X49653Y-25096D01*
X49662Y-25115D01*
X49662Y-25134D01*
X49653Y-25163D01*
X49550Y-25277D01*
X49662Y-25277D01*
X49816Y-25144D02*
X49816Y-25277D01*
X49773Y-25068D02*
X49730Y-25211D01*
X49842Y-25211D01*
X40041Y-26833D02*
X40033Y-26843D01*
X40007Y-26852D01*
X39990Y-26852D01*
X39964Y-26843D01*
X39947Y-26824D01*
X39938Y-26804D01*
X39930Y-26766D01*
X39930Y-26738D01*
X39938Y-26700D01*
X39947Y-26681D01*
X39964Y-26662D01*
X39990Y-26652D01*
X40007Y-26652D01*
X40033Y-26662D01*
X40041Y-26671D01*
X40213Y-26852D02*
X40110Y-26852D01*
X40161Y-26852D02*
X40161Y-26652D01*
X40144Y-26681D01*
X40127Y-26700D01*
X40110Y-26709D01*
X40298Y-26852D02*
X40333Y-26852D01*
X40350Y-26843D01*
X40358Y-26833D01*
X40376Y-26804D01*
X40384Y-26766D01*
X40384Y-26690D01*
X40376Y-26671D01*
X40367Y-26662D01*
X40350Y-26652D01*
X40316Y-26652D01*
X40298Y-26662D01*
X40290Y-26671D01*
X40281Y-26690D01*
X40281Y-26738D01*
X40290Y-26757D01*
X40298Y-26766D01*
X40316Y-26776D01*
X40350Y-26776D01*
X40367Y-26766D01*
X40376Y-26757D01*
X40384Y-26738D01*
X45731Y-17352D02*
X45740Y-17361D01*
X45750Y-17387D01*
X45750Y-17404D01*
X45740Y-17429D01*
X45721Y-17447D01*
X45702Y-17455D01*
X45664Y-17464D01*
X45635Y-17464D01*
X45597Y-17455D01*
X45578Y-17447D01*
X45559Y-17429D01*
X45550Y-17404D01*
X45550Y-17387D01*
X45559Y-17361D01*
X45569Y-17352D01*
X45550Y-17189D02*
X45550Y-17275D01*
X45645Y-17284D01*
X45635Y-17275D01*
X45626Y-17258D01*
X45626Y-17215D01*
X45635Y-17198D01*
X45645Y-17189D01*
X45664Y-17181D01*
X45712Y-17181D01*
X45731Y-17189D01*
X45740Y-17198D01*
X45750Y-17215D01*
X45750Y-17258D01*
X45740Y-17275D01*
X45731Y-17284D01*
X40041Y-24471D02*
X40033Y-24480D01*
X40007Y-24490D01*
X39990Y-24490D01*
X39964Y-24480D01*
X39947Y-24461D01*
X39938Y-24442D01*
X39930Y-24404D01*
X39930Y-24376D01*
X39938Y-24338D01*
X39947Y-24318D01*
X39964Y-24299D01*
X39990Y-24290D01*
X40007Y-24290D01*
X40033Y-24299D01*
X40041Y-24309D01*
X40213Y-24490D02*
X40110Y-24490D01*
X40161Y-24490D02*
X40161Y-24290D01*
X40144Y-24318D01*
X40127Y-24338D01*
X40110Y-24347D01*
X40367Y-24357D02*
X40367Y-24490D01*
X40324Y-24280D02*
X40281Y-24423D01*
X40393Y-24423D01*
X56970Y-24077D02*
X56962Y-24087D01*
X56936Y-24096D01*
X56919Y-24096D01*
X56893Y-24087D01*
X56876Y-24068D01*
X56868Y-24049D01*
X56859Y-24010D01*
X56859Y-23982D01*
X56868Y-23944D01*
X56876Y-23925D01*
X56893Y-23906D01*
X56919Y-23896D01*
X56936Y-23896D01*
X56962Y-23906D01*
X56970Y-23915D01*
X57142Y-24096D02*
X57039Y-24096D01*
X57090Y-24096D02*
X57090Y-23896D01*
X57073Y-23925D01*
X57056Y-23944D01*
X57039Y-23953D01*
X57202Y-23896D02*
X57313Y-23896D01*
X57253Y-23972D01*
X57279Y-23972D01*
X57296Y-23982D01*
X57305Y-23991D01*
X57313Y-24010D01*
X57313Y-24058D01*
X57305Y-24077D01*
X57296Y-24087D01*
X57279Y-24096D01*
X57228Y-24096D01*
X57210Y-24087D01*
X57202Y-24077D01*
X53033Y-26833D02*
X53025Y-26843D01*
X52999Y-26852D01*
X52982Y-26852D01*
X52956Y-26843D01*
X52939Y-26824D01*
X52931Y-26804D01*
X52922Y-26766D01*
X52922Y-26738D01*
X52931Y-26700D01*
X52939Y-26681D01*
X52956Y-26662D01*
X52982Y-26652D01*
X52999Y-26652D01*
X53025Y-26662D01*
X53033Y-26671D01*
X53205Y-26852D02*
X53102Y-26852D01*
X53153Y-26852D02*
X53153Y-26652D01*
X53136Y-26681D01*
X53119Y-26700D01*
X53102Y-26709D01*
X53308Y-26738D02*
X53291Y-26728D01*
X53282Y-26719D01*
X53273Y-26700D01*
X53273Y-26690D01*
X53282Y-26671D01*
X53291Y-26662D01*
X53308Y-26652D01*
X53342Y-26652D01*
X53359Y-26662D01*
X53368Y-26671D01*
X53376Y-26690D01*
X53376Y-26700D01*
X53368Y-26719D01*
X53359Y-26728D01*
X53342Y-26738D01*
X53308Y-26738D01*
X53291Y-26747D01*
X53282Y-26757D01*
X53273Y-26776D01*
X53273Y-26814D01*
X53282Y-26833D01*
X53291Y-26843D01*
X53308Y-26852D01*
X53342Y-26852D01*
X53359Y-26843D01*
X53368Y-26833D01*
X53376Y-26814D01*
X53376Y-26776D01*
X53368Y-26757D01*
X53359Y-26747D01*
X53342Y-26738D01*
X53033Y-27620D02*
X53025Y-27630D01*
X52999Y-27640D01*
X52982Y-27640D01*
X52956Y-27630D01*
X52939Y-27611D01*
X52931Y-27592D01*
X52922Y-27554D01*
X52922Y-27525D01*
X52931Y-27487D01*
X52939Y-27468D01*
X52956Y-27449D01*
X52982Y-27440D01*
X52999Y-27440D01*
X53025Y-27449D01*
X53033Y-27459D01*
X53102Y-27459D02*
X53111Y-27449D01*
X53128Y-27440D01*
X53171Y-27440D01*
X53188Y-27449D01*
X53196Y-27459D01*
X53205Y-27478D01*
X53205Y-27497D01*
X53196Y-27525D01*
X53093Y-27640D01*
X53205Y-27640D01*
X53368Y-27440D02*
X53282Y-27440D01*
X53273Y-27535D01*
X53282Y-27525D01*
X53299Y-27516D01*
X53342Y-27516D01*
X53359Y-27525D01*
X53368Y-27535D01*
X53376Y-27554D01*
X53376Y-27601D01*
X53368Y-27620D01*
X53359Y-27630D01*
X53342Y-27640D01*
X53299Y-27640D01*
X53282Y-27630D01*
X53273Y-27620D01*
X53014Y-22359D02*
X53024Y-22368D01*
X53033Y-22394D01*
X53033Y-22411D01*
X53024Y-22436D01*
X53005Y-22454D01*
X52986Y-22462D01*
X52947Y-22471D01*
X52919Y-22471D01*
X52881Y-22462D01*
X52862Y-22454D01*
X52843Y-22436D01*
X52833Y-22411D01*
X52833Y-22394D01*
X52843Y-22368D01*
X52852Y-22359D01*
X53033Y-22188D02*
X53033Y-22291D01*
X53033Y-22239D02*
X52833Y-22239D01*
X52862Y-22256D01*
X52881Y-22274D01*
X52890Y-22291D01*
X52833Y-22025D02*
X52833Y-22111D01*
X52928Y-22119D01*
X52919Y-22111D01*
X52909Y-22094D01*
X52909Y-22051D01*
X52919Y-22034D01*
X52928Y-22025D01*
X52947Y-22016D01*
X52995Y-22016D01*
X53014Y-22025D01*
X53024Y-22034D01*
X53033Y-22051D01*
X53033Y-22094D01*
X53024Y-22111D01*
X53014Y-22119D01*
X49490Y-26833D02*
X49482Y-26843D01*
X49456Y-26852D01*
X49439Y-26852D01*
X49413Y-26843D01*
X49396Y-26824D01*
X49387Y-26804D01*
X49379Y-26766D01*
X49379Y-26738D01*
X49387Y-26700D01*
X49396Y-26681D01*
X49413Y-26662D01*
X49439Y-26652D01*
X49456Y-26652D01*
X49482Y-26662D01*
X49490Y-26671D01*
X49559Y-26671D02*
X49567Y-26662D01*
X49584Y-26652D01*
X49627Y-26652D01*
X49644Y-26662D01*
X49653Y-26671D01*
X49662Y-26690D01*
X49662Y-26709D01*
X49653Y-26738D01*
X49550Y-26852D01*
X49662Y-26852D01*
X49722Y-26652D02*
X49833Y-26652D01*
X49773Y-26728D01*
X49799Y-26728D01*
X49816Y-26738D01*
X49824Y-26747D01*
X49833Y-26766D01*
X49833Y-26814D01*
X49824Y-26833D01*
X49816Y-26843D01*
X49799Y-26852D01*
X49747Y-26852D01*
X49730Y-26843D01*
X49722Y-26833D01*
G54D14*
X56538Y-10038D02*
X56609Y-10065D01*
X56728Y-10065D01*
X56776Y-10038D01*
X56799Y-10012D01*
X56823Y-9960D01*
X56823Y-9907D01*
X56799Y-9855D01*
X56776Y-9829D01*
X56728Y-9803D01*
X56633Y-9777D01*
X56585Y-9750D01*
X56561Y-9724D01*
X56538Y-9672D01*
X56538Y-9619D01*
X56561Y-9567D01*
X56585Y-9541D01*
X56633Y-9515D01*
X56752Y-9515D01*
X56823Y-9541D01*
X56990Y-9515D02*
X57109Y-10065D01*
X57204Y-9672D01*
X57299Y-10065D01*
X57419Y-9515D01*
X57871Y-10065D02*
X57585Y-10065D01*
X57728Y-10065D02*
X57728Y-9515D01*
X57680Y-9593D01*
X57633Y-9646D01*
X57585Y-9672D01*
G54D23*
X53364Y-22472D02*
X53607Y-22472D01*
X53636Y-22458D01*
X53650Y-22444D01*
X53664Y-22415D01*
X53664Y-22358D01*
X53650Y-22329D01*
X53636Y-22315D01*
X53607Y-22301D01*
X53364Y-22301D01*
X53364Y-22015D02*
X53364Y-22158D01*
X53507Y-22172D01*
X53493Y-22158D01*
X53479Y-22129D01*
X53479Y-22058D01*
X53493Y-22029D01*
X53507Y-22015D01*
X53536Y-22001D01*
X53607Y-22001D01*
X53636Y-22015D01*
X53650Y-22029D01*
X53664Y-22058D01*
X53664Y-22129D01*
X53650Y-22158D01*
X53636Y-22172D01*
G54D24*
X53656Y-22717D02*
X53769Y-22717D01*
X53713Y-22914D02*
X53713Y-22717D01*
X53929Y-22914D02*
X53835Y-22914D01*
X53835Y-22717D01*
X53966Y-22717D02*
X54032Y-22914D01*
X54097Y-22717D01*
X54247Y-22783D02*
X54247Y-22914D01*
X54201Y-22708D02*
X54154Y-22848D01*
X54276Y-22848D01*
X54332Y-22717D02*
X54454Y-22717D01*
X54388Y-22792D01*
X54416Y-22792D01*
X54435Y-22801D01*
X54444Y-22811D01*
X54454Y-22829D01*
X54454Y-22876D01*
X54444Y-22895D01*
X54435Y-22905D01*
X54416Y-22914D01*
X54360Y-22914D01*
X54341Y-22905D01*
X54332Y-22895D01*
X54641Y-22914D02*
X54529Y-22914D01*
X54585Y-22914D02*
X54585Y-22717D01*
X54566Y-22745D01*
X54548Y-22764D01*
X54529Y-22773D01*
G54D21*
X62482Y-28408D02*
X62474Y-28417D01*
X62448Y-28427D01*
X62431Y-28427D01*
X62405Y-28417D01*
X62388Y-28398D01*
X62379Y-28379D01*
X62371Y-28341D01*
X62371Y-28313D01*
X62379Y-28275D01*
X62388Y-28255D01*
X62405Y-28236D01*
X62431Y-28227D01*
X62448Y-28227D01*
X62474Y-28236D01*
X62482Y-28246D01*
X62551Y-28246D02*
X62559Y-28236D01*
X62576Y-28227D01*
X62619Y-28227D01*
X62636Y-28236D01*
X62645Y-28246D01*
X62654Y-28265D01*
X62654Y-28284D01*
X62645Y-28313D01*
X62542Y-28427D01*
X62654Y-28427D01*
X62756Y-28313D02*
X62739Y-28303D01*
X62731Y-28294D01*
X62722Y-28275D01*
X62722Y-28265D01*
X62731Y-28246D01*
X62739Y-28236D01*
X62756Y-28227D01*
X62791Y-28227D01*
X62808Y-28236D01*
X62816Y-28246D01*
X62825Y-28265D01*
X62825Y-28275D01*
X62816Y-28294D01*
X62808Y-28303D01*
X62791Y-28313D01*
X62756Y-28313D01*
X62739Y-28322D01*
X62731Y-28332D01*
X62722Y-28351D01*
X62722Y-28389D01*
X62731Y-28408D01*
X62739Y-28417D01*
X62756Y-28427D01*
X62791Y-28427D01*
X62808Y-28417D01*
X62816Y-28408D01*
X62825Y-28389D01*
X62825Y-28351D01*
X62816Y-28332D01*
X62808Y-28322D01*
X62791Y-28313D01*
X62482Y-26833D02*
X62474Y-26843D01*
X62448Y-26852D01*
X62431Y-26852D01*
X62405Y-26843D01*
X62388Y-26824D01*
X62379Y-26804D01*
X62371Y-26766D01*
X62371Y-26738D01*
X62379Y-26700D01*
X62388Y-26681D01*
X62405Y-26662D01*
X62431Y-26652D01*
X62448Y-26652D01*
X62474Y-26662D01*
X62482Y-26671D01*
X62551Y-26671D02*
X62559Y-26662D01*
X62576Y-26652D01*
X62619Y-26652D01*
X62636Y-26662D01*
X62645Y-26671D01*
X62654Y-26690D01*
X62654Y-26709D01*
X62645Y-26738D01*
X62542Y-26852D01*
X62654Y-26852D01*
X62714Y-26652D02*
X62834Y-26652D01*
X62756Y-26852D01*
X62482Y-24471D02*
X62474Y-24480D01*
X62448Y-24490D01*
X62431Y-24490D01*
X62405Y-24480D01*
X62388Y-24461D01*
X62379Y-24442D01*
X62371Y-24404D01*
X62371Y-24376D01*
X62379Y-24338D01*
X62388Y-24318D01*
X62405Y-24299D01*
X62431Y-24290D01*
X62448Y-24290D01*
X62474Y-24299D01*
X62482Y-24309D01*
X62542Y-24290D02*
X62654Y-24290D01*
X62594Y-24366D01*
X62619Y-24366D01*
X62636Y-24376D01*
X62645Y-24385D01*
X62654Y-24404D01*
X62654Y-24452D01*
X62645Y-24471D01*
X62636Y-24480D01*
X62619Y-24490D01*
X62568Y-24490D01*
X62551Y-24480D01*
X62542Y-24471D01*
X62765Y-24290D02*
X62782Y-24290D01*
X62799Y-24299D01*
X62808Y-24309D01*
X62816Y-24328D01*
X62825Y-24366D01*
X62825Y-24414D01*
X62816Y-24452D01*
X62808Y-24471D01*
X62799Y-24480D01*
X62782Y-24490D01*
X62765Y-24490D01*
X62748Y-24480D01*
X62739Y-24471D01*
X62731Y-24452D01*
X62722Y-24414D01*
X62722Y-24366D01*
X62731Y-24328D01*
X62739Y-24309D01*
X62748Y-24299D01*
X62765Y-24290D01*
X62482Y-26046D02*
X62474Y-26055D01*
X62448Y-26065D01*
X62431Y-26065D01*
X62405Y-26055D01*
X62388Y-26036D01*
X62379Y-26017D01*
X62371Y-25979D01*
X62371Y-25950D01*
X62379Y-25912D01*
X62388Y-25893D01*
X62405Y-25874D01*
X62431Y-25865D01*
X62448Y-25865D01*
X62474Y-25874D01*
X62482Y-25884D01*
X62551Y-25884D02*
X62559Y-25874D01*
X62576Y-25865D01*
X62619Y-25865D01*
X62636Y-25874D01*
X62645Y-25884D01*
X62654Y-25903D01*
X62654Y-25922D01*
X62645Y-25950D01*
X62542Y-26065D01*
X62654Y-26065D01*
X62739Y-26065D02*
X62774Y-26065D01*
X62791Y-26055D01*
X62799Y-26046D01*
X62816Y-26017D01*
X62825Y-25979D01*
X62825Y-25903D01*
X62816Y-25884D01*
X62808Y-25874D01*
X62791Y-25865D01*
X62756Y-25865D01*
X62739Y-25874D01*
X62731Y-25884D01*
X62722Y-25903D01*
X62722Y-25950D01*
X62731Y-25969D01*
X62739Y-25979D01*
X62756Y-25989D01*
X62791Y-25989D01*
X62808Y-25979D01*
X62816Y-25969D01*
X62825Y-25950D01*
G54D15*
X45731Y-27114D02*
X46055Y-27114D01*
X46093Y-27093D01*
X46112Y-27071D01*
X46131Y-27028D01*
X46131Y-26943D01*
X46112Y-26900D01*
X46093Y-26878D01*
X46055Y-26857D01*
X45731Y-26857D01*
X45731Y-26685D02*
X45731Y-26407D01*
X45883Y-26557D01*
X45883Y-26493D01*
X45902Y-26450D01*
X45921Y-26428D01*
X45959Y-26407D01*
X46055Y-26407D01*
X46093Y-26428D01*
X46112Y-26450D01*
X46131Y-26493D01*
X46131Y-26621D01*
X46112Y-26664D01*
X46093Y-26685D01*
X45431Y-27847D02*
X45431Y-28038D01*
X45031Y-28038D01*
X45431Y-27714D02*
X45031Y-27714D01*
X45316Y-27581D01*
X45031Y-27447D01*
X45431Y-27447D01*
X45069Y-27276D02*
X45050Y-27257D01*
X45031Y-27219D01*
X45031Y-27124D01*
X45050Y-27085D01*
X45069Y-27066D01*
X45107Y-27047D01*
X45145Y-27047D01*
X45202Y-27066D01*
X45431Y-27295D01*
X45431Y-27047D01*
X45431Y-26857D02*
X45431Y-26781D01*
X45412Y-26743D01*
X45393Y-26724D01*
X45335Y-26685D01*
X45259Y-26666D01*
X45107Y-26666D01*
X45069Y-26685D01*
X45050Y-26704D01*
X45031Y-26743D01*
X45031Y-26819D01*
X45050Y-26857D01*
X45069Y-26876D01*
X45107Y-26895D01*
X45202Y-26895D01*
X45240Y-26876D01*
X45259Y-26857D01*
X45278Y-26819D01*
X45278Y-26743D01*
X45259Y-26704D01*
X45240Y-26685D01*
X45202Y-26666D01*
X45031Y-26419D02*
X45031Y-26381D01*
X45050Y-26343D01*
X45069Y-26324D01*
X45107Y-26304D01*
X45183Y-26285D01*
X45278Y-26285D01*
X45355Y-26304D01*
X45393Y-26324D01*
X45412Y-26343D01*
X45431Y-26381D01*
X45431Y-26419D01*
X45412Y-26457D01*
X45393Y-26476D01*
X45355Y-26495D01*
X45278Y-26514D01*
X45183Y-26514D01*
X45107Y-26495D01*
X45069Y-26476D01*
X45050Y-26457D01*
X45031Y-26419D01*
X45069Y-26133D02*
X45050Y-26114D01*
X45031Y-26076D01*
X45031Y-25981D01*
X45050Y-25943D01*
X45069Y-25924D01*
X45107Y-25904D01*
X45145Y-25904D01*
X45202Y-25924D01*
X45431Y-26152D01*
X45431Y-25904D01*
X45431Y-25733D02*
X45031Y-25733D01*
X45431Y-25504D01*
X45031Y-25504D01*
G54D13*
X46886Y-9367D02*
X46886Y-9795D01*
X46858Y-9881D01*
X46800Y-9938D01*
X46715Y-9967D01*
X46658Y-9967D01*
X47115Y-9367D02*
X47486Y-9367D01*
X47286Y-9595D01*
X47372Y-9595D01*
X47429Y-9624D01*
X47458Y-9652D01*
X47486Y-9710D01*
X47486Y-9852D01*
X47458Y-9910D01*
X47429Y-9938D01*
X47372Y-9967D01*
X47200Y-9967D01*
X47143Y-9938D01*
X47115Y-9910D01*
M02*
