G04 (created by PCBNEW (2013-07-07 BZR 4022)-stable) date 2016-03-24 오전 10:08:33*
%MOIN*%
G04 Gerber Fmt 3.4, Leading zero omitted, Abs format*
%FSLAX34Y34*%
G01*
G70*
G90*
G04 APERTURE LIST*
%ADD10C,0.00590551*%
%ADD11C,0.15748*%
%ADD12C,0.334646*%
%ADD13C,0.06*%
%ADD14C,0.1063*%
%ADD15R,0.06X0.06*%
%ADD16C,0.066*%
%ADD17C,0.056*%
%ADD18C,0.15*%
%ADD19C,0.0787402*%
%ADD20C,0.0629921*%
%ADD21O,0.0590551X0.0984252*%
%ADD22O,0.0984252X0.0590551*%
%ADD23C,0.035*%
%ADD24C,0.011811*%
%ADD25C,0.019685*%
%ADD26C,0.01*%
G04 APERTURE END LIST*
G54D10*
G54D11*
X56811Y-12992D03*
G54D12*
X61141Y-31673D03*
X41456Y-31673D03*
G54D13*
X50681Y-12283D03*
X51681Y-12283D03*
X51681Y-11496D03*
X50681Y-11496D03*
G54D14*
X48819Y-10433D03*
X53543Y-10433D03*
G54D15*
X44291Y-16003D03*
G54D13*
X44291Y-17003D03*
X44291Y-18003D03*
X44291Y-19003D03*
X44291Y-20003D03*
X44291Y-21003D03*
G54D16*
X59736Y-11023D03*
X60736Y-11023D03*
X42019Y-11023D03*
X43019Y-11023D03*
G54D17*
X47244Y-17897D03*
X47244Y-19897D03*
G54D18*
X46524Y-37114D03*
X56524Y-37114D03*
G54D15*
X49374Y-36114D03*
G54D13*
X50474Y-36114D03*
X51574Y-36114D03*
X52624Y-36114D03*
X53724Y-36114D03*
X53174Y-37114D03*
X52074Y-37114D03*
X51024Y-37114D03*
X49924Y-37114D03*
G54D19*
X58464Y-9448D03*
X55708Y-9448D03*
G54D20*
X57972Y-8464D03*
X56200Y-8464D03*
G54D21*
X45964Y-10433D03*
X44586Y-10433D03*
G54D22*
X45275Y-11614D03*
G54D19*
X45275Y-9055D03*
G54D12*
X41456Y-15570D03*
X61062Y-15590D03*
G54D11*
X45787Y-12992D03*
G54D23*
X59055Y-35039D03*
X59842Y-35039D03*
X59842Y-35826D03*
X59055Y-35826D03*
X50551Y-22125D03*
X40590Y-25590D03*
X50236Y-22559D03*
X40590Y-27204D03*
X51181Y-27362D03*
X51614Y-20787D03*
X51181Y-20393D03*
X51181Y-26377D03*
X52165Y-19488D03*
X52165Y-26377D03*
X52165Y-27952D03*
X52755Y-19291D03*
X62204Y-27165D03*
X54921Y-19094D03*
X62204Y-25590D03*
X54330Y-18700D03*
X49606Y-19921D03*
X49921Y-20236D03*
X42322Y-25157D03*
X42322Y-27559D03*
X49212Y-28346D03*
X49212Y-25984D03*
X53740Y-25984D03*
X54212Y-38464D03*
X53740Y-28346D03*
X54606Y-38031D03*
X55000Y-37677D03*
X60433Y-27559D03*
X60433Y-25196D03*
X55354Y-37165D03*
X49606Y-16338D03*
X49881Y-17755D03*
X60433Y-25984D03*
X55708Y-23425D03*
X49212Y-26771D03*
X53740Y-26771D03*
X42322Y-25984D03*
X49212Y-23425D03*
X50000Y-14960D03*
X49527Y-18031D03*
X50236Y-17559D03*
X54724Y-19685D03*
X60629Y-19291D03*
X60629Y-20078D03*
X59842Y-20078D03*
X59842Y-19291D03*
X43307Y-35826D03*
X43307Y-35039D03*
X44094Y-35039D03*
X44094Y-35826D03*
X42125Y-19685D03*
X41338Y-19685D03*
X41338Y-18897D03*
X42125Y-18897D03*
X42303Y-24409D03*
X53740Y-25196D03*
X49212Y-25236D03*
X45275Y-30314D03*
X46062Y-29527D03*
X45275Y-29527D03*
X46062Y-30314D03*
X49803Y-18700D03*
X56692Y-29527D03*
X56692Y-30314D03*
X57480Y-30314D03*
X57480Y-29527D03*
X61417Y-26377D03*
X51574Y-13582D03*
X53543Y-15551D03*
X50787Y-15551D03*
X56102Y-15551D03*
G54D24*
X48267Y-18661D02*
X48228Y-18700D01*
G54D25*
X59055Y-35826D02*
X59842Y-35826D01*
X40590Y-25590D02*
X40590Y-24645D01*
X40590Y-24645D02*
X41023Y-24212D01*
X50551Y-22125D02*
X43110Y-22125D01*
X43110Y-22125D02*
X41023Y-24212D01*
X41023Y-25196D02*
X41023Y-24763D01*
X43228Y-22559D02*
X43740Y-22559D01*
X41023Y-24763D02*
X43228Y-22559D01*
X41023Y-26771D02*
X41023Y-25196D01*
X50236Y-22559D02*
X43740Y-22559D01*
X40590Y-27204D02*
X41023Y-26771D01*
X51614Y-26929D02*
X51614Y-26102D01*
X51181Y-27362D02*
X51614Y-26929D01*
X51614Y-21653D02*
X51614Y-26102D01*
X51614Y-21653D02*
X51614Y-20787D01*
X51614Y-21181D02*
X51614Y-21653D01*
G54D24*
X51614Y-20787D02*
X51614Y-20787D01*
G54D25*
X51181Y-21456D02*
X51181Y-20393D01*
X51181Y-20984D02*
X51181Y-20393D01*
X51181Y-26377D02*
X51181Y-21456D01*
X51181Y-21456D02*
X51181Y-21377D01*
X52165Y-20866D02*
X52165Y-19488D01*
X52165Y-19881D02*
X52165Y-20866D01*
X52165Y-20866D02*
X52165Y-26181D01*
X52165Y-26181D02*
X52165Y-26377D01*
X52165Y-27952D02*
X52755Y-27165D01*
X52755Y-27165D02*
X52755Y-25787D01*
X52755Y-20669D02*
X52755Y-25787D01*
X52755Y-20669D02*
X52755Y-19291D01*
X52755Y-19685D02*
X52755Y-20669D01*
X61811Y-26181D02*
X61811Y-25984D01*
X61811Y-25984D02*
X59842Y-24015D01*
X59842Y-24015D02*
X54921Y-19094D01*
X62204Y-26968D02*
X62204Y-27165D01*
X61811Y-26574D02*
X62204Y-26968D01*
X61811Y-26181D02*
X61811Y-26574D01*
X62204Y-25590D02*
X62007Y-25590D01*
X54330Y-18700D02*
X55118Y-18700D01*
X61417Y-25000D02*
X55118Y-18700D01*
X62007Y-25590D02*
X61417Y-25000D01*
X44370Y-11614D02*
X44370Y-10649D01*
X44370Y-10649D02*
X44586Y-10433D01*
X46259Y-15551D02*
X47874Y-15551D01*
X44370Y-13661D02*
X46259Y-15551D01*
X44370Y-11614D02*
X44370Y-13661D01*
X49409Y-15551D02*
X50787Y-16929D01*
X50787Y-16929D02*
X50787Y-18700D01*
X50787Y-18700D02*
X49606Y-19881D01*
X49409Y-15551D02*
X48818Y-15551D01*
X49606Y-19921D02*
X49606Y-19881D01*
X47874Y-15551D02*
X48818Y-15551D01*
X48818Y-15551D02*
X48976Y-15551D01*
X45964Y-10433D02*
X46102Y-10433D01*
X48031Y-14094D02*
X49094Y-15157D01*
X48031Y-11968D02*
X48031Y-14094D01*
X46102Y-10433D02*
X48031Y-11968D01*
X51200Y-16712D02*
X51200Y-18956D01*
X49094Y-15157D02*
X49645Y-15157D01*
X51200Y-18956D02*
X49921Y-20236D01*
X49645Y-15157D02*
X51200Y-16712D01*
X41968Y-28976D02*
X47401Y-34409D01*
X41968Y-25511D02*
X41968Y-28976D01*
X42322Y-25157D02*
X41968Y-25511D01*
X50474Y-36114D02*
X50474Y-35627D01*
X46456Y-33464D02*
X47401Y-34409D01*
X47401Y-34409D02*
X47637Y-34645D01*
X50474Y-35317D02*
X50474Y-35627D01*
X50474Y-35627D02*
X50474Y-35629D01*
X50474Y-35629D02*
X50474Y-35720D01*
X49803Y-34645D02*
X50474Y-35317D01*
X47637Y-34645D02*
X49803Y-34645D01*
X46692Y-33700D02*
X46456Y-33464D01*
X51574Y-36114D02*
X51574Y-35826D01*
X51574Y-35826D02*
X50000Y-34251D01*
X46555Y-32972D02*
X47834Y-34251D01*
X47834Y-34251D02*
X50000Y-34251D01*
X46555Y-32972D02*
X45393Y-31811D01*
X45393Y-31811D02*
X42322Y-28740D01*
X42322Y-28740D02*
X42322Y-27559D01*
X49212Y-28346D02*
X49212Y-32086D01*
X49212Y-32086D02*
X50000Y-32874D01*
X52624Y-36114D02*
X52624Y-35498D01*
X52624Y-35498D02*
X50000Y-32874D01*
X49606Y-26377D02*
X49606Y-31889D01*
X49606Y-31889D02*
X50196Y-32480D01*
X53724Y-36008D02*
X53724Y-36114D01*
X49212Y-25984D02*
X49606Y-26377D01*
X50196Y-32480D02*
X53724Y-36008D01*
X53346Y-26377D02*
X53346Y-33858D01*
X53346Y-33858D02*
X53740Y-34251D01*
X53346Y-26377D02*
X53740Y-25984D01*
X54212Y-38464D02*
X54212Y-34724D01*
X54212Y-34724D02*
X53740Y-34251D01*
X54212Y-34724D02*
X53740Y-34251D01*
X54606Y-34960D02*
X54606Y-34527D01*
X53740Y-33661D02*
X53740Y-32716D01*
X54606Y-34527D02*
X53740Y-33661D01*
X53740Y-28346D02*
X53740Y-32716D01*
X54606Y-35039D02*
X54606Y-34960D01*
X54606Y-38031D02*
X54606Y-35039D01*
X60433Y-27559D02*
X60433Y-28503D01*
X60433Y-28503D02*
X59015Y-29921D01*
X55000Y-33937D02*
X59015Y-29921D01*
X55000Y-37677D02*
X55000Y-33937D01*
X60826Y-28425D02*
X60826Y-28661D01*
X55354Y-34133D02*
X55354Y-34763D01*
X60826Y-28661D02*
X55354Y-34133D01*
X60433Y-25196D02*
X60826Y-25590D01*
X60826Y-25590D02*
X60826Y-28425D01*
X55354Y-37165D02*
X55354Y-34763D01*
X49606Y-16338D02*
X44625Y-16338D01*
X44625Y-16338D02*
X44291Y-16003D01*
X44291Y-19003D02*
X46744Y-19003D01*
X49842Y-17716D02*
X49881Y-17755D01*
X48031Y-17716D02*
X49842Y-17716D01*
X46744Y-19003D02*
X48031Y-17716D01*
X53740Y-26771D02*
X54724Y-26771D01*
X56299Y-24015D02*
X55708Y-23425D01*
X56299Y-25196D02*
X56299Y-24015D01*
X54724Y-26771D02*
X56299Y-25196D01*
X60433Y-25984D02*
X57874Y-23425D01*
X57874Y-23425D02*
X55708Y-23425D01*
X48622Y-25000D02*
X48622Y-24015D01*
X48622Y-24015D02*
X49212Y-23425D01*
X48622Y-25000D02*
X48622Y-26181D01*
X48622Y-26181D02*
X49212Y-26771D01*
X49212Y-26771D02*
X48622Y-26181D01*
X42322Y-25984D02*
X42322Y-25984D01*
X42322Y-25984D02*
X44291Y-23818D01*
G54D24*
X42322Y-25984D02*
X42307Y-25999D01*
G54D25*
X49212Y-23425D02*
X44685Y-23425D01*
X44685Y-23425D02*
X44488Y-23622D01*
X44488Y-23622D02*
X44291Y-23818D01*
X56200Y-8464D02*
X52755Y-8464D01*
X50000Y-11220D02*
X50000Y-14960D01*
X52755Y-8464D02*
X50000Y-11220D01*
X44291Y-20003D02*
X46381Y-20003D01*
X49401Y-18157D02*
X49527Y-18031D01*
X48228Y-18157D02*
X49401Y-18157D01*
X46381Y-20003D02*
X48228Y-18157D01*
X50236Y-17559D02*
X50236Y-17362D01*
X45169Y-17125D02*
X44291Y-18003D01*
X50000Y-17125D02*
X45169Y-17125D01*
X50236Y-17362D02*
X50000Y-17125D01*
X53543Y-10433D02*
X53543Y-11810D01*
X59842Y-20078D02*
X60629Y-20078D01*
X59842Y-18110D02*
X59842Y-19291D01*
X53543Y-11810D02*
X59842Y-18110D01*
X49374Y-36114D02*
X44381Y-36114D01*
X44094Y-35039D02*
X43307Y-35039D01*
X44381Y-36114D02*
X44094Y-35826D01*
X44291Y-21003D02*
X44232Y-21003D01*
X41338Y-18897D02*
X41338Y-19685D01*
X44232Y-21003D02*
X42125Y-18897D01*
X42283Y-24448D02*
X42283Y-24429D01*
X42283Y-24429D02*
X42303Y-24409D01*
X46062Y-29527D02*
X45275Y-29527D01*
X45275Y-30314D02*
X46062Y-30314D01*
X56692Y-30314D02*
X56692Y-29527D01*
X57480Y-29527D02*
X57480Y-30314D01*
X56102Y-15551D02*
X53543Y-15551D01*
X50787Y-15551D02*
X53346Y-15551D01*
X50787Y-15551D02*
X50787Y-12389D01*
X53346Y-15551D02*
X53543Y-15551D01*
X53346Y-15551D02*
X53346Y-15551D01*
X50787Y-12389D02*
X50681Y-12283D01*
X50787Y-12389D02*
X50681Y-12283D01*
G54D24*
X56102Y-15551D02*
X56102Y-15551D01*
G54D10*
G36*
X52279Y-35686D02*
X52161Y-35804D01*
X52099Y-35952D01*
X52038Y-35804D01*
X51884Y-35650D01*
X51856Y-35639D01*
X51818Y-35582D01*
X51818Y-35582D01*
X50244Y-34007D01*
X50132Y-33932D01*
X50000Y-33906D01*
X47977Y-33906D01*
X46799Y-32728D01*
X45637Y-31566D01*
X45637Y-31566D01*
X42668Y-28597D01*
X42668Y-27810D01*
X42680Y-27798D01*
X42744Y-27643D01*
X42744Y-27475D01*
X42680Y-27320D01*
X42562Y-27201D01*
X42407Y-27137D01*
X42313Y-27137D01*
X42313Y-26406D01*
X42406Y-26406D01*
X42561Y-26342D01*
X42680Y-26223D01*
X42744Y-26068D01*
X42744Y-26033D01*
X44547Y-24052D01*
X44549Y-24048D01*
X44732Y-23866D01*
X44732Y-23866D01*
X44732Y-23866D01*
X44828Y-23770D01*
X48379Y-23770D01*
X48377Y-23771D01*
X48303Y-23883D01*
X48276Y-24015D01*
X48276Y-25000D01*
X48276Y-26181D01*
X48303Y-26313D01*
X48377Y-26425D01*
X48790Y-26838D01*
X48790Y-26855D01*
X48854Y-27010D01*
X48973Y-27129D01*
X49128Y-27193D01*
X49261Y-27193D01*
X49261Y-27924D01*
X49129Y-27924D01*
X48973Y-27988D01*
X48855Y-28107D01*
X48790Y-28262D01*
X48790Y-28429D01*
X48854Y-28585D01*
X48867Y-28597D01*
X48867Y-32086D01*
X48893Y-32218D01*
X48968Y-32330D01*
X49755Y-33118D01*
X52279Y-35641D01*
X52279Y-35686D01*
X52279Y-35686D01*
G37*
G54D26*
X52279Y-35686D02*
X52161Y-35804D01*
X52099Y-35952D01*
X52038Y-35804D01*
X51884Y-35650D01*
X51856Y-35639D01*
X51818Y-35582D01*
X51818Y-35582D01*
X50244Y-34007D01*
X50132Y-33932D01*
X50000Y-33906D01*
X47977Y-33906D01*
X46799Y-32728D01*
X45637Y-31566D01*
X45637Y-31566D01*
X42668Y-28597D01*
X42668Y-27810D01*
X42680Y-27798D01*
X42744Y-27643D01*
X42744Y-27475D01*
X42680Y-27320D01*
X42562Y-27201D01*
X42407Y-27137D01*
X42313Y-27137D01*
X42313Y-26406D01*
X42406Y-26406D01*
X42561Y-26342D01*
X42680Y-26223D01*
X42744Y-26068D01*
X42744Y-26033D01*
X44547Y-24052D01*
X44549Y-24048D01*
X44732Y-23866D01*
X44732Y-23866D01*
X44732Y-23866D01*
X44828Y-23770D01*
X48379Y-23770D01*
X48377Y-23771D01*
X48303Y-23883D01*
X48276Y-24015D01*
X48276Y-25000D01*
X48276Y-26181D01*
X48303Y-26313D01*
X48377Y-26425D01*
X48790Y-26838D01*
X48790Y-26855D01*
X48854Y-27010D01*
X48973Y-27129D01*
X49128Y-27193D01*
X49261Y-27193D01*
X49261Y-27924D01*
X49129Y-27924D01*
X48973Y-27988D01*
X48855Y-28107D01*
X48790Y-28262D01*
X48790Y-28429D01*
X48854Y-28585D01*
X48867Y-28597D01*
X48867Y-32086D01*
X48893Y-32218D01*
X48968Y-32330D01*
X49755Y-33118D01*
X52279Y-35641D01*
X52279Y-35686D01*
G54D10*
G36*
X60481Y-27137D02*
X60349Y-27137D01*
X60194Y-27201D01*
X60075Y-27319D01*
X60011Y-27474D01*
X60011Y-27642D01*
X60075Y-27797D01*
X60087Y-27810D01*
X60087Y-28360D01*
X58771Y-29677D01*
X58771Y-29677D01*
X54755Y-33692D01*
X54681Y-33804D01*
X54654Y-33937D01*
X54654Y-34087D01*
X54085Y-33518D01*
X54085Y-32716D01*
X54085Y-28597D01*
X54097Y-28585D01*
X54161Y-28430D01*
X54162Y-28262D01*
X54097Y-28107D01*
X53979Y-27989D01*
X53824Y-27924D01*
X53691Y-27924D01*
X53691Y-27193D01*
X53823Y-27193D01*
X53978Y-27129D01*
X53991Y-27116D01*
X54724Y-27116D01*
X54856Y-27090D01*
X54968Y-27015D01*
X56543Y-25440D01*
X56543Y-25440D01*
X56543Y-25440D01*
X56588Y-25373D01*
X56618Y-25328D01*
X56618Y-25328D01*
X56644Y-25196D01*
X56644Y-24015D01*
X56618Y-23883D01*
X56618Y-23883D01*
X56588Y-23838D01*
X56543Y-23771D01*
X56543Y-23771D01*
X56542Y-23770D01*
X57730Y-23770D01*
X60011Y-26050D01*
X60011Y-26067D01*
X60075Y-26222D01*
X60193Y-26341D01*
X60348Y-26406D01*
X60481Y-26406D01*
X60481Y-27137D01*
X60481Y-27137D01*
G37*
G54D26*
X60481Y-27137D02*
X60349Y-27137D01*
X60194Y-27201D01*
X60075Y-27319D01*
X60011Y-27474D01*
X60011Y-27642D01*
X60075Y-27797D01*
X60087Y-27810D01*
X60087Y-28360D01*
X58771Y-29677D01*
X58771Y-29677D01*
X54755Y-33692D01*
X54681Y-33804D01*
X54654Y-33937D01*
X54654Y-34087D01*
X54085Y-33518D01*
X54085Y-32716D01*
X54085Y-28597D01*
X54097Y-28585D01*
X54161Y-28430D01*
X54162Y-28262D01*
X54097Y-28107D01*
X53979Y-27989D01*
X53824Y-27924D01*
X53691Y-27924D01*
X53691Y-27193D01*
X53823Y-27193D01*
X53978Y-27129D01*
X53991Y-27116D01*
X54724Y-27116D01*
X54856Y-27090D01*
X54968Y-27015D01*
X56543Y-25440D01*
X56543Y-25440D01*
X56543Y-25440D01*
X56588Y-25373D01*
X56618Y-25328D01*
X56618Y-25328D01*
X56644Y-25196D01*
X56644Y-24015D01*
X56618Y-23883D01*
X56618Y-23883D01*
X56588Y-23838D01*
X56543Y-23771D01*
X56543Y-23771D01*
X56542Y-23770D01*
X57730Y-23770D01*
X60011Y-26050D01*
X60011Y-26067D01*
X60075Y-26222D01*
X60193Y-26341D01*
X60348Y-26406D01*
X60481Y-26406D01*
X60481Y-27137D01*
G54D10*
G36*
X62942Y-38926D02*
X60264Y-38926D01*
X60264Y-35743D01*
X60200Y-35588D01*
X60081Y-35469D01*
X59994Y-35433D01*
X60081Y-35397D01*
X60199Y-35278D01*
X60264Y-35123D01*
X60264Y-34955D01*
X60200Y-34800D01*
X60081Y-34681D01*
X59926Y-34617D01*
X59758Y-34617D01*
X59603Y-34681D01*
X59485Y-34800D01*
X59448Y-34887D01*
X59412Y-34800D01*
X59294Y-34681D01*
X59139Y-34617D01*
X58971Y-34617D01*
X58816Y-34681D01*
X58697Y-34800D01*
X58633Y-34955D01*
X58633Y-35122D01*
X58697Y-35278D01*
X58815Y-35396D01*
X58903Y-35433D01*
X58816Y-35468D01*
X58697Y-35587D01*
X58633Y-35742D01*
X58633Y-35910D01*
X58697Y-36065D01*
X58815Y-36184D01*
X58970Y-36248D01*
X59138Y-36248D01*
X59293Y-36184D01*
X59306Y-36172D01*
X59591Y-36172D01*
X59603Y-36184D01*
X59758Y-36248D01*
X59926Y-36248D01*
X60081Y-36184D01*
X60199Y-36066D01*
X60264Y-35911D01*
X60264Y-35743D01*
X60264Y-38926D01*
X53721Y-38926D01*
X53721Y-37005D01*
X53638Y-36804D01*
X53484Y-36650D01*
X53284Y-36567D01*
X53066Y-36567D01*
X52865Y-36650D01*
X52711Y-36804D01*
X52628Y-37004D01*
X52627Y-37222D01*
X52710Y-37423D01*
X52864Y-37577D01*
X53065Y-37660D01*
X53283Y-37661D01*
X53484Y-37578D01*
X53638Y-37424D01*
X53721Y-37223D01*
X53721Y-37005D01*
X53721Y-38926D01*
X52621Y-38926D01*
X52621Y-37005D01*
X52538Y-36804D01*
X52384Y-36650D01*
X52184Y-36567D01*
X51966Y-36567D01*
X51765Y-36650D01*
X51611Y-36804D01*
X51549Y-36952D01*
X51488Y-36804D01*
X51334Y-36650D01*
X51134Y-36567D01*
X50916Y-36567D01*
X50715Y-36650D01*
X50561Y-36804D01*
X50478Y-37004D01*
X50477Y-37222D01*
X50560Y-37423D01*
X50714Y-37577D01*
X50915Y-37660D01*
X51133Y-37661D01*
X51334Y-37578D01*
X51488Y-37424D01*
X51549Y-37275D01*
X51610Y-37423D01*
X51764Y-37577D01*
X51965Y-37660D01*
X52183Y-37661D01*
X52384Y-37578D01*
X52538Y-37424D01*
X52621Y-37223D01*
X52621Y-37005D01*
X52621Y-38926D01*
X49324Y-38926D01*
X49324Y-36746D01*
X49324Y-36164D01*
X49324Y-36064D01*
X49324Y-35481D01*
X49213Y-35370D01*
X48986Y-35370D01*
X48823Y-35437D01*
X48698Y-35562D01*
X48631Y-35725D01*
X48631Y-35902D01*
X48631Y-35953D01*
X48742Y-36064D01*
X49324Y-36064D01*
X49324Y-36164D01*
X48742Y-36164D01*
X48631Y-36275D01*
X48631Y-36326D01*
X48631Y-36502D01*
X48698Y-36665D01*
X48823Y-36790D01*
X48986Y-36857D01*
X49213Y-36857D01*
X49324Y-36746D01*
X49324Y-38926D01*
X47521Y-38926D01*
X47521Y-36916D01*
X47370Y-36550D01*
X47090Y-36269D01*
X46723Y-36117D01*
X46327Y-36117D01*
X45960Y-36268D01*
X45680Y-36548D01*
X45528Y-36915D01*
X45527Y-37311D01*
X45679Y-37678D01*
X45959Y-37958D01*
X46325Y-38110D01*
X46722Y-38111D01*
X47088Y-37959D01*
X47369Y-37679D01*
X47521Y-37313D01*
X47521Y-36916D01*
X47521Y-38926D01*
X39813Y-38926D01*
X39813Y-32725D01*
X39827Y-32759D01*
X40367Y-33300D01*
X41073Y-33592D01*
X41836Y-33593D01*
X42542Y-33301D01*
X43083Y-32762D01*
X43376Y-32056D01*
X43377Y-31292D01*
X43085Y-30587D01*
X42545Y-30046D01*
X41840Y-29753D01*
X41076Y-29752D01*
X40370Y-30044D01*
X39829Y-30584D01*
X39813Y-30622D01*
X39813Y-16622D01*
X39827Y-16657D01*
X40367Y-17197D01*
X41073Y-17490D01*
X41836Y-17491D01*
X42542Y-17199D01*
X43083Y-16659D01*
X43376Y-15954D01*
X43377Y-15190D01*
X43085Y-14484D01*
X42545Y-13944D01*
X41840Y-13651D01*
X41076Y-13650D01*
X40370Y-13942D01*
X39829Y-14481D01*
X39813Y-14520D01*
X39813Y-8317D01*
X52414Y-8317D01*
X49796Y-10935D01*
X49796Y-10616D01*
X49792Y-10228D01*
X49651Y-9889D01*
X49478Y-9844D01*
X49407Y-9915D01*
X49407Y-9774D01*
X49362Y-9600D01*
X49002Y-9455D01*
X48614Y-9460D01*
X48275Y-9600D01*
X48230Y-9774D01*
X48819Y-10362D01*
X49407Y-9774D01*
X49407Y-9915D01*
X48889Y-10433D01*
X49478Y-11021D01*
X49651Y-10976D01*
X49796Y-10616D01*
X49796Y-10935D01*
X49755Y-10976D01*
X49681Y-11088D01*
X49654Y-11220D01*
X49654Y-14709D01*
X49642Y-14721D01*
X49604Y-14812D01*
X49407Y-14812D01*
X49407Y-11092D01*
X48819Y-10503D01*
X48748Y-10574D01*
X48748Y-10433D01*
X48160Y-9844D01*
X47986Y-9889D01*
X47841Y-10249D01*
X47846Y-10637D01*
X47986Y-10976D01*
X48160Y-11021D01*
X48748Y-10433D01*
X48748Y-10574D01*
X48230Y-11092D01*
X48275Y-11265D01*
X48635Y-11410D01*
X49023Y-11406D01*
X49362Y-11265D01*
X49407Y-11092D01*
X49407Y-14812D01*
X49237Y-14812D01*
X48376Y-13951D01*
X48376Y-11968D01*
X48373Y-11950D01*
X48375Y-11928D01*
X48358Y-11878D01*
X48350Y-11836D01*
X48340Y-11821D01*
X48333Y-11800D01*
X48298Y-11759D01*
X48275Y-11724D01*
X48261Y-11714D01*
X48246Y-11697D01*
X46506Y-10313D01*
X46506Y-10221D01*
X46465Y-10014D01*
X46347Y-9838D01*
X46172Y-9720D01*
X45964Y-9679D01*
X45916Y-9689D01*
X45916Y-8928D01*
X45818Y-8692D01*
X45638Y-8512D01*
X45403Y-8414D01*
X45148Y-8414D01*
X44913Y-8511D01*
X44732Y-8691D01*
X44635Y-8927D01*
X44634Y-9181D01*
X44732Y-9417D01*
X44912Y-9597D01*
X45147Y-9695D01*
X45402Y-9695D01*
X45637Y-9598D01*
X45818Y-9418D01*
X45916Y-9183D01*
X45916Y-8928D01*
X45916Y-9689D01*
X45757Y-9720D01*
X45581Y-9838D01*
X45463Y-10014D01*
X45422Y-10221D01*
X45422Y-10644D01*
X45463Y-10851D01*
X45479Y-10875D01*
X45325Y-10875D01*
X45325Y-11564D01*
X46098Y-11564D01*
X46192Y-11449D01*
X46174Y-11377D01*
X46054Y-11168D01*
X46172Y-11145D01*
X46319Y-11046D01*
X47686Y-12134D01*
X47686Y-14094D01*
X47712Y-14226D01*
X47787Y-14338D01*
X48654Y-15205D01*
X47874Y-15205D01*
X46402Y-15205D01*
X44715Y-13518D01*
X44715Y-12251D01*
X44749Y-12277D01*
X44977Y-12339D01*
X44911Y-12405D01*
X44753Y-12785D01*
X44752Y-13196D01*
X44910Y-13577D01*
X45200Y-13868D01*
X45580Y-14026D01*
X45992Y-14026D01*
X46372Y-13869D01*
X46663Y-13578D01*
X46821Y-13198D01*
X46821Y-12787D01*
X46664Y-12407D01*
X46374Y-12115D01*
X46089Y-11997D01*
X46174Y-11850D01*
X46192Y-11778D01*
X46098Y-11664D01*
X45325Y-11664D01*
X45325Y-11672D01*
X45225Y-11672D01*
X45225Y-11664D01*
X45217Y-11664D01*
X45217Y-11564D01*
X45225Y-11564D01*
X45225Y-10875D01*
X45071Y-10875D01*
X45087Y-10851D01*
X45128Y-10644D01*
X45128Y-10221D01*
X45087Y-10014D01*
X44969Y-9838D01*
X44794Y-9720D01*
X44586Y-9679D01*
X44379Y-9720D01*
X44203Y-9838D01*
X44085Y-10014D01*
X44044Y-10221D01*
X44044Y-10550D01*
X44024Y-10649D01*
X44024Y-11614D01*
X44024Y-13661D01*
X44051Y-13793D01*
X44125Y-13905D01*
X46015Y-15795D01*
X46127Y-15870D01*
X46259Y-15896D01*
X47874Y-15896D01*
X48818Y-15896D01*
X48976Y-15896D01*
X49266Y-15896D01*
X49359Y-15989D01*
X49355Y-15993D01*
X44838Y-15993D01*
X44838Y-15655D01*
X44800Y-15564D01*
X44731Y-15494D01*
X44640Y-15457D01*
X44542Y-15457D01*
X43942Y-15457D01*
X43851Y-15494D01*
X43796Y-15549D01*
X43796Y-11158D01*
X43789Y-10851D01*
X43685Y-10601D01*
X43533Y-10580D01*
X43462Y-10651D01*
X43462Y-10510D01*
X43441Y-10357D01*
X43154Y-10246D01*
X42847Y-10253D01*
X42597Y-10357D01*
X42576Y-10510D01*
X43019Y-10952D01*
X43462Y-10510D01*
X43462Y-10651D01*
X43090Y-11023D01*
X43533Y-11466D01*
X43685Y-11445D01*
X43796Y-11158D01*
X43796Y-15549D01*
X43782Y-15563D01*
X43744Y-15654D01*
X43744Y-15752D01*
X43744Y-16352D01*
X43781Y-16443D01*
X43851Y-16513D01*
X43942Y-16550D01*
X43971Y-16550D01*
X43828Y-16693D01*
X43744Y-16894D01*
X43744Y-17112D01*
X43827Y-17313D01*
X43981Y-17467D01*
X44069Y-17503D01*
X43981Y-17540D01*
X43828Y-17693D01*
X43744Y-17894D01*
X43744Y-18112D01*
X43827Y-18313D01*
X43981Y-18467D01*
X44069Y-18503D01*
X43981Y-18540D01*
X43828Y-18693D01*
X43744Y-18894D01*
X43744Y-19112D01*
X43827Y-19313D01*
X43981Y-19467D01*
X44069Y-19503D01*
X43981Y-19540D01*
X43828Y-19693D01*
X43744Y-19894D01*
X43744Y-20112D01*
X43827Y-20313D01*
X43885Y-20371D01*
X43870Y-20512D01*
X44291Y-20933D01*
X44712Y-20512D01*
X44696Y-20371D01*
X44719Y-20349D01*
X46381Y-20349D01*
X46514Y-20322D01*
X46626Y-20248D01*
X46762Y-20111D01*
X46797Y-20195D01*
X46945Y-20344D01*
X47138Y-20424D01*
X47348Y-20424D01*
X47542Y-20344D01*
X47690Y-20196D01*
X47770Y-20002D01*
X47771Y-19793D01*
X47690Y-19599D01*
X47542Y-19451D01*
X47458Y-19416D01*
X47990Y-18884D01*
X48012Y-18917D01*
X48111Y-18983D01*
X48228Y-19006D01*
X48345Y-18983D01*
X48444Y-18917D01*
X48484Y-18877D01*
X48550Y-18778D01*
X48573Y-18661D01*
X48550Y-18544D01*
X48522Y-18502D01*
X49401Y-18502D01*
X49533Y-18476D01*
X49568Y-18453D01*
X49611Y-18453D01*
X49766Y-18389D01*
X49884Y-18270D01*
X49923Y-18177D01*
X49965Y-18177D01*
X50120Y-18113D01*
X50239Y-17995D01*
X50245Y-17980D01*
X50319Y-17980D01*
X50442Y-17930D01*
X50442Y-18557D01*
X49484Y-19514D01*
X49367Y-19563D01*
X49248Y-19681D01*
X49184Y-19836D01*
X49184Y-20004D01*
X49248Y-20159D01*
X49367Y-20278D01*
X49506Y-20336D01*
X49563Y-20474D01*
X49681Y-20593D01*
X49836Y-20657D01*
X50004Y-20658D01*
X50159Y-20594D01*
X50278Y-20475D01*
X50343Y-20320D01*
X50343Y-20302D01*
X51444Y-19200D01*
X51519Y-19088D01*
X51546Y-18956D01*
X51546Y-16712D01*
X51519Y-16580D01*
X51519Y-16580D01*
X51444Y-16468D01*
X51444Y-16468D01*
X50926Y-15950D01*
X51026Y-15909D01*
X51038Y-15896D01*
X53291Y-15896D01*
X53304Y-15908D01*
X53459Y-15972D01*
X53626Y-15973D01*
X53781Y-15909D01*
X53794Y-15896D01*
X55850Y-15896D01*
X55863Y-15908D01*
X56018Y-15972D01*
X56185Y-15973D01*
X56341Y-15909D01*
X56459Y-15790D01*
X56524Y-15635D01*
X56524Y-15467D01*
X56460Y-15312D01*
X56341Y-15193D01*
X56186Y-15129D01*
X56018Y-15129D01*
X55863Y-15193D01*
X55851Y-15205D01*
X54520Y-15205D01*
X54520Y-10616D01*
X54516Y-10228D01*
X54375Y-9889D01*
X54202Y-9844D01*
X54131Y-9915D01*
X54131Y-9774D01*
X54086Y-9600D01*
X53726Y-9455D01*
X53338Y-9460D01*
X52999Y-9600D01*
X52954Y-9774D01*
X53543Y-10362D01*
X54131Y-9774D01*
X54131Y-9915D01*
X53613Y-10433D01*
X54202Y-11021D01*
X54375Y-10976D01*
X54520Y-10616D01*
X54520Y-15205D01*
X54131Y-15205D01*
X54131Y-11092D01*
X53543Y-10503D01*
X53472Y-10574D01*
X53472Y-10433D01*
X52884Y-9844D01*
X52710Y-9889D01*
X52565Y-10249D01*
X52570Y-10637D01*
X52710Y-10976D01*
X52884Y-11021D01*
X53472Y-10433D01*
X53472Y-10574D01*
X52954Y-11092D01*
X52999Y-11265D01*
X53359Y-11410D01*
X53747Y-11406D01*
X54086Y-11265D01*
X54131Y-11092D01*
X54131Y-15205D01*
X53794Y-15205D01*
X53782Y-15193D01*
X53627Y-15129D01*
X53459Y-15129D01*
X53304Y-15193D01*
X53292Y-15205D01*
X51132Y-15205D01*
X51132Y-12604D01*
X51144Y-12593D01*
X51181Y-12504D01*
X51217Y-12592D01*
X51370Y-12746D01*
X51571Y-12829D01*
X51789Y-12830D01*
X51990Y-12746D01*
X52144Y-12593D01*
X52227Y-12392D01*
X52228Y-12174D01*
X52144Y-11973D01*
X52060Y-11889D01*
X52144Y-11806D01*
X52227Y-11605D01*
X52228Y-11387D01*
X52144Y-11186D01*
X51991Y-11032D01*
X51790Y-10949D01*
X51572Y-10949D01*
X51371Y-11032D01*
X51313Y-11090D01*
X51172Y-11075D01*
X50751Y-11496D01*
X50757Y-11501D01*
X50686Y-11572D01*
X50681Y-11566D01*
X50675Y-11572D01*
X50604Y-11501D01*
X50610Y-11496D01*
X50604Y-11490D01*
X50675Y-11419D01*
X50681Y-11425D01*
X51102Y-11004D01*
X51085Y-10854D01*
X50918Y-10790D01*
X52898Y-8809D01*
X55577Y-8809D01*
X55346Y-8905D01*
X55165Y-9085D01*
X55068Y-9320D01*
X55067Y-9575D01*
X55165Y-9811D01*
X55345Y-9991D01*
X55580Y-10089D01*
X55835Y-10089D01*
X56071Y-9992D01*
X56251Y-9812D01*
X56349Y-9576D01*
X56349Y-9321D01*
X56252Y-9086D01*
X56192Y-9026D01*
X56312Y-9026D01*
X56518Y-8941D01*
X56676Y-8783D01*
X56762Y-8576D01*
X56762Y-8353D01*
X56747Y-8317D01*
X57216Y-8317D01*
X57210Y-8332D01*
X57217Y-8634D01*
X57318Y-8877D01*
X57469Y-8896D01*
X57901Y-8464D01*
X57896Y-8458D01*
X57966Y-8388D01*
X57972Y-8393D01*
X57978Y-8388D01*
X58048Y-8458D01*
X58043Y-8464D01*
X58048Y-8470D01*
X57978Y-8540D01*
X57972Y-8535D01*
X57540Y-8967D01*
X57559Y-9118D01*
X57840Y-9226D01*
X57863Y-9226D01*
X57824Y-9320D01*
X57823Y-9575D01*
X57921Y-9811D01*
X58101Y-9991D01*
X58336Y-10089D01*
X58591Y-10089D01*
X58826Y-9992D01*
X59007Y-9812D01*
X59105Y-9576D01*
X59105Y-9321D01*
X59007Y-9086D01*
X58827Y-8906D01*
X58644Y-8830D01*
X58734Y-8596D01*
X58727Y-8317D01*
X62942Y-8317D01*
X62942Y-15110D01*
X62691Y-14504D01*
X62152Y-13963D01*
X61513Y-13698D01*
X61513Y-11158D01*
X61505Y-10851D01*
X61402Y-10601D01*
X61249Y-10580D01*
X61178Y-10651D01*
X61178Y-10510D01*
X61158Y-10357D01*
X60871Y-10246D01*
X60563Y-10253D01*
X60313Y-10357D01*
X60293Y-10510D01*
X60736Y-10952D01*
X61178Y-10510D01*
X61178Y-10651D01*
X60806Y-11023D01*
X61249Y-11466D01*
X61402Y-11445D01*
X61513Y-11158D01*
X61513Y-13698D01*
X61446Y-13670D01*
X61178Y-13670D01*
X61178Y-11537D01*
X60736Y-11094D01*
X60665Y-11165D01*
X60665Y-11023D01*
X60222Y-10580D01*
X60122Y-10594D01*
X60063Y-10534D01*
X59851Y-10446D01*
X59621Y-10446D01*
X59409Y-10534D01*
X59247Y-10696D01*
X59159Y-10908D01*
X59159Y-11137D01*
X59246Y-11349D01*
X59409Y-11512D01*
X59620Y-11600D01*
X59850Y-11600D01*
X60062Y-11512D01*
X60122Y-11452D01*
X60222Y-11466D01*
X60665Y-11023D01*
X60665Y-11165D01*
X60293Y-11537D01*
X60313Y-11689D01*
X60601Y-11800D01*
X60908Y-11793D01*
X61158Y-11689D01*
X61178Y-11537D01*
X61178Y-13670D01*
X60682Y-13670D01*
X59976Y-13961D01*
X59436Y-14501D01*
X59143Y-15206D01*
X59142Y-15970D01*
X59434Y-16676D01*
X59973Y-17217D01*
X60679Y-17510D01*
X61443Y-17510D01*
X62149Y-17219D01*
X62689Y-16679D01*
X62942Y-16071D01*
X62942Y-31002D01*
X62770Y-30587D01*
X62626Y-30442D01*
X62626Y-27081D01*
X62562Y-26926D01*
X62536Y-26900D01*
X62523Y-26836D01*
X62523Y-26836D01*
X62448Y-26724D01*
X62448Y-26724D01*
X62156Y-26431D01*
X62156Y-26181D01*
X62156Y-26012D01*
X62288Y-26012D01*
X62443Y-25948D01*
X62562Y-25829D01*
X62626Y-25674D01*
X62626Y-25507D01*
X62562Y-25351D01*
X62443Y-25233D01*
X62289Y-25168D01*
X62121Y-25168D01*
X62087Y-25182D01*
X61661Y-24755D01*
X61661Y-24755D01*
X57845Y-20939D01*
X57845Y-12787D01*
X57688Y-12407D01*
X57397Y-12115D01*
X57017Y-11958D01*
X56606Y-11957D01*
X56225Y-12114D01*
X55934Y-12405D01*
X55776Y-12785D01*
X55776Y-13196D01*
X55933Y-13577D01*
X56224Y-13868D01*
X56604Y-14026D01*
X57015Y-14026D01*
X57396Y-13869D01*
X57687Y-13578D01*
X57845Y-13198D01*
X57845Y-12787D01*
X57845Y-20939D01*
X55362Y-18456D01*
X55250Y-18381D01*
X55118Y-18355D01*
X54582Y-18355D01*
X54569Y-18343D01*
X54414Y-18279D01*
X54247Y-18278D01*
X54092Y-18342D01*
X53973Y-18461D01*
X53908Y-18616D01*
X53908Y-18784D01*
X53972Y-18939D01*
X54091Y-19058D01*
X54246Y-19122D01*
X54414Y-19122D01*
X54499Y-19087D01*
X54499Y-19178D01*
X54563Y-19333D01*
X54681Y-19451D01*
X54836Y-19516D01*
X54854Y-19516D01*
X59598Y-24259D01*
X59598Y-24259D01*
X60185Y-24847D01*
X60075Y-24957D01*
X60022Y-25085D01*
X58118Y-23181D01*
X58006Y-23106D01*
X57874Y-23079D01*
X55960Y-23079D01*
X55947Y-23067D01*
X55792Y-23003D01*
X55625Y-23003D01*
X55470Y-23067D01*
X55351Y-23185D01*
X55286Y-23340D01*
X55286Y-23508D01*
X55350Y-23663D01*
X55469Y-23782D01*
X55624Y-23846D01*
X55642Y-23846D01*
X55953Y-24158D01*
X55953Y-25053D01*
X54581Y-26426D01*
X53991Y-26426D01*
X53979Y-26414D01*
X53892Y-26377D01*
X53978Y-26342D01*
X54097Y-26223D01*
X54161Y-26068D01*
X54162Y-25900D01*
X54097Y-25745D01*
X53979Y-25626D01*
X53824Y-25562D01*
X53656Y-25562D01*
X53501Y-25626D01*
X53382Y-25744D01*
X53318Y-25899D01*
X53318Y-25917D01*
X53102Y-26133D01*
X53101Y-26135D01*
X53101Y-25787D01*
X53101Y-20669D01*
X53101Y-19685D01*
X53101Y-19542D01*
X53113Y-19530D01*
X53177Y-19375D01*
X53177Y-19207D01*
X53113Y-19052D01*
X52995Y-18933D01*
X52840Y-18869D01*
X52672Y-18869D01*
X52517Y-18933D01*
X52398Y-19052D01*
X52371Y-19117D01*
X52249Y-19066D01*
X52081Y-19066D01*
X51926Y-19130D01*
X51807Y-19248D01*
X51743Y-19403D01*
X51743Y-19571D01*
X51807Y-19726D01*
X51820Y-19739D01*
X51820Y-19881D01*
X51820Y-20416D01*
X51698Y-20365D01*
X51602Y-20365D01*
X51603Y-20310D01*
X51538Y-20155D01*
X51420Y-20036D01*
X51265Y-19971D01*
X51097Y-19971D01*
X50942Y-20035D01*
X50823Y-20154D01*
X50759Y-20309D01*
X50759Y-20477D01*
X50823Y-20632D01*
X50835Y-20644D01*
X50835Y-20984D01*
X50835Y-21377D01*
X50835Y-21456D01*
X50835Y-21814D01*
X50790Y-21768D01*
X50635Y-21704D01*
X50467Y-21704D01*
X50312Y-21768D01*
X50299Y-21780D01*
X45038Y-21780D01*
X45038Y-21131D01*
X45030Y-20836D01*
X44932Y-20599D01*
X44783Y-20582D01*
X44362Y-21003D01*
X44783Y-21424D01*
X44932Y-21408D01*
X45038Y-21131D01*
X45038Y-21780D01*
X44712Y-21780D01*
X44712Y-21495D01*
X44291Y-21074D01*
X44220Y-21145D01*
X44220Y-21003D01*
X43799Y-20582D01*
X43649Y-20599D01*
X43543Y-20875D01*
X43551Y-21171D01*
X43649Y-21408D01*
X43799Y-21424D01*
X44220Y-21003D01*
X44220Y-21145D01*
X43870Y-21495D01*
X43887Y-21645D01*
X44163Y-21751D01*
X44459Y-21743D01*
X44695Y-21645D01*
X44712Y-21495D01*
X44712Y-21780D01*
X43462Y-21780D01*
X43462Y-11537D01*
X43019Y-11094D01*
X42948Y-11165D01*
X42948Y-11023D01*
X42506Y-10580D01*
X42406Y-10594D01*
X42346Y-10534D01*
X42134Y-10446D01*
X41905Y-10446D01*
X41693Y-10534D01*
X41530Y-10696D01*
X41442Y-10908D01*
X41442Y-11137D01*
X41530Y-11349D01*
X41692Y-11512D01*
X41904Y-11600D01*
X42133Y-11600D01*
X42346Y-11512D01*
X42406Y-11452D01*
X42506Y-11466D01*
X42948Y-11023D01*
X42948Y-11165D01*
X42576Y-11537D01*
X42597Y-11689D01*
X42884Y-11800D01*
X43192Y-11793D01*
X43441Y-11689D01*
X43462Y-11537D01*
X43462Y-21780D01*
X43110Y-21780D01*
X43110Y-21780D01*
X43083Y-21785D01*
X42978Y-21806D01*
X42866Y-21881D01*
X42866Y-21881D01*
X40779Y-23968D01*
X40779Y-23968D01*
X40346Y-24401D01*
X40271Y-24513D01*
X40245Y-24645D01*
X40245Y-25339D01*
X40233Y-25351D01*
X40168Y-25506D01*
X40168Y-25674D01*
X40232Y-25829D01*
X40351Y-25947D01*
X40506Y-26012D01*
X40674Y-26012D01*
X40678Y-26010D01*
X40678Y-26628D01*
X40524Y-26782D01*
X40507Y-26782D01*
X40351Y-26846D01*
X40233Y-26965D01*
X40168Y-27120D01*
X40168Y-27288D01*
X40232Y-27443D01*
X40351Y-27562D01*
X40506Y-27626D01*
X40674Y-27626D01*
X40829Y-27562D01*
X40947Y-27443D01*
X41012Y-27289D01*
X41012Y-27271D01*
X41267Y-27015D01*
X41267Y-27015D01*
X41267Y-27015D01*
X41342Y-26903D01*
X41342Y-26903D01*
X41363Y-26797D01*
X41368Y-26771D01*
X41368Y-26771D01*
X41368Y-26771D01*
X41368Y-25196D01*
X41368Y-24906D01*
X43371Y-22904D01*
X43740Y-22904D01*
X49984Y-22904D01*
X49996Y-22916D01*
X50151Y-22980D01*
X50319Y-22980D01*
X50474Y-22916D01*
X50593Y-22798D01*
X50657Y-22643D01*
X50658Y-22538D01*
X50789Y-22483D01*
X50835Y-22437D01*
X50835Y-26126D01*
X50823Y-26138D01*
X50759Y-26293D01*
X50759Y-26461D01*
X50823Y-26616D01*
X50941Y-26735D01*
X51096Y-26799D01*
X51255Y-26799D01*
X51114Y-26940D01*
X51097Y-26940D01*
X50942Y-27004D01*
X50823Y-27122D01*
X50759Y-27277D01*
X50759Y-27445D01*
X50823Y-27600D01*
X50941Y-27719D01*
X51096Y-27783D01*
X51264Y-27784D01*
X51419Y-27720D01*
X51538Y-27601D01*
X51602Y-27446D01*
X51602Y-27428D01*
X51858Y-27173D01*
X51858Y-27173D01*
X51858Y-27173D01*
X51933Y-27061D01*
X51933Y-27061D01*
X51954Y-26955D01*
X51959Y-26929D01*
X51959Y-26929D01*
X51959Y-26929D01*
X51959Y-26749D01*
X52081Y-26799D01*
X52248Y-26799D01*
X52404Y-26735D01*
X52410Y-26729D01*
X52410Y-27051D01*
X52036Y-27549D01*
X51926Y-27594D01*
X51807Y-27713D01*
X51743Y-27868D01*
X51743Y-28036D01*
X51807Y-28191D01*
X51926Y-28310D01*
X52081Y-28374D01*
X52248Y-28374D01*
X52404Y-28310D01*
X52522Y-28192D01*
X52587Y-28037D01*
X52587Y-27965D01*
X53001Y-27414D01*
X53001Y-33858D01*
X53027Y-33990D01*
X53102Y-34102D01*
X53496Y-34496D01*
X53496Y-34496D01*
X53867Y-34867D01*
X53867Y-35581D01*
X53834Y-35567D01*
X53772Y-35567D01*
X50440Y-32236D01*
X50440Y-32236D01*
X49951Y-31746D01*
X49951Y-26377D01*
X49925Y-26245D01*
X49925Y-26245D01*
X49850Y-26133D01*
X49850Y-26133D01*
X49634Y-25917D01*
X49634Y-25900D01*
X49570Y-25745D01*
X49451Y-25626D01*
X49296Y-25562D01*
X49129Y-25562D01*
X48973Y-25626D01*
X48967Y-25633D01*
X48967Y-25000D01*
X48967Y-24158D01*
X49278Y-23847D01*
X49296Y-23847D01*
X49451Y-23783D01*
X49570Y-23664D01*
X49634Y-23509D01*
X49634Y-23341D01*
X49570Y-23186D01*
X49451Y-23067D01*
X49296Y-23003D01*
X49129Y-23003D01*
X48973Y-23067D01*
X48961Y-23079D01*
X44685Y-23079D01*
X44685Y-23079D01*
X44658Y-23085D01*
X44552Y-23106D01*
X44440Y-23181D01*
X44440Y-23181D01*
X44244Y-23377D01*
X44244Y-23377D01*
X44047Y-23574D01*
X44040Y-23584D01*
X44036Y-23587D01*
X42725Y-25028D01*
X42680Y-24918D01*
X42562Y-24800D01*
X42407Y-24735D01*
X42239Y-24735D01*
X42084Y-24799D01*
X41965Y-24918D01*
X41901Y-25073D01*
X41901Y-25090D01*
X41724Y-25267D01*
X41649Y-25379D01*
X41623Y-25511D01*
X41623Y-28976D01*
X41649Y-29108D01*
X41724Y-29220D01*
X46212Y-33708D01*
X46448Y-33944D01*
X47157Y-34653D01*
X47393Y-34889D01*
X47505Y-34964D01*
X47637Y-34990D01*
X49660Y-34990D01*
X50129Y-35460D01*
X50129Y-35627D01*
X50129Y-35629D01*
X50129Y-35686D01*
X50110Y-35705D01*
X50050Y-35562D01*
X49925Y-35437D01*
X49762Y-35370D01*
X49535Y-35370D01*
X49424Y-35481D01*
X49424Y-36064D01*
X49432Y-36064D01*
X49432Y-36164D01*
X49424Y-36164D01*
X49424Y-36746D01*
X49471Y-36793D01*
X49461Y-36804D01*
X49378Y-37004D01*
X49377Y-37222D01*
X49460Y-37423D01*
X49614Y-37577D01*
X49815Y-37660D01*
X50033Y-37661D01*
X50234Y-37578D01*
X50388Y-37424D01*
X50471Y-37223D01*
X50471Y-37005D01*
X50388Y-36804D01*
X50234Y-36650D01*
X50083Y-36587D01*
X50110Y-36522D01*
X50164Y-36577D01*
X50365Y-36660D01*
X50583Y-36661D01*
X50784Y-36578D01*
X50938Y-36424D01*
X51021Y-36223D01*
X51021Y-36005D01*
X50938Y-35804D01*
X50820Y-35686D01*
X50820Y-35629D01*
X50820Y-35627D01*
X50820Y-35560D01*
X51097Y-35837D01*
X51028Y-36004D01*
X51027Y-36222D01*
X51110Y-36423D01*
X51264Y-36577D01*
X51465Y-36660D01*
X51683Y-36661D01*
X51884Y-36578D01*
X52038Y-36424D01*
X52099Y-36275D01*
X52160Y-36423D01*
X52314Y-36577D01*
X52515Y-36660D01*
X52733Y-36661D01*
X52934Y-36578D01*
X53088Y-36424D01*
X53171Y-36223D01*
X53171Y-36005D01*
X53127Y-35899D01*
X53194Y-35965D01*
X53178Y-36004D01*
X53177Y-36222D01*
X53260Y-36423D01*
X53414Y-36577D01*
X53615Y-36660D01*
X53833Y-36661D01*
X53867Y-36646D01*
X53867Y-38213D01*
X53855Y-38225D01*
X53790Y-38380D01*
X53790Y-38548D01*
X53854Y-38703D01*
X53973Y-38821D01*
X54128Y-38886D01*
X54296Y-38886D01*
X54451Y-38822D01*
X54570Y-38703D01*
X54634Y-38548D01*
X54634Y-38453D01*
X54689Y-38453D01*
X54844Y-38389D01*
X54963Y-38270D01*
X55028Y-38115D01*
X55028Y-38099D01*
X55083Y-38099D01*
X55238Y-38035D01*
X55357Y-37916D01*
X55421Y-37761D01*
X55421Y-37593D01*
X55419Y-37587D01*
X55437Y-37587D01*
X55592Y-37523D01*
X55608Y-37507D01*
X55679Y-37678D01*
X55959Y-37958D01*
X56325Y-38110D01*
X56722Y-38111D01*
X57088Y-37959D01*
X57369Y-37679D01*
X57521Y-37313D01*
X57521Y-36916D01*
X57370Y-36550D01*
X57090Y-36269D01*
X56723Y-36117D01*
X56327Y-36117D01*
X55960Y-36268D01*
X55699Y-36529D01*
X55699Y-34763D01*
X55699Y-34276D01*
X61070Y-28905D01*
X61070Y-28905D01*
X61070Y-28905D01*
X61145Y-28793D01*
X61145Y-28793D01*
X61172Y-28661D01*
X61172Y-28425D01*
X61172Y-25833D01*
X61465Y-26127D01*
X61465Y-26181D01*
X61465Y-26574D01*
X61492Y-26706D01*
X61566Y-26818D01*
X61796Y-27048D01*
X61782Y-27081D01*
X61782Y-27248D01*
X61846Y-27404D01*
X61965Y-27522D01*
X62120Y-27587D01*
X62288Y-27587D01*
X62443Y-27523D01*
X62562Y-27404D01*
X62626Y-27249D01*
X62626Y-27081D01*
X62626Y-30442D01*
X62230Y-30046D01*
X61525Y-29753D01*
X60761Y-29752D01*
X60055Y-30044D01*
X59514Y-30584D01*
X59221Y-31289D01*
X59221Y-32053D01*
X59513Y-32759D01*
X60052Y-33300D01*
X60758Y-33592D01*
X61521Y-33593D01*
X62227Y-33301D01*
X62768Y-32762D01*
X62942Y-32344D01*
X62942Y-38926D01*
X62942Y-38926D01*
G37*
G54D26*
X62942Y-38926D02*
X60264Y-38926D01*
X60264Y-35743D01*
X60200Y-35588D01*
X60081Y-35469D01*
X59994Y-35433D01*
X60081Y-35397D01*
X60199Y-35278D01*
X60264Y-35123D01*
X60264Y-34955D01*
X60200Y-34800D01*
X60081Y-34681D01*
X59926Y-34617D01*
X59758Y-34617D01*
X59603Y-34681D01*
X59485Y-34800D01*
X59448Y-34887D01*
X59412Y-34800D01*
X59294Y-34681D01*
X59139Y-34617D01*
X58971Y-34617D01*
X58816Y-34681D01*
X58697Y-34800D01*
X58633Y-34955D01*
X58633Y-35122D01*
X58697Y-35278D01*
X58815Y-35396D01*
X58903Y-35433D01*
X58816Y-35468D01*
X58697Y-35587D01*
X58633Y-35742D01*
X58633Y-35910D01*
X58697Y-36065D01*
X58815Y-36184D01*
X58970Y-36248D01*
X59138Y-36248D01*
X59293Y-36184D01*
X59306Y-36172D01*
X59591Y-36172D01*
X59603Y-36184D01*
X59758Y-36248D01*
X59926Y-36248D01*
X60081Y-36184D01*
X60199Y-36066D01*
X60264Y-35911D01*
X60264Y-35743D01*
X60264Y-38926D01*
X53721Y-38926D01*
X53721Y-37005D01*
X53638Y-36804D01*
X53484Y-36650D01*
X53284Y-36567D01*
X53066Y-36567D01*
X52865Y-36650D01*
X52711Y-36804D01*
X52628Y-37004D01*
X52627Y-37222D01*
X52710Y-37423D01*
X52864Y-37577D01*
X53065Y-37660D01*
X53283Y-37661D01*
X53484Y-37578D01*
X53638Y-37424D01*
X53721Y-37223D01*
X53721Y-37005D01*
X53721Y-38926D01*
X52621Y-38926D01*
X52621Y-37005D01*
X52538Y-36804D01*
X52384Y-36650D01*
X52184Y-36567D01*
X51966Y-36567D01*
X51765Y-36650D01*
X51611Y-36804D01*
X51549Y-36952D01*
X51488Y-36804D01*
X51334Y-36650D01*
X51134Y-36567D01*
X50916Y-36567D01*
X50715Y-36650D01*
X50561Y-36804D01*
X50478Y-37004D01*
X50477Y-37222D01*
X50560Y-37423D01*
X50714Y-37577D01*
X50915Y-37660D01*
X51133Y-37661D01*
X51334Y-37578D01*
X51488Y-37424D01*
X51549Y-37275D01*
X51610Y-37423D01*
X51764Y-37577D01*
X51965Y-37660D01*
X52183Y-37661D01*
X52384Y-37578D01*
X52538Y-37424D01*
X52621Y-37223D01*
X52621Y-37005D01*
X52621Y-38926D01*
X49324Y-38926D01*
X49324Y-36746D01*
X49324Y-36164D01*
X49324Y-36064D01*
X49324Y-35481D01*
X49213Y-35370D01*
X48986Y-35370D01*
X48823Y-35437D01*
X48698Y-35562D01*
X48631Y-35725D01*
X48631Y-35902D01*
X48631Y-35953D01*
X48742Y-36064D01*
X49324Y-36064D01*
X49324Y-36164D01*
X48742Y-36164D01*
X48631Y-36275D01*
X48631Y-36326D01*
X48631Y-36502D01*
X48698Y-36665D01*
X48823Y-36790D01*
X48986Y-36857D01*
X49213Y-36857D01*
X49324Y-36746D01*
X49324Y-38926D01*
X47521Y-38926D01*
X47521Y-36916D01*
X47370Y-36550D01*
X47090Y-36269D01*
X46723Y-36117D01*
X46327Y-36117D01*
X45960Y-36268D01*
X45680Y-36548D01*
X45528Y-36915D01*
X45527Y-37311D01*
X45679Y-37678D01*
X45959Y-37958D01*
X46325Y-38110D01*
X46722Y-38111D01*
X47088Y-37959D01*
X47369Y-37679D01*
X47521Y-37313D01*
X47521Y-36916D01*
X47521Y-38926D01*
X39813Y-38926D01*
X39813Y-32725D01*
X39827Y-32759D01*
X40367Y-33300D01*
X41073Y-33592D01*
X41836Y-33593D01*
X42542Y-33301D01*
X43083Y-32762D01*
X43376Y-32056D01*
X43377Y-31292D01*
X43085Y-30587D01*
X42545Y-30046D01*
X41840Y-29753D01*
X41076Y-29752D01*
X40370Y-30044D01*
X39829Y-30584D01*
X39813Y-30622D01*
X39813Y-16622D01*
X39827Y-16657D01*
X40367Y-17197D01*
X41073Y-17490D01*
X41836Y-17491D01*
X42542Y-17199D01*
X43083Y-16659D01*
X43376Y-15954D01*
X43377Y-15190D01*
X43085Y-14484D01*
X42545Y-13944D01*
X41840Y-13651D01*
X41076Y-13650D01*
X40370Y-13942D01*
X39829Y-14481D01*
X39813Y-14520D01*
X39813Y-8317D01*
X52414Y-8317D01*
X49796Y-10935D01*
X49796Y-10616D01*
X49792Y-10228D01*
X49651Y-9889D01*
X49478Y-9844D01*
X49407Y-9915D01*
X49407Y-9774D01*
X49362Y-9600D01*
X49002Y-9455D01*
X48614Y-9460D01*
X48275Y-9600D01*
X48230Y-9774D01*
X48819Y-10362D01*
X49407Y-9774D01*
X49407Y-9915D01*
X48889Y-10433D01*
X49478Y-11021D01*
X49651Y-10976D01*
X49796Y-10616D01*
X49796Y-10935D01*
X49755Y-10976D01*
X49681Y-11088D01*
X49654Y-11220D01*
X49654Y-14709D01*
X49642Y-14721D01*
X49604Y-14812D01*
X49407Y-14812D01*
X49407Y-11092D01*
X48819Y-10503D01*
X48748Y-10574D01*
X48748Y-10433D01*
X48160Y-9844D01*
X47986Y-9889D01*
X47841Y-10249D01*
X47846Y-10637D01*
X47986Y-10976D01*
X48160Y-11021D01*
X48748Y-10433D01*
X48748Y-10574D01*
X48230Y-11092D01*
X48275Y-11265D01*
X48635Y-11410D01*
X49023Y-11406D01*
X49362Y-11265D01*
X49407Y-11092D01*
X49407Y-14812D01*
X49237Y-14812D01*
X48376Y-13951D01*
X48376Y-11968D01*
X48373Y-11950D01*
X48375Y-11928D01*
X48358Y-11878D01*
X48350Y-11836D01*
X48340Y-11821D01*
X48333Y-11800D01*
X48298Y-11759D01*
X48275Y-11724D01*
X48261Y-11714D01*
X48246Y-11697D01*
X46506Y-10313D01*
X46506Y-10221D01*
X46465Y-10014D01*
X46347Y-9838D01*
X46172Y-9720D01*
X45964Y-9679D01*
X45916Y-9689D01*
X45916Y-8928D01*
X45818Y-8692D01*
X45638Y-8512D01*
X45403Y-8414D01*
X45148Y-8414D01*
X44913Y-8511D01*
X44732Y-8691D01*
X44635Y-8927D01*
X44634Y-9181D01*
X44732Y-9417D01*
X44912Y-9597D01*
X45147Y-9695D01*
X45402Y-9695D01*
X45637Y-9598D01*
X45818Y-9418D01*
X45916Y-9183D01*
X45916Y-8928D01*
X45916Y-9689D01*
X45757Y-9720D01*
X45581Y-9838D01*
X45463Y-10014D01*
X45422Y-10221D01*
X45422Y-10644D01*
X45463Y-10851D01*
X45479Y-10875D01*
X45325Y-10875D01*
X45325Y-11564D01*
X46098Y-11564D01*
X46192Y-11449D01*
X46174Y-11377D01*
X46054Y-11168D01*
X46172Y-11145D01*
X46319Y-11046D01*
X47686Y-12134D01*
X47686Y-14094D01*
X47712Y-14226D01*
X47787Y-14338D01*
X48654Y-15205D01*
X47874Y-15205D01*
X46402Y-15205D01*
X44715Y-13518D01*
X44715Y-12251D01*
X44749Y-12277D01*
X44977Y-12339D01*
X44911Y-12405D01*
X44753Y-12785D01*
X44752Y-13196D01*
X44910Y-13577D01*
X45200Y-13868D01*
X45580Y-14026D01*
X45992Y-14026D01*
X46372Y-13869D01*
X46663Y-13578D01*
X46821Y-13198D01*
X46821Y-12787D01*
X46664Y-12407D01*
X46374Y-12115D01*
X46089Y-11997D01*
X46174Y-11850D01*
X46192Y-11778D01*
X46098Y-11664D01*
X45325Y-11664D01*
X45325Y-11672D01*
X45225Y-11672D01*
X45225Y-11664D01*
X45217Y-11664D01*
X45217Y-11564D01*
X45225Y-11564D01*
X45225Y-10875D01*
X45071Y-10875D01*
X45087Y-10851D01*
X45128Y-10644D01*
X45128Y-10221D01*
X45087Y-10014D01*
X44969Y-9838D01*
X44794Y-9720D01*
X44586Y-9679D01*
X44379Y-9720D01*
X44203Y-9838D01*
X44085Y-10014D01*
X44044Y-10221D01*
X44044Y-10550D01*
X44024Y-10649D01*
X44024Y-11614D01*
X44024Y-13661D01*
X44051Y-13793D01*
X44125Y-13905D01*
X46015Y-15795D01*
X46127Y-15870D01*
X46259Y-15896D01*
X47874Y-15896D01*
X48818Y-15896D01*
X48976Y-15896D01*
X49266Y-15896D01*
X49359Y-15989D01*
X49355Y-15993D01*
X44838Y-15993D01*
X44838Y-15655D01*
X44800Y-15564D01*
X44731Y-15494D01*
X44640Y-15457D01*
X44542Y-15457D01*
X43942Y-15457D01*
X43851Y-15494D01*
X43796Y-15549D01*
X43796Y-11158D01*
X43789Y-10851D01*
X43685Y-10601D01*
X43533Y-10580D01*
X43462Y-10651D01*
X43462Y-10510D01*
X43441Y-10357D01*
X43154Y-10246D01*
X42847Y-10253D01*
X42597Y-10357D01*
X42576Y-10510D01*
X43019Y-10952D01*
X43462Y-10510D01*
X43462Y-10651D01*
X43090Y-11023D01*
X43533Y-11466D01*
X43685Y-11445D01*
X43796Y-11158D01*
X43796Y-15549D01*
X43782Y-15563D01*
X43744Y-15654D01*
X43744Y-15752D01*
X43744Y-16352D01*
X43781Y-16443D01*
X43851Y-16513D01*
X43942Y-16550D01*
X43971Y-16550D01*
X43828Y-16693D01*
X43744Y-16894D01*
X43744Y-17112D01*
X43827Y-17313D01*
X43981Y-17467D01*
X44069Y-17503D01*
X43981Y-17540D01*
X43828Y-17693D01*
X43744Y-17894D01*
X43744Y-18112D01*
X43827Y-18313D01*
X43981Y-18467D01*
X44069Y-18503D01*
X43981Y-18540D01*
X43828Y-18693D01*
X43744Y-18894D01*
X43744Y-19112D01*
X43827Y-19313D01*
X43981Y-19467D01*
X44069Y-19503D01*
X43981Y-19540D01*
X43828Y-19693D01*
X43744Y-19894D01*
X43744Y-20112D01*
X43827Y-20313D01*
X43885Y-20371D01*
X43870Y-20512D01*
X44291Y-20933D01*
X44712Y-20512D01*
X44696Y-20371D01*
X44719Y-20349D01*
X46381Y-20349D01*
X46514Y-20322D01*
X46626Y-20248D01*
X46762Y-20111D01*
X46797Y-20195D01*
X46945Y-20344D01*
X47138Y-20424D01*
X47348Y-20424D01*
X47542Y-20344D01*
X47690Y-20196D01*
X47770Y-20002D01*
X47771Y-19793D01*
X47690Y-19599D01*
X47542Y-19451D01*
X47458Y-19416D01*
X47990Y-18884D01*
X48012Y-18917D01*
X48111Y-18983D01*
X48228Y-19006D01*
X48345Y-18983D01*
X48444Y-18917D01*
X48484Y-18877D01*
X48550Y-18778D01*
X48573Y-18661D01*
X48550Y-18544D01*
X48522Y-18502D01*
X49401Y-18502D01*
X49533Y-18476D01*
X49568Y-18453D01*
X49611Y-18453D01*
X49766Y-18389D01*
X49884Y-18270D01*
X49923Y-18177D01*
X49965Y-18177D01*
X50120Y-18113D01*
X50239Y-17995D01*
X50245Y-17980D01*
X50319Y-17980D01*
X50442Y-17930D01*
X50442Y-18557D01*
X49484Y-19514D01*
X49367Y-19563D01*
X49248Y-19681D01*
X49184Y-19836D01*
X49184Y-20004D01*
X49248Y-20159D01*
X49367Y-20278D01*
X49506Y-20336D01*
X49563Y-20474D01*
X49681Y-20593D01*
X49836Y-20657D01*
X50004Y-20658D01*
X50159Y-20594D01*
X50278Y-20475D01*
X50343Y-20320D01*
X50343Y-20302D01*
X51444Y-19200D01*
X51519Y-19088D01*
X51546Y-18956D01*
X51546Y-16712D01*
X51519Y-16580D01*
X51519Y-16580D01*
X51444Y-16468D01*
X51444Y-16468D01*
X50926Y-15950D01*
X51026Y-15909D01*
X51038Y-15896D01*
X53291Y-15896D01*
X53304Y-15908D01*
X53459Y-15972D01*
X53626Y-15973D01*
X53781Y-15909D01*
X53794Y-15896D01*
X55850Y-15896D01*
X55863Y-15908D01*
X56018Y-15972D01*
X56185Y-15973D01*
X56341Y-15909D01*
X56459Y-15790D01*
X56524Y-15635D01*
X56524Y-15467D01*
X56460Y-15312D01*
X56341Y-15193D01*
X56186Y-15129D01*
X56018Y-15129D01*
X55863Y-15193D01*
X55851Y-15205D01*
X54520Y-15205D01*
X54520Y-10616D01*
X54516Y-10228D01*
X54375Y-9889D01*
X54202Y-9844D01*
X54131Y-9915D01*
X54131Y-9774D01*
X54086Y-9600D01*
X53726Y-9455D01*
X53338Y-9460D01*
X52999Y-9600D01*
X52954Y-9774D01*
X53543Y-10362D01*
X54131Y-9774D01*
X54131Y-9915D01*
X53613Y-10433D01*
X54202Y-11021D01*
X54375Y-10976D01*
X54520Y-10616D01*
X54520Y-15205D01*
X54131Y-15205D01*
X54131Y-11092D01*
X53543Y-10503D01*
X53472Y-10574D01*
X53472Y-10433D01*
X52884Y-9844D01*
X52710Y-9889D01*
X52565Y-10249D01*
X52570Y-10637D01*
X52710Y-10976D01*
X52884Y-11021D01*
X53472Y-10433D01*
X53472Y-10574D01*
X52954Y-11092D01*
X52999Y-11265D01*
X53359Y-11410D01*
X53747Y-11406D01*
X54086Y-11265D01*
X54131Y-11092D01*
X54131Y-15205D01*
X53794Y-15205D01*
X53782Y-15193D01*
X53627Y-15129D01*
X53459Y-15129D01*
X53304Y-15193D01*
X53292Y-15205D01*
X51132Y-15205D01*
X51132Y-12604D01*
X51144Y-12593D01*
X51181Y-12504D01*
X51217Y-12592D01*
X51370Y-12746D01*
X51571Y-12829D01*
X51789Y-12830D01*
X51990Y-12746D01*
X52144Y-12593D01*
X52227Y-12392D01*
X52228Y-12174D01*
X52144Y-11973D01*
X52060Y-11889D01*
X52144Y-11806D01*
X52227Y-11605D01*
X52228Y-11387D01*
X52144Y-11186D01*
X51991Y-11032D01*
X51790Y-10949D01*
X51572Y-10949D01*
X51371Y-11032D01*
X51313Y-11090D01*
X51172Y-11075D01*
X50751Y-11496D01*
X50757Y-11501D01*
X50686Y-11572D01*
X50681Y-11566D01*
X50675Y-11572D01*
X50604Y-11501D01*
X50610Y-11496D01*
X50604Y-11490D01*
X50675Y-11419D01*
X50681Y-11425D01*
X51102Y-11004D01*
X51085Y-10854D01*
X50918Y-10790D01*
X52898Y-8809D01*
X55577Y-8809D01*
X55346Y-8905D01*
X55165Y-9085D01*
X55068Y-9320D01*
X55067Y-9575D01*
X55165Y-9811D01*
X55345Y-9991D01*
X55580Y-10089D01*
X55835Y-10089D01*
X56071Y-9992D01*
X56251Y-9812D01*
X56349Y-9576D01*
X56349Y-9321D01*
X56252Y-9086D01*
X56192Y-9026D01*
X56312Y-9026D01*
X56518Y-8941D01*
X56676Y-8783D01*
X56762Y-8576D01*
X56762Y-8353D01*
X56747Y-8317D01*
X57216Y-8317D01*
X57210Y-8332D01*
X57217Y-8634D01*
X57318Y-8877D01*
X57469Y-8896D01*
X57901Y-8464D01*
X57896Y-8458D01*
X57966Y-8388D01*
X57972Y-8393D01*
X57978Y-8388D01*
X58048Y-8458D01*
X58043Y-8464D01*
X58048Y-8470D01*
X57978Y-8540D01*
X57972Y-8535D01*
X57540Y-8967D01*
X57559Y-9118D01*
X57840Y-9226D01*
X57863Y-9226D01*
X57824Y-9320D01*
X57823Y-9575D01*
X57921Y-9811D01*
X58101Y-9991D01*
X58336Y-10089D01*
X58591Y-10089D01*
X58826Y-9992D01*
X59007Y-9812D01*
X59105Y-9576D01*
X59105Y-9321D01*
X59007Y-9086D01*
X58827Y-8906D01*
X58644Y-8830D01*
X58734Y-8596D01*
X58727Y-8317D01*
X62942Y-8317D01*
X62942Y-15110D01*
X62691Y-14504D01*
X62152Y-13963D01*
X61513Y-13698D01*
X61513Y-11158D01*
X61505Y-10851D01*
X61402Y-10601D01*
X61249Y-10580D01*
X61178Y-10651D01*
X61178Y-10510D01*
X61158Y-10357D01*
X60871Y-10246D01*
X60563Y-10253D01*
X60313Y-10357D01*
X60293Y-10510D01*
X60736Y-10952D01*
X61178Y-10510D01*
X61178Y-10651D01*
X60806Y-11023D01*
X61249Y-11466D01*
X61402Y-11445D01*
X61513Y-11158D01*
X61513Y-13698D01*
X61446Y-13670D01*
X61178Y-13670D01*
X61178Y-11537D01*
X60736Y-11094D01*
X60665Y-11165D01*
X60665Y-11023D01*
X60222Y-10580D01*
X60122Y-10594D01*
X60063Y-10534D01*
X59851Y-10446D01*
X59621Y-10446D01*
X59409Y-10534D01*
X59247Y-10696D01*
X59159Y-10908D01*
X59159Y-11137D01*
X59246Y-11349D01*
X59409Y-11512D01*
X59620Y-11600D01*
X59850Y-11600D01*
X60062Y-11512D01*
X60122Y-11452D01*
X60222Y-11466D01*
X60665Y-11023D01*
X60665Y-11165D01*
X60293Y-11537D01*
X60313Y-11689D01*
X60601Y-11800D01*
X60908Y-11793D01*
X61158Y-11689D01*
X61178Y-11537D01*
X61178Y-13670D01*
X60682Y-13670D01*
X59976Y-13961D01*
X59436Y-14501D01*
X59143Y-15206D01*
X59142Y-15970D01*
X59434Y-16676D01*
X59973Y-17217D01*
X60679Y-17510D01*
X61443Y-17510D01*
X62149Y-17219D01*
X62689Y-16679D01*
X62942Y-16071D01*
X62942Y-31002D01*
X62770Y-30587D01*
X62626Y-30442D01*
X62626Y-27081D01*
X62562Y-26926D01*
X62536Y-26900D01*
X62523Y-26836D01*
X62523Y-26836D01*
X62448Y-26724D01*
X62448Y-26724D01*
X62156Y-26431D01*
X62156Y-26181D01*
X62156Y-26012D01*
X62288Y-26012D01*
X62443Y-25948D01*
X62562Y-25829D01*
X62626Y-25674D01*
X62626Y-25507D01*
X62562Y-25351D01*
X62443Y-25233D01*
X62289Y-25168D01*
X62121Y-25168D01*
X62087Y-25182D01*
X61661Y-24755D01*
X61661Y-24755D01*
X57845Y-20939D01*
X57845Y-12787D01*
X57688Y-12407D01*
X57397Y-12115D01*
X57017Y-11958D01*
X56606Y-11957D01*
X56225Y-12114D01*
X55934Y-12405D01*
X55776Y-12785D01*
X55776Y-13196D01*
X55933Y-13577D01*
X56224Y-13868D01*
X56604Y-14026D01*
X57015Y-14026D01*
X57396Y-13869D01*
X57687Y-13578D01*
X57845Y-13198D01*
X57845Y-12787D01*
X57845Y-20939D01*
X55362Y-18456D01*
X55250Y-18381D01*
X55118Y-18355D01*
X54582Y-18355D01*
X54569Y-18343D01*
X54414Y-18279D01*
X54247Y-18278D01*
X54092Y-18342D01*
X53973Y-18461D01*
X53908Y-18616D01*
X53908Y-18784D01*
X53972Y-18939D01*
X54091Y-19058D01*
X54246Y-19122D01*
X54414Y-19122D01*
X54499Y-19087D01*
X54499Y-19178D01*
X54563Y-19333D01*
X54681Y-19451D01*
X54836Y-19516D01*
X54854Y-19516D01*
X59598Y-24259D01*
X59598Y-24259D01*
X60185Y-24847D01*
X60075Y-24957D01*
X60022Y-25085D01*
X58118Y-23181D01*
X58006Y-23106D01*
X57874Y-23079D01*
X55960Y-23079D01*
X55947Y-23067D01*
X55792Y-23003D01*
X55625Y-23003D01*
X55470Y-23067D01*
X55351Y-23185D01*
X55286Y-23340D01*
X55286Y-23508D01*
X55350Y-23663D01*
X55469Y-23782D01*
X55624Y-23846D01*
X55642Y-23846D01*
X55953Y-24158D01*
X55953Y-25053D01*
X54581Y-26426D01*
X53991Y-26426D01*
X53979Y-26414D01*
X53892Y-26377D01*
X53978Y-26342D01*
X54097Y-26223D01*
X54161Y-26068D01*
X54162Y-25900D01*
X54097Y-25745D01*
X53979Y-25626D01*
X53824Y-25562D01*
X53656Y-25562D01*
X53501Y-25626D01*
X53382Y-25744D01*
X53318Y-25899D01*
X53318Y-25917D01*
X53102Y-26133D01*
X53101Y-26135D01*
X53101Y-25787D01*
X53101Y-20669D01*
X53101Y-19685D01*
X53101Y-19542D01*
X53113Y-19530D01*
X53177Y-19375D01*
X53177Y-19207D01*
X53113Y-19052D01*
X52995Y-18933D01*
X52840Y-18869D01*
X52672Y-18869D01*
X52517Y-18933D01*
X52398Y-19052D01*
X52371Y-19117D01*
X52249Y-19066D01*
X52081Y-19066D01*
X51926Y-19130D01*
X51807Y-19248D01*
X51743Y-19403D01*
X51743Y-19571D01*
X51807Y-19726D01*
X51820Y-19739D01*
X51820Y-19881D01*
X51820Y-20416D01*
X51698Y-20365D01*
X51602Y-20365D01*
X51603Y-20310D01*
X51538Y-20155D01*
X51420Y-20036D01*
X51265Y-19971D01*
X51097Y-19971D01*
X50942Y-20035D01*
X50823Y-20154D01*
X50759Y-20309D01*
X50759Y-20477D01*
X50823Y-20632D01*
X50835Y-20644D01*
X50835Y-20984D01*
X50835Y-21377D01*
X50835Y-21456D01*
X50835Y-21814D01*
X50790Y-21768D01*
X50635Y-21704D01*
X50467Y-21704D01*
X50312Y-21768D01*
X50299Y-21780D01*
X45038Y-21780D01*
X45038Y-21131D01*
X45030Y-20836D01*
X44932Y-20599D01*
X44783Y-20582D01*
X44362Y-21003D01*
X44783Y-21424D01*
X44932Y-21408D01*
X45038Y-21131D01*
X45038Y-21780D01*
X44712Y-21780D01*
X44712Y-21495D01*
X44291Y-21074D01*
X44220Y-21145D01*
X44220Y-21003D01*
X43799Y-20582D01*
X43649Y-20599D01*
X43543Y-20875D01*
X43551Y-21171D01*
X43649Y-21408D01*
X43799Y-21424D01*
X44220Y-21003D01*
X44220Y-21145D01*
X43870Y-21495D01*
X43887Y-21645D01*
X44163Y-21751D01*
X44459Y-21743D01*
X44695Y-21645D01*
X44712Y-21495D01*
X44712Y-21780D01*
X43462Y-21780D01*
X43462Y-11537D01*
X43019Y-11094D01*
X42948Y-11165D01*
X42948Y-11023D01*
X42506Y-10580D01*
X42406Y-10594D01*
X42346Y-10534D01*
X42134Y-10446D01*
X41905Y-10446D01*
X41693Y-10534D01*
X41530Y-10696D01*
X41442Y-10908D01*
X41442Y-11137D01*
X41530Y-11349D01*
X41692Y-11512D01*
X41904Y-11600D01*
X42133Y-11600D01*
X42346Y-11512D01*
X42406Y-11452D01*
X42506Y-11466D01*
X42948Y-11023D01*
X42948Y-11165D01*
X42576Y-11537D01*
X42597Y-11689D01*
X42884Y-11800D01*
X43192Y-11793D01*
X43441Y-11689D01*
X43462Y-11537D01*
X43462Y-21780D01*
X43110Y-21780D01*
X43110Y-21780D01*
X43083Y-21785D01*
X42978Y-21806D01*
X42866Y-21881D01*
X42866Y-21881D01*
X40779Y-23968D01*
X40779Y-23968D01*
X40346Y-24401D01*
X40271Y-24513D01*
X40245Y-24645D01*
X40245Y-25339D01*
X40233Y-25351D01*
X40168Y-25506D01*
X40168Y-25674D01*
X40232Y-25829D01*
X40351Y-25947D01*
X40506Y-26012D01*
X40674Y-26012D01*
X40678Y-26010D01*
X40678Y-26628D01*
X40524Y-26782D01*
X40507Y-26782D01*
X40351Y-26846D01*
X40233Y-26965D01*
X40168Y-27120D01*
X40168Y-27288D01*
X40232Y-27443D01*
X40351Y-27562D01*
X40506Y-27626D01*
X40674Y-27626D01*
X40829Y-27562D01*
X40947Y-27443D01*
X41012Y-27289D01*
X41012Y-27271D01*
X41267Y-27015D01*
X41267Y-27015D01*
X41267Y-27015D01*
X41342Y-26903D01*
X41342Y-26903D01*
X41363Y-26797D01*
X41368Y-26771D01*
X41368Y-26771D01*
X41368Y-26771D01*
X41368Y-25196D01*
X41368Y-24906D01*
X43371Y-22904D01*
X43740Y-22904D01*
X49984Y-22904D01*
X49996Y-22916D01*
X50151Y-22980D01*
X50319Y-22980D01*
X50474Y-22916D01*
X50593Y-22798D01*
X50657Y-22643D01*
X50658Y-22538D01*
X50789Y-22483D01*
X50835Y-22437D01*
X50835Y-26126D01*
X50823Y-26138D01*
X50759Y-26293D01*
X50759Y-26461D01*
X50823Y-26616D01*
X50941Y-26735D01*
X51096Y-26799D01*
X51255Y-26799D01*
X51114Y-26940D01*
X51097Y-26940D01*
X50942Y-27004D01*
X50823Y-27122D01*
X50759Y-27277D01*
X50759Y-27445D01*
X50823Y-27600D01*
X50941Y-27719D01*
X51096Y-27783D01*
X51264Y-27784D01*
X51419Y-27720D01*
X51538Y-27601D01*
X51602Y-27446D01*
X51602Y-27428D01*
X51858Y-27173D01*
X51858Y-27173D01*
X51858Y-27173D01*
X51933Y-27061D01*
X51933Y-27061D01*
X51954Y-26955D01*
X51959Y-26929D01*
X51959Y-26929D01*
X51959Y-26929D01*
X51959Y-26749D01*
X52081Y-26799D01*
X52248Y-26799D01*
X52404Y-26735D01*
X52410Y-26729D01*
X52410Y-27051D01*
X52036Y-27549D01*
X51926Y-27594D01*
X51807Y-27713D01*
X51743Y-27868D01*
X51743Y-28036D01*
X51807Y-28191D01*
X51926Y-28310D01*
X52081Y-28374D01*
X52248Y-28374D01*
X52404Y-28310D01*
X52522Y-28192D01*
X52587Y-28037D01*
X52587Y-27965D01*
X53001Y-27414D01*
X53001Y-33858D01*
X53027Y-33990D01*
X53102Y-34102D01*
X53496Y-34496D01*
X53496Y-34496D01*
X53867Y-34867D01*
X53867Y-35581D01*
X53834Y-35567D01*
X53772Y-35567D01*
X50440Y-32236D01*
X50440Y-32236D01*
X49951Y-31746D01*
X49951Y-26377D01*
X49925Y-26245D01*
X49925Y-26245D01*
X49850Y-26133D01*
X49850Y-26133D01*
X49634Y-25917D01*
X49634Y-25900D01*
X49570Y-25745D01*
X49451Y-25626D01*
X49296Y-25562D01*
X49129Y-25562D01*
X48973Y-25626D01*
X48967Y-25633D01*
X48967Y-25000D01*
X48967Y-24158D01*
X49278Y-23847D01*
X49296Y-23847D01*
X49451Y-23783D01*
X49570Y-23664D01*
X49634Y-23509D01*
X49634Y-23341D01*
X49570Y-23186D01*
X49451Y-23067D01*
X49296Y-23003D01*
X49129Y-23003D01*
X48973Y-23067D01*
X48961Y-23079D01*
X44685Y-23079D01*
X44685Y-23079D01*
X44658Y-23085D01*
X44552Y-23106D01*
X44440Y-23181D01*
X44440Y-23181D01*
X44244Y-23377D01*
X44244Y-23377D01*
X44047Y-23574D01*
X44040Y-23584D01*
X44036Y-23587D01*
X42725Y-25028D01*
X42680Y-24918D01*
X42562Y-24800D01*
X42407Y-24735D01*
X42239Y-24735D01*
X42084Y-24799D01*
X41965Y-24918D01*
X41901Y-25073D01*
X41901Y-25090D01*
X41724Y-25267D01*
X41649Y-25379D01*
X41623Y-25511D01*
X41623Y-28976D01*
X41649Y-29108D01*
X41724Y-29220D01*
X46212Y-33708D01*
X46448Y-33944D01*
X47157Y-34653D01*
X47393Y-34889D01*
X47505Y-34964D01*
X47637Y-34990D01*
X49660Y-34990D01*
X50129Y-35460D01*
X50129Y-35627D01*
X50129Y-35629D01*
X50129Y-35686D01*
X50110Y-35705D01*
X50050Y-35562D01*
X49925Y-35437D01*
X49762Y-35370D01*
X49535Y-35370D01*
X49424Y-35481D01*
X49424Y-36064D01*
X49432Y-36064D01*
X49432Y-36164D01*
X49424Y-36164D01*
X49424Y-36746D01*
X49471Y-36793D01*
X49461Y-36804D01*
X49378Y-37004D01*
X49377Y-37222D01*
X49460Y-37423D01*
X49614Y-37577D01*
X49815Y-37660D01*
X50033Y-37661D01*
X50234Y-37578D01*
X50388Y-37424D01*
X50471Y-37223D01*
X50471Y-37005D01*
X50388Y-36804D01*
X50234Y-36650D01*
X50083Y-36587D01*
X50110Y-36522D01*
X50164Y-36577D01*
X50365Y-36660D01*
X50583Y-36661D01*
X50784Y-36578D01*
X50938Y-36424D01*
X51021Y-36223D01*
X51021Y-36005D01*
X50938Y-35804D01*
X50820Y-35686D01*
X50820Y-35629D01*
X50820Y-35627D01*
X50820Y-35560D01*
X51097Y-35837D01*
X51028Y-36004D01*
X51027Y-36222D01*
X51110Y-36423D01*
X51264Y-36577D01*
X51465Y-36660D01*
X51683Y-36661D01*
X51884Y-36578D01*
X52038Y-36424D01*
X52099Y-36275D01*
X52160Y-36423D01*
X52314Y-36577D01*
X52515Y-36660D01*
X52733Y-36661D01*
X52934Y-36578D01*
X53088Y-36424D01*
X53171Y-36223D01*
X53171Y-36005D01*
X53127Y-35899D01*
X53194Y-35965D01*
X53178Y-36004D01*
X53177Y-36222D01*
X53260Y-36423D01*
X53414Y-36577D01*
X53615Y-36660D01*
X53833Y-36661D01*
X53867Y-36646D01*
X53867Y-38213D01*
X53855Y-38225D01*
X53790Y-38380D01*
X53790Y-38548D01*
X53854Y-38703D01*
X53973Y-38821D01*
X54128Y-38886D01*
X54296Y-38886D01*
X54451Y-38822D01*
X54570Y-38703D01*
X54634Y-38548D01*
X54634Y-38453D01*
X54689Y-38453D01*
X54844Y-38389D01*
X54963Y-38270D01*
X55028Y-38115D01*
X55028Y-38099D01*
X55083Y-38099D01*
X55238Y-38035D01*
X55357Y-37916D01*
X55421Y-37761D01*
X55421Y-37593D01*
X55419Y-37587D01*
X55437Y-37587D01*
X55592Y-37523D01*
X55608Y-37507D01*
X55679Y-37678D01*
X55959Y-37958D01*
X56325Y-38110D01*
X56722Y-38111D01*
X57088Y-37959D01*
X57369Y-37679D01*
X57521Y-37313D01*
X57521Y-36916D01*
X57370Y-36550D01*
X57090Y-36269D01*
X56723Y-36117D01*
X56327Y-36117D01*
X55960Y-36268D01*
X55699Y-36529D01*
X55699Y-34763D01*
X55699Y-34276D01*
X61070Y-28905D01*
X61070Y-28905D01*
X61070Y-28905D01*
X61145Y-28793D01*
X61145Y-28793D01*
X61172Y-28661D01*
X61172Y-28425D01*
X61172Y-25833D01*
X61465Y-26127D01*
X61465Y-26181D01*
X61465Y-26574D01*
X61492Y-26706D01*
X61566Y-26818D01*
X61796Y-27048D01*
X61782Y-27081D01*
X61782Y-27248D01*
X61846Y-27404D01*
X61965Y-27522D01*
X62120Y-27587D01*
X62288Y-27587D01*
X62443Y-27523D01*
X62562Y-27404D01*
X62626Y-27249D01*
X62626Y-27081D01*
X62626Y-30442D01*
X62230Y-30046D01*
X61525Y-29753D01*
X60761Y-29752D01*
X60055Y-30044D01*
X59514Y-30584D01*
X59221Y-31289D01*
X59221Y-32053D01*
X59513Y-32759D01*
X60052Y-33300D01*
X60758Y-33592D01*
X61521Y-33593D01*
X62227Y-33301D01*
X62768Y-32762D01*
X62942Y-32344D01*
X62942Y-38926D01*
M02*
