M48
;DRILL file {Pcbnew (2013-07-07 BZR 4022)-stable} date 2016-03-24 오전 10:08:20
;FORMAT={-:-/ absolute / metric / decimal}
FMAT,2
METRIC,TZ
T1C0.500
T2C0.635
T3C0.762
T4C0.813
T5C1.000
T6C1.016
T7C1.300
T8C2.301
T9C3.048
%
G90
G05
M71
T2
X103.1Y-65.
X103.1Y-69.1
X105.Y-48.
X105.Y-50.
X107.Y-48.
X107.Y-50.
X107.45Y-62.
X107.5Y-63.9
X107.5Y-66.
X107.5Y-70.
X110.Y-89.
X110.Y-91.
X112.Y-89.
X112.Y-91.
X115.Y-75.
X115.Y-77.
X117.Y-75.
X117.Y-77.
X125.Y-59.5
X125.Y-64.1
X125.Y-66.
X125.Y-68.
X125.Y-72.
X125.8Y-45.8
X126.Y-41.5
X126.Y-50.6
X126.5Y-47.5
X126.7Y-45.1
X126.8Y-51.4
X127.Y-38.
X127.6Y-44.6
X127.6Y-57.3
X128.4Y-56.2
X129.Y-39.5
X130.Y-51.8
X130.Y-67.
X130.Y-69.5
X131.Y-34.5
X131.1Y-52.8
X132.5Y-49.5
X132.5Y-67.
X132.5Y-71.
X134.Y-49.
X136.Y-39.5
X136.5Y-64.
X136.5Y-66.
X136.5Y-68.
X136.5Y-72.
X137.7Y-97.7
X138.Y-47.5
X138.7Y-96.6
X139.Y-50.
X139.5Y-48.5
X139.7Y-95.7
X140.6Y-94.4
X141.5Y-59.5
X142.5Y-39.5
X144.Y-75.
X144.Y-77.
X146.Y-75.
X146.Y-77.
X150.Y-89.
X150.Y-91.
X152.Y-49.
X152.Y-51.
X152.Y-89.
X152.Y-91.
X153.5Y-64.
X153.5Y-66.
X153.5Y-70.
X154.Y-49.
X154.Y-51.
X156.Y-67.
X158.Y-65.
X158.Y-69.
T3
X120.Y-45.46
X120.Y-50.54
T4
X106.73Y-28.
X109.27Y-28.
X128.73Y-29.2
X128.73Y-31.199
X131.27Y-29.2
X131.27Y-31.199
X151.73Y-28.
X154.27Y-28.
T5
X142.75Y-21.5
X147.25Y-21.5
T6
X112.5Y-40.65
X112.5Y-43.19
X112.5Y-45.73
X112.5Y-48.27
X112.5Y-50.81
X112.5Y-53.35
X125.412Y-91.73
X126.809Y-94.27
X128.206Y-91.73
X129.603Y-94.27
X131.Y-91.73
X132.27Y-94.27
X133.667Y-91.73
X135.064Y-94.27
X136.461Y-91.73
T7
X141.5Y-24.
X148.5Y-24.
T8
X135.999Y-26.5
T9
X118.173Y-94.27
X143.573Y-94.27
T1
X113.25Y-26.G85X113.25Y-27.
G05
X115.5Y-29.5G85X114.5Y-29.5
G05
X116.75Y-26.G85X116.75Y-27.
G05
T0
M30
