G04 (created by PCBNEW (2013-07-07 BZR 4022)-stable) date 2016-03-24 오전 10:08:22*
%MOIN*%
G04 Gerber Fmt 3.4, Leading zero omitted, Abs format*
%FSLAX34Y34*%
G01*
G70*
G90*
G04 APERTURE LIST*
%ADD10C,0.005*%
%ADD11C,0.00787402*%
%ADD12C,0.011811*%
G04 APERTURE END LIST*
G54D10*
G54D11*
X44980Y-8759D02*
X45570Y-9350D01*
X45570Y-8759D02*
X44980Y-9350D01*
X49272Y-10433D02*
G75*
G03X49272Y-10433I-453J0D01*
G74*
G01*
X45787Y-12500D02*
X45787Y-13484D01*
X45295Y-12992D02*
X46279Y-12992D01*
X56811Y-12500D02*
X56811Y-13484D01*
X56318Y-12992D02*
X57303Y-12992D01*
X42361Y-16475D02*
X42361Y-14666D01*
X40551Y-14666D01*
X40551Y-16475D01*
X42361Y-16475D01*
X42361Y-32577D02*
X42361Y-30768D01*
X40551Y-30768D01*
X40551Y-32577D01*
X42361Y-32577D01*
X61967Y-16495D02*
X61967Y-14685D01*
X60158Y-14685D01*
X60158Y-16495D01*
X61967Y-16495D01*
X62046Y-32577D02*
X62046Y-30768D01*
X60236Y-30768D01*
X60236Y-32577D01*
X62046Y-32577D01*
G54D12*
X1068Y-1777D02*
X1068Y-596D01*
X1349Y-596D01*
X1518Y-652D01*
X1631Y-764D01*
X1687Y-877D01*
X1743Y-1102D01*
X1743Y-1271D01*
X1687Y-1496D01*
X1631Y-1608D01*
X1518Y-1721D01*
X1349Y-1777D01*
X1068Y-1777D01*
X2249Y-1777D02*
X2249Y-989D01*
X2249Y-1214D02*
X2305Y-1102D01*
X2362Y-1046D01*
X2474Y-989D01*
X2587Y-989D01*
X2980Y-1777D02*
X2980Y-989D01*
X2980Y-596D02*
X2924Y-652D01*
X2980Y-708D01*
X3037Y-652D01*
X2980Y-596D01*
X2980Y-708D01*
X3712Y-1777D02*
X3599Y-1721D01*
X3543Y-1608D01*
X3543Y-596D01*
X4330Y-1777D02*
X4218Y-1721D01*
X4161Y-1608D01*
X4161Y-596D01*
X5680Y-1777D02*
X5680Y-596D01*
X6074Y-1439D01*
X6467Y-596D01*
X6467Y-1777D01*
X7536Y-1777D02*
X7536Y-1158D01*
X7480Y-1046D01*
X7367Y-989D01*
X7142Y-989D01*
X7030Y-1046D01*
X7536Y-1721D02*
X7424Y-1777D01*
X7142Y-1777D01*
X7030Y-1721D01*
X6974Y-1608D01*
X6974Y-1496D01*
X7030Y-1383D01*
X7142Y-1327D01*
X7424Y-1327D01*
X7536Y-1271D01*
X8098Y-989D02*
X8098Y-2170D01*
X8098Y-1046D02*
X8211Y-989D01*
X8436Y-989D01*
X8548Y-1046D01*
X8605Y-1102D01*
X8661Y-1214D01*
X8661Y-1552D01*
X8605Y-1664D01*
X8548Y-1721D01*
X8436Y-1777D01*
X8211Y-1777D01*
X8098Y-1721D01*
X9167Y-1664D02*
X9223Y-1721D01*
X9167Y-1777D01*
X9111Y-1721D01*
X9167Y-1664D01*
X9167Y-1777D01*
X9167Y-1046D02*
X9223Y-1102D01*
X9167Y-1158D01*
X9111Y-1102D01*
X9167Y-1046D01*
X9167Y-1158D01*
X-590Y-3484D02*
X0Y-4074D01*
X0Y-3484D02*
X-590Y-4074D01*
X1687Y-4257D02*
X1012Y-4257D01*
X1349Y-4257D02*
X1349Y-3076D01*
X1237Y-3245D01*
X1124Y-3357D01*
X1012Y-3413D01*
X2193Y-4145D02*
X2249Y-4201D01*
X2193Y-4257D01*
X2137Y-4201D01*
X2193Y-4145D01*
X2193Y-4257D01*
X3318Y-3076D02*
X2755Y-3076D01*
X2699Y-3638D01*
X2755Y-3582D01*
X2868Y-3526D01*
X3149Y-3526D01*
X3262Y-3582D01*
X3318Y-3638D01*
X3374Y-3751D01*
X3374Y-4032D01*
X3318Y-4145D01*
X3262Y-4201D01*
X3149Y-4257D01*
X2868Y-4257D01*
X2755Y-4201D01*
X2699Y-4145D01*
X4105Y-3076D02*
X4218Y-3076D01*
X4330Y-3132D01*
X4386Y-3188D01*
X4443Y-3301D01*
X4499Y-3526D01*
X4499Y-3807D01*
X4443Y-4032D01*
X4386Y-4145D01*
X4330Y-4201D01*
X4218Y-4257D01*
X4105Y-4257D01*
X3993Y-4201D01*
X3937Y-4145D01*
X3880Y-4032D01*
X3824Y-3807D01*
X3824Y-3526D01*
X3880Y-3301D01*
X3937Y-3188D01*
X3993Y-3132D01*
X4105Y-3076D01*
X5005Y-4257D02*
X5005Y-3470D01*
X5005Y-3582D02*
X5061Y-3526D01*
X5174Y-3470D01*
X5343Y-3470D01*
X5455Y-3526D01*
X5511Y-3638D01*
X5511Y-4257D01*
X5511Y-3638D02*
X5568Y-3526D01*
X5680Y-3470D01*
X5849Y-3470D01*
X5961Y-3526D01*
X6017Y-3638D01*
X6017Y-4257D01*
X6580Y-4257D02*
X6580Y-3470D01*
X6580Y-3582D02*
X6636Y-3526D01*
X6749Y-3470D01*
X6917Y-3470D01*
X7030Y-3526D01*
X7086Y-3638D01*
X7086Y-4257D01*
X7086Y-3638D02*
X7142Y-3526D01*
X7255Y-3470D01*
X7424Y-3470D01*
X7536Y-3526D01*
X7592Y-3638D01*
X7592Y-4257D01*
X9898Y-3020D02*
X8886Y-4538D01*
X11417Y-3076D02*
X11529Y-3076D01*
X11642Y-3132D01*
X11698Y-3188D01*
X11754Y-3301D01*
X11811Y-3526D01*
X11811Y-3807D01*
X11754Y-4032D01*
X11698Y-4145D01*
X11642Y-4201D01*
X11529Y-4257D01*
X11417Y-4257D01*
X11304Y-4201D01*
X11248Y-4145D01*
X11192Y-4032D01*
X11136Y-3807D01*
X11136Y-3526D01*
X11192Y-3301D01*
X11248Y-3188D01*
X11304Y-3132D01*
X11417Y-3076D01*
X12317Y-4145D02*
X12373Y-4201D01*
X12317Y-4257D01*
X12260Y-4201D01*
X12317Y-4145D01*
X12317Y-4257D01*
X13104Y-3076D02*
X13217Y-3076D01*
X13329Y-3132D01*
X13385Y-3188D01*
X13442Y-3301D01*
X13498Y-3526D01*
X13498Y-3807D01*
X13442Y-4032D01*
X13385Y-4145D01*
X13329Y-4201D01*
X13217Y-4257D01*
X13104Y-4257D01*
X12992Y-4201D01*
X12935Y-4145D01*
X12879Y-4032D01*
X12823Y-3807D01*
X12823Y-3526D01*
X12879Y-3301D01*
X12935Y-3188D01*
X12992Y-3132D01*
X13104Y-3076D01*
X14566Y-3076D02*
X14004Y-3076D01*
X13948Y-3638D01*
X14004Y-3582D01*
X14116Y-3526D01*
X14398Y-3526D01*
X14510Y-3582D01*
X14566Y-3638D01*
X14623Y-3751D01*
X14623Y-4032D01*
X14566Y-4145D01*
X14510Y-4201D01*
X14398Y-4257D01*
X14116Y-4257D01*
X14004Y-4201D01*
X13948Y-4145D01*
X15185Y-4257D02*
X15410Y-4257D01*
X15523Y-4201D01*
X15579Y-4145D01*
X15691Y-3976D01*
X15748Y-3751D01*
X15748Y-3301D01*
X15691Y-3188D01*
X15635Y-3132D01*
X15523Y-3076D01*
X15298Y-3076D01*
X15185Y-3132D01*
X15129Y-3188D01*
X15073Y-3301D01*
X15073Y-3582D01*
X15129Y-3695D01*
X15185Y-3751D01*
X15298Y-3807D01*
X15523Y-3807D01*
X15635Y-3751D01*
X15691Y-3695D01*
X15748Y-3582D01*
X16197Y-3076D02*
X16197Y-3301D01*
X16647Y-3076D02*
X16647Y-3301D01*
X18391Y-4707D02*
X18335Y-4651D01*
X18222Y-4482D01*
X18166Y-4370D01*
X18110Y-4201D01*
X18053Y-3920D01*
X18053Y-3695D01*
X18110Y-3413D01*
X18166Y-3245D01*
X18222Y-3132D01*
X18335Y-2964D01*
X18391Y-2907D01*
X19460Y-4257D02*
X18785Y-4257D01*
X19122Y-4257D02*
X19122Y-3076D01*
X19010Y-3245D01*
X18897Y-3357D01*
X18785Y-3413D01*
X20866Y-4257D02*
X20866Y-3076D01*
X21372Y-4257D02*
X21372Y-3638D01*
X21316Y-3526D01*
X21203Y-3470D01*
X21034Y-3470D01*
X20922Y-3526D01*
X20866Y-3582D01*
X22103Y-4257D02*
X21991Y-4201D01*
X21934Y-4145D01*
X21878Y-4032D01*
X21878Y-3695D01*
X21934Y-3582D01*
X21991Y-3526D01*
X22103Y-3470D01*
X22272Y-3470D01*
X22384Y-3526D01*
X22440Y-3582D01*
X22497Y-3695D01*
X22497Y-4032D01*
X22440Y-4145D01*
X22384Y-4201D01*
X22272Y-4257D01*
X22103Y-4257D01*
X23172Y-4257D02*
X23059Y-4201D01*
X23003Y-4088D01*
X23003Y-3076D01*
X24071Y-4201D02*
X23959Y-4257D01*
X23734Y-4257D01*
X23622Y-4201D01*
X23565Y-4088D01*
X23565Y-3638D01*
X23622Y-3526D01*
X23734Y-3470D01*
X23959Y-3470D01*
X24071Y-3526D01*
X24128Y-3638D01*
X24128Y-3751D01*
X23565Y-3863D01*
X24521Y-4707D02*
X24578Y-4651D01*
X24690Y-4482D01*
X24746Y-4370D01*
X24803Y-4201D01*
X24859Y-3920D01*
X24859Y-3695D01*
X24803Y-3413D01*
X24746Y-3245D01*
X24690Y-3132D01*
X24578Y-2964D01*
X24521Y-2907D01*
G54D11*
X0Y-5338D02*
G75*
G03X0Y-5338I-453J0D01*
G74*
G01*
G54D12*
X1012Y-4748D02*
X1068Y-4691D01*
X1181Y-4635D01*
X1462Y-4635D01*
X1574Y-4691D01*
X1631Y-4748D01*
X1687Y-4860D01*
X1687Y-4973D01*
X1631Y-5141D01*
X956Y-5816D01*
X1687Y-5816D01*
X2193Y-5704D02*
X2249Y-5760D01*
X2193Y-5816D01*
X2137Y-5760D01*
X2193Y-5704D01*
X2193Y-5816D01*
X2643Y-4635D02*
X3374Y-4635D01*
X2980Y-5085D01*
X3149Y-5085D01*
X3262Y-5141D01*
X3318Y-5197D01*
X3374Y-5310D01*
X3374Y-5591D01*
X3318Y-5704D01*
X3262Y-5760D01*
X3149Y-5816D01*
X2812Y-5816D01*
X2699Y-5760D01*
X2643Y-5704D01*
X4105Y-4635D02*
X4218Y-4635D01*
X4330Y-4691D01*
X4386Y-4748D01*
X4443Y-4860D01*
X4499Y-5085D01*
X4499Y-5366D01*
X4443Y-5591D01*
X4386Y-5704D01*
X4330Y-5760D01*
X4218Y-5816D01*
X4105Y-5816D01*
X3993Y-5760D01*
X3937Y-5704D01*
X3880Y-5591D01*
X3824Y-5366D01*
X3824Y-5085D01*
X3880Y-4860D01*
X3937Y-4748D01*
X3993Y-4691D01*
X4105Y-4635D01*
X5005Y-5816D02*
X5005Y-5029D01*
X5005Y-5141D02*
X5061Y-5085D01*
X5174Y-5029D01*
X5343Y-5029D01*
X5455Y-5085D01*
X5511Y-5197D01*
X5511Y-5816D01*
X5511Y-5197D02*
X5568Y-5085D01*
X5680Y-5029D01*
X5849Y-5029D01*
X5961Y-5085D01*
X6017Y-5197D01*
X6017Y-5816D01*
X6580Y-5816D02*
X6580Y-5029D01*
X6580Y-5141D02*
X6636Y-5085D01*
X6749Y-5029D01*
X6917Y-5029D01*
X7030Y-5085D01*
X7086Y-5197D01*
X7086Y-5816D01*
X7086Y-5197D02*
X7142Y-5085D01*
X7255Y-5029D01*
X7424Y-5029D01*
X7536Y-5085D01*
X7592Y-5197D01*
X7592Y-5816D01*
X9898Y-4579D02*
X8886Y-6097D01*
X11417Y-4635D02*
X11529Y-4635D01*
X11642Y-4691D01*
X11698Y-4748D01*
X11754Y-4860D01*
X11811Y-5085D01*
X11811Y-5366D01*
X11754Y-5591D01*
X11698Y-5704D01*
X11642Y-5760D01*
X11529Y-5816D01*
X11417Y-5816D01*
X11304Y-5760D01*
X11248Y-5704D01*
X11192Y-5591D01*
X11136Y-5366D01*
X11136Y-5085D01*
X11192Y-4860D01*
X11248Y-4748D01*
X11304Y-4691D01*
X11417Y-4635D01*
X12317Y-5704D02*
X12373Y-5760D01*
X12317Y-5816D01*
X12260Y-5760D01*
X12317Y-5704D01*
X12317Y-5816D01*
X13104Y-4635D02*
X13217Y-4635D01*
X13329Y-4691D01*
X13385Y-4748D01*
X13442Y-4860D01*
X13498Y-5085D01*
X13498Y-5366D01*
X13442Y-5591D01*
X13385Y-5704D01*
X13329Y-5760D01*
X13217Y-5816D01*
X13104Y-5816D01*
X12992Y-5760D01*
X12935Y-5704D01*
X12879Y-5591D01*
X12823Y-5366D01*
X12823Y-5085D01*
X12879Y-4860D01*
X12935Y-4748D01*
X12992Y-4691D01*
X13104Y-4635D01*
X14060Y-5816D02*
X14285Y-5816D01*
X14398Y-5760D01*
X14454Y-5704D01*
X14566Y-5535D01*
X14623Y-5310D01*
X14623Y-4860D01*
X14566Y-4748D01*
X14510Y-4691D01*
X14398Y-4635D01*
X14173Y-4635D01*
X14060Y-4691D01*
X14004Y-4748D01*
X13948Y-4860D01*
X13948Y-5141D01*
X14004Y-5254D01*
X14060Y-5310D01*
X14173Y-5366D01*
X14398Y-5366D01*
X14510Y-5310D01*
X14566Y-5254D01*
X14623Y-5141D01*
X15748Y-5816D02*
X15073Y-5816D01*
X15410Y-5816D02*
X15410Y-4635D01*
X15298Y-4804D01*
X15185Y-4916D01*
X15073Y-4973D01*
X16197Y-4635D02*
X16197Y-4860D01*
X16647Y-4635D02*
X16647Y-4860D01*
X18391Y-6266D02*
X18335Y-6210D01*
X18222Y-6041D01*
X18166Y-5929D01*
X18110Y-5760D01*
X18053Y-5479D01*
X18053Y-5254D01*
X18110Y-4973D01*
X18166Y-4804D01*
X18222Y-4691D01*
X18335Y-4523D01*
X18391Y-4466D01*
X19460Y-5816D02*
X18785Y-5816D01*
X19122Y-5816D02*
X19122Y-4635D01*
X19010Y-4804D01*
X18897Y-4916D01*
X18785Y-4973D01*
X20866Y-5816D02*
X20866Y-4635D01*
X21372Y-5816D02*
X21372Y-5197D01*
X21316Y-5085D01*
X21203Y-5029D01*
X21034Y-5029D01*
X20922Y-5085D01*
X20866Y-5141D01*
X22103Y-5816D02*
X21991Y-5760D01*
X21934Y-5704D01*
X21878Y-5591D01*
X21878Y-5254D01*
X21934Y-5141D01*
X21991Y-5085D01*
X22103Y-5029D01*
X22272Y-5029D01*
X22384Y-5085D01*
X22440Y-5141D01*
X22497Y-5254D01*
X22497Y-5591D01*
X22440Y-5704D01*
X22384Y-5760D01*
X22272Y-5816D01*
X22103Y-5816D01*
X23172Y-5816D02*
X23059Y-5760D01*
X23003Y-5647D01*
X23003Y-4635D01*
X24071Y-5760D02*
X23959Y-5816D01*
X23734Y-5816D01*
X23622Y-5760D01*
X23565Y-5647D01*
X23565Y-5197D01*
X23622Y-5085D01*
X23734Y-5029D01*
X23959Y-5029D01*
X24071Y-5085D01*
X24128Y-5197D01*
X24128Y-5310D01*
X23565Y-5422D01*
X24521Y-6266D02*
X24578Y-6210D01*
X24690Y-6041D01*
X24746Y-5929D01*
X24803Y-5760D01*
X24859Y-5479D01*
X24859Y-5254D01*
X24803Y-4973D01*
X24746Y-4804D01*
X24690Y-4691D01*
X24578Y-4523D01*
X24521Y-4466D01*
X-492Y-6405D02*
X-492Y-7389D01*
X-984Y-6897D02*
X0Y-6897D01*
X1012Y-6307D02*
X1068Y-6250D01*
X1181Y-6194D01*
X1462Y-6194D01*
X1574Y-6250D01*
X1631Y-6307D01*
X1687Y-6419D01*
X1687Y-6532D01*
X1631Y-6700D01*
X956Y-7375D01*
X1687Y-7375D01*
X2193Y-7263D02*
X2249Y-7319D01*
X2193Y-7375D01*
X2137Y-7319D01*
X2193Y-7263D01*
X2193Y-7375D01*
X3318Y-6194D02*
X2755Y-6194D01*
X2699Y-6757D01*
X2755Y-6700D01*
X2868Y-6644D01*
X3149Y-6644D01*
X3262Y-6700D01*
X3318Y-6757D01*
X3374Y-6869D01*
X3374Y-7150D01*
X3318Y-7263D01*
X3262Y-7319D01*
X3149Y-7375D01*
X2868Y-7375D01*
X2755Y-7319D01*
X2699Y-7263D01*
X4105Y-6194D02*
X4218Y-6194D01*
X4330Y-6250D01*
X4386Y-6307D01*
X4443Y-6419D01*
X4499Y-6644D01*
X4499Y-6925D01*
X4443Y-7150D01*
X4386Y-7263D01*
X4330Y-7319D01*
X4218Y-7375D01*
X4105Y-7375D01*
X3993Y-7319D01*
X3937Y-7263D01*
X3880Y-7150D01*
X3824Y-6925D01*
X3824Y-6644D01*
X3880Y-6419D01*
X3937Y-6307D01*
X3993Y-6250D01*
X4105Y-6194D01*
X5005Y-7375D02*
X5005Y-6588D01*
X5005Y-6700D02*
X5061Y-6644D01*
X5174Y-6588D01*
X5343Y-6588D01*
X5455Y-6644D01*
X5511Y-6757D01*
X5511Y-7375D01*
X5511Y-6757D02*
X5568Y-6644D01*
X5680Y-6588D01*
X5849Y-6588D01*
X5961Y-6644D01*
X6017Y-6757D01*
X6017Y-7375D01*
X6580Y-7375D02*
X6580Y-6588D01*
X6580Y-6700D02*
X6636Y-6644D01*
X6749Y-6588D01*
X6917Y-6588D01*
X7030Y-6644D01*
X7086Y-6757D01*
X7086Y-7375D01*
X7086Y-6757D02*
X7142Y-6644D01*
X7255Y-6588D01*
X7424Y-6588D01*
X7536Y-6644D01*
X7592Y-6757D01*
X7592Y-7375D01*
X9898Y-6138D02*
X8886Y-7656D01*
X11417Y-6194D02*
X11529Y-6194D01*
X11642Y-6250D01*
X11698Y-6307D01*
X11754Y-6419D01*
X11811Y-6644D01*
X11811Y-6925D01*
X11754Y-7150D01*
X11698Y-7263D01*
X11642Y-7319D01*
X11529Y-7375D01*
X11417Y-7375D01*
X11304Y-7319D01*
X11248Y-7263D01*
X11192Y-7150D01*
X11136Y-6925D01*
X11136Y-6644D01*
X11192Y-6419D01*
X11248Y-6307D01*
X11304Y-6250D01*
X11417Y-6194D01*
X12317Y-7263D02*
X12373Y-7319D01*
X12317Y-7375D01*
X12260Y-7319D01*
X12317Y-7263D01*
X12317Y-7375D01*
X13104Y-6194D02*
X13217Y-6194D01*
X13329Y-6250D01*
X13385Y-6307D01*
X13442Y-6419D01*
X13498Y-6644D01*
X13498Y-6925D01*
X13442Y-7150D01*
X13385Y-7263D01*
X13329Y-7319D01*
X13217Y-7375D01*
X13104Y-7375D01*
X12992Y-7319D01*
X12935Y-7263D01*
X12879Y-7150D01*
X12823Y-6925D01*
X12823Y-6644D01*
X12879Y-6419D01*
X12935Y-6307D01*
X12992Y-6250D01*
X13104Y-6194D01*
X14060Y-7375D02*
X14285Y-7375D01*
X14398Y-7319D01*
X14454Y-7263D01*
X14566Y-7094D01*
X14623Y-6869D01*
X14623Y-6419D01*
X14566Y-6307D01*
X14510Y-6250D01*
X14398Y-6194D01*
X14173Y-6194D01*
X14060Y-6250D01*
X14004Y-6307D01*
X13948Y-6419D01*
X13948Y-6700D01*
X14004Y-6813D01*
X14060Y-6869D01*
X14173Y-6925D01*
X14398Y-6925D01*
X14510Y-6869D01*
X14566Y-6813D01*
X14623Y-6700D01*
X15298Y-6700D02*
X15185Y-6644D01*
X15129Y-6588D01*
X15073Y-6475D01*
X15073Y-6419D01*
X15129Y-6307D01*
X15185Y-6250D01*
X15298Y-6194D01*
X15523Y-6194D01*
X15635Y-6250D01*
X15691Y-6307D01*
X15748Y-6419D01*
X15748Y-6475D01*
X15691Y-6588D01*
X15635Y-6644D01*
X15523Y-6700D01*
X15298Y-6700D01*
X15185Y-6757D01*
X15129Y-6813D01*
X15073Y-6925D01*
X15073Y-7150D01*
X15129Y-7263D01*
X15185Y-7319D01*
X15298Y-7375D01*
X15523Y-7375D01*
X15635Y-7319D01*
X15691Y-7263D01*
X15748Y-7150D01*
X15748Y-6925D01*
X15691Y-6813D01*
X15635Y-6757D01*
X15523Y-6700D01*
X16197Y-6194D02*
X16197Y-6419D01*
X16647Y-6194D02*
X16647Y-6419D01*
X18391Y-7825D02*
X18335Y-7769D01*
X18222Y-7600D01*
X18166Y-7488D01*
X18110Y-7319D01*
X18053Y-7038D01*
X18053Y-6813D01*
X18110Y-6532D01*
X18166Y-6363D01*
X18222Y-6250D01*
X18335Y-6082D01*
X18391Y-6025D01*
X18785Y-6307D02*
X18841Y-6250D01*
X18953Y-6194D01*
X19235Y-6194D01*
X19347Y-6250D01*
X19403Y-6307D01*
X19460Y-6419D01*
X19460Y-6532D01*
X19403Y-6700D01*
X18728Y-7375D01*
X19460Y-7375D01*
X20866Y-7375D02*
X20866Y-6194D01*
X21372Y-7375D02*
X21372Y-6757D01*
X21316Y-6644D01*
X21203Y-6588D01*
X21034Y-6588D01*
X20922Y-6644D01*
X20866Y-6700D01*
X22103Y-7375D02*
X21991Y-7319D01*
X21934Y-7263D01*
X21878Y-7150D01*
X21878Y-6813D01*
X21934Y-6700D01*
X21991Y-6644D01*
X22103Y-6588D01*
X22272Y-6588D01*
X22384Y-6644D01*
X22440Y-6700D01*
X22497Y-6813D01*
X22497Y-7150D01*
X22440Y-7263D01*
X22384Y-7319D01*
X22272Y-7375D01*
X22103Y-7375D01*
X23172Y-7375D02*
X23059Y-7319D01*
X23003Y-7206D01*
X23003Y-6194D01*
X24071Y-7319D02*
X23959Y-7375D01*
X23734Y-7375D01*
X23622Y-7319D01*
X23565Y-7206D01*
X23565Y-6757D01*
X23622Y-6644D01*
X23734Y-6588D01*
X23959Y-6588D01*
X24071Y-6644D01*
X24128Y-6757D01*
X24128Y-6869D01*
X23565Y-6982D01*
X24578Y-7319D02*
X24690Y-7375D01*
X24915Y-7375D01*
X25028Y-7319D01*
X25084Y-7206D01*
X25084Y-7150D01*
X25028Y-7038D01*
X24915Y-6982D01*
X24746Y-6982D01*
X24634Y-6925D01*
X24578Y-6813D01*
X24578Y-6757D01*
X24634Y-6644D01*
X24746Y-6588D01*
X24915Y-6588D01*
X25028Y-6644D01*
X25478Y-7825D02*
X25534Y-7769D01*
X25646Y-7600D01*
X25703Y-7488D01*
X25759Y-7319D01*
X25815Y-7038D01*
X25815Y-6813D01*
X25759Y-6532D01*
X25703Y-6363D01*
X25646Y-6250D01*
X25534Y-6082D01*
X25478Y-6025D01*
G54D11*
X-374Y-9361D02*
X-374Y-7551D01*
X-2184Y-7551D01*
X-2184Y-9361D01*
X-374Y-9361D01*
G54D12*
X1574Y-7753D02*
X1349Y-7753D01*
X1237Y-7809D01*
X1181Y-7866D01*
X1068Y-8034D01*
X1012Y-8259D01*
X1012Y-8709D01*
X1068Y-8822D01*
X1124Y-8878D01*
X1237Y-8934D01*
X1462Y-8934D01*
X1574Y-8878D01*
X1631Y-8822D01*
X1687Y-8709D01*
X1687Y-8428D01*
X1631Y-8316D01*
X1574Y-8259D01*
X1462Y-8203D01*
X1237Y-8203D01*
X1124Y-8259D01*
X1068Y-8316D01*
X1012Y-8428D01*
X2193Y-8822D02*
X2249Y-8878D01*
X2193Y-8934D01*
X2137Y-8878D01*
X2193Y-8822D01*
X2193Y-8934D01*
X3318Y-7753D02*
X2755Y-7753D01*
X2699Y-8316D01*
X2755Y-8259D01*
X2868Y-8203D01*
X3149Y-8203D01*
X3262Y-8259D01*
X3318Y-8316D01*
X3374Y-8428D01*
X3374Y-8709D01*
X3318Y-8822D01*
X3262Y-8878D01*
X3149Y-8934D01*
X2868Y-8934D01*
X2755Y-8878D01*
X2699Y-8822D01*
X4105Y-7753D02*
X4218Y-7753D01*
X4330Y-7809D01*
X4386Y-7866D01*
X4443Y-7978D01*
X4499Y-8203D01*
X4499Y-8484D01*
X4443Y-8709D01*
X4386Y-8822D01*
X4330Y-8878D01*
X4218Y-8934D01*
X4105Y-8934D01*
X3993Y-8878D01*
X3937Y-8822D01*
X3880Y-8709D01*
X3824Y-8484D01*
X3824Y-8203D01*
X3880Y-7978D01*
X3937Y-7866D01*
X3993Y-7809D01*
X4105Y-7753D01*
X5005Y-8934D02*
X5005Y-8147D01*
X5005Y-8259D02*
X5061Y-8203D01*
X5174Y-8147D01*
X5343Y-8147D01*
X5455Y-8203D01*
X5511Y-8316D01*
X5511Y-8934D01*
X5511Y-8316D02*
X5568Y-8203D01*
X5680Y-8147D01*
X5849Y-8147D01*
X5961Y-8203D01*
X6017Y-8316D01*
X6017Y-8934D01*
X6580Y-8934D02*
X6580Y-8147D01*
X6580Y-8259D02*
X6636Y-8203D01*
X6749Y-8147D01*
X6917Y-8147D01*
X7030Y-8203D01*
X7086Y-8316D01*
X7086Y-8934D01*
X7086Y-8316D02*
X7142Y-8203D01*
X7255Y-8147D01*
X7424Y-8147D01*
X7536Y-8203D01*
X7592Y-8316D01*
X7592Y-8934D01*
X9898Y-7697D02*
X8886Y-9215D01*
X11417Y-7753D02*
X11529Y-7753D01*
X11642Y-7809D01*
X11698Y-7866D01*
X11754Y-7978D01*
X11811Y-8203D01*
X11811Y-8484D01*
X11754Y-8709D01*
X11698Y-8822D01*
X11642Y-8878D01*
X11529Y-8934D01*
X11417Y-8934D01*
X11304Y-8878D01*
X11248Y-8822D01*
X11192Y-8709D01*
X11136Y-8484D01*
X11136Y-8203D01*
X11192Y-7978D01*
X11248Y-7866D01*
X11304Y-7809D01*
X11417Y-7753D01*
X12317Y-8822D02*
X12373Y-8878D01*
X12317Y-8934D01*
X12260Y-8878D01*
X12317Y-8822D01*
X12317Y-8934D01*
X12823Y-7866D02*
X12879Y-7809D01*
X12992Y-7753D01*
X13273Y-7753D01*
X13385Y-7809D01*
X13442Y-7866D01*
X13498Y-7978D01*
X13498Y-8091D01*
X13442Y-8259D01*
X12767Y-8934D01*
X13498Y-8934D01*
X14566Y-7753D02*
X14004Y-7753D01*
X13948Y-8316D01*
X14004Y-8259D01*
X14116Y-8203D01*
X14398Y-8203D01*
X14510Y-8259D01*
X14566Y-8316D01*
X14623Y-8428D01*
X14623Y-8709D01*
X14566Y-8822D01*
X14510Y-8878D01*
X14398Y-8934D01*
X14116Y-8934D01*
X14004Y-8878D01*
X13948Y-8822D01*
X15635Y-7753D02*
X15410Y-7753D01*
X15298Y-7809D01*
X15241Y-7866D01*
X15129Y-8034D01*
X15073Y-8259D01*
X15073Y-8709D01*
X15129Y-8822D01*
X15185Y-8878D01*
X15298Y-8934D01*
X15523Y-8934D01*
X15635Y-8878D01*
X15691Y-8822D01*
X15748Y-8709D01*
X15748Y-8428D01*
X15691Y-8316D01*
X15635Y-8259D01*
X15523Y-8203D01*
X15298Y-8203D01*
X15185Y-8259D01*
X15129Y-8316D01*
X15073Y-8428D01*
X16197Y-7753D02*
X16197Y-7978D01*
X16647Y-7753D02*
X16647Y-7978D01*
X18391Y-9384D02*
X18335Y-9328D01*
X18222Y-9159D01*
X18166Y-9047D01*
X18110Y-8878D01*
X18053Y-8597D01*
X18053Y-8372D01*
X18110Y-8091D01*
X18166Y-7922D01*
X18222Y-7809D01*
X18335Y-7641D01*
X18391Y-7584D01*
X19347Y-8147D02*
X19347Y-8934D01*
X19066Y-7697D02*
X18785Y-8541D01*
X19516Y-8541D01*
X20866Y-8934D02*
X20866Y-7753D01*
X21372Y-8934D02*
X21372Y-8316D01*
X21316Y-8203D01*
X21203Y-8147D01*
X21034Y-8147D01*
X20922Y-8203D01*
X20866Y-8259D01*
X22103Y-8934D02*
X21991Y-8878D01*
X21934Y-8822D01*
X21878Y-8709D01*
X21878Y-8372D01*
X21934Y-8259D01*
X21991Y-8203D01*
X22103Y-8147D01*
X22272Y-8147D01*
X22384Y-8203D01*
X22440Y-8259D01*
X22497Y-8372D01*
X22497Y-8709D01*
X22440Y-8822D01*
X22384Y-8878D01*
X22272Y-8934D01*
X22103Y-8934D01*
X23172Y-8934D02*
X23059Y-8878D01*
X23003Y-8766D01*
X23003Y-7753D01*
X24071Y-8878D02*
X23959Y-8934D01*
X23734Y-8934D01*
X23622Y-8878D01*
X23565Y-8766D01*
X23565Y-8316D01*
X23622Y-8203D01*
X23734Y-8147D01*
X23959Y-8147D01*
X24071Y-8203D01*
X24128Y-8316D01*
X24128Y-8428D01*
X23565Y-8541D01*
X24578Y-8878D02*
X24690Y-8934D01*
X24915Y-8934D01*
X25028Y-8878D01*
X25084Y-8766D01*
X25084Y-8709D01*
X25028Y-8597D01*
X24915Y-8541D01*
X24746Y-8541D01*
X24634Y-8484D01*
X24578Y-8372D01*
X24578Y-8316D01*
X24634Y-8203D01*
X24746Y-8147D01*
X24915Y-8147D01*
X25028Y-8203D01*
X25478Y-9384D02*
X25534Y-9328D01*
X25646Y-9159D01*
X25703Y-9047D01*
X25759Y-8878D01*
X25815Y-8597D01*
X25815Y-8372D01*
X25759Y-8091D01*
X25703Y-7922D01*
X25646Y-7809D01*
X25534Y-7641D01*
X25478Y-7584D01*
M02*
