G04 (created by PCBNEW (2013-07-07 BZR 4022)-stable) date 2016-03-28 오후 2:58:30*
%MOIN*%
G04 Gerber Fmt 3.4, Leading zero omitted, Abs format*
%FSLAX34Y34*%
G01*
G70*
G90*
G04 APERTURE LIST*
%ADD10C,0.00590551*%
%ADD11C,0.15748*%
%ADD12C,0.334646*%
%ADD13R,0.06X0.016*%
%ADD14R,0.016X0.06*%
%ADD15C,0.06*%
%ADD16C,0.1063*%
%ADD17R,0.045X0.025*%
%ADD18R,0.06X0.06*%
%ADD19C,0.066*%
%ADD20C,0.056*%
%ADD21C,0.15*%
%ADD22R,0.045X0.02*%
%ADD23R,0.025X0.045*%
%ADD24C,0.0787402*%
%ADD25C,0.0629921*%
%ADD26R,0.0315X0.0394*%
%ADD27O,0.0590551X0.0984252*%
%ADD28O,0.0984252X0.0590551*%
G04 APERTURE END LIST*
G54D10*
G54D11*
X56811Y-12992D03*
G54D12*
X61141Y-31673D03*
X41456Y-31673D03*
G54D13*
X53431Y-19291D03*
X53431Y-18976D03*
X53431Y-18661D03*
X53431Y-18346D03*
X53431Y-18031D03*
X53431Y-17716D03*
X53431Y-19606D03*
X53431Y-19921D03*
X53431Y-20236D03*
X53431Y-20551D03*
X53431Y-20866D03*
X48931Y-19291D03*
X48931Y-18976D03*
X48931Y-18661D03*
X48931Y-18346D03*
X48931Y-18031D03*
X48931Y-17716D03*
X48931Y-19606D03*
X48931Y-19921D03*
X48931Y-20236D03*
X48931Y-20551D03*
X48931Y-20866D03*
G54D14*
X51181Y-17041D03*
X51181Y-21541D03*
X50866Y-17041D03*
X50866Y-21541D03*
X50551Y-21541D03*
X50551Y-17041D03*
X50236Y-17041D03*
X50236Y-21541D03*
X49921Y-21541D03*
X49921Y-17041D03*
X49606Y-17041D03*
X49606Y-21541D03*
X51496Y-21541D03*
X51496Y-17041D03*
X51811Y-17041D03*
X51811Y-21541D03*
X52126Y-21541D03*
X52126Y-17041D03*
X52441Y-17041D03*
X52441Y-21541D03*
X52756Y-21541D03*
X52756Y-17041D03*
G54D15*
X50681Y-12283D03*
X51681Y-12283D03*
X51681Y-11496D03*
X50681Y-11496D03*
G54D16*
X48819Y-10433D03*
X53543Y-10433D03*
G54D17*
X56299Y-17229D03*
X56299Y-16629D03*
G54D18*
X44291Y-16003D03*
G54D15*
X44291Y-17003D03*
X44291Y-18003D03*
X44291Y-19003D03*
X44291Y-20003D03*
X44291Y-21003D03*
G54D19*
X59736Y-11023D03*
X60736Y-11023D03*
X42019Y-11023D03*
X43019Y-11023D03*
G54D20*
X47244Y-17897D03*
X47244Y-19897D03*
G54D21*
X46524Y-37114D03*
X56524Y-37114D03*
G54D18*
X49374Y-36114D03*
G54D15*
X50474Y-36114D03*
X51574Y-36114D03*
X52624Y-36114D03*
X53724Y-36114D03*
X53174Y-37114D03*
X52074Y-37114D03*
X51024Y-37114D03*
X49924Y-37114D03*
G54D22*
X55986Y-25271D03*
X55986Y-25771D03*
X55986Y-26271D03*
X55986Y-26771D03*
X55986Y-27271D03*
X55986Y-27771D03*
X55986Y-28271D03*
X58086Y-28271D03*
X58086Y-27771D03*
X58086Y-27271D03*
X58086Y-26771D03*
X58086Y-26271D03*
X58086Y-25771D03*
X58086Y-25271D03*
G54D23*
X41244Y-25196D03*
X40644Y-25196D03*
X48725Y-27559D03*
X48125Y-27559D03*
X54030Y-25196D03*
X54630Y-25196D03*
X54030Y-26771D03*
X54630Y-26771D03*
X48725Y-25196D03*
X48125Y-25196D03*
X42613Y-25196D03*
X43213Y-25196D03*
X60142Y-25984D03*
X59542Y-25984D03*
X42613Y-27559D03*
X43213Y-27559D03*
X60142Y-27559D03*
X59542Y-27559D03*
X60142Y-24409D03*
X59542Y-24409D03*
G54D17*
X53149Y-14070D03*
X53149Y-14670D03*
G54D23*
X42613Y-26771D03*
X43213Y-26771D03*
G54D17*
X52362Y-14070D03*
X52362Y-14670D03*
G54D23*
X59945Y-13188D03*
X59345Y-13188D03*
X54030Y-25984D03*
X54630Y-25984D03*
X48725Y-29133D03*
X48125Y-29133D03*
X52662Y-28346D03*
X52062Y-28346D03*
X52662Y-29921D03*
X52062Y-29921D03*
X54030Y-27559D03*
X54630Y-27559D03*
X48725Y-28346D03*
X48125Y-28346D03*
X61511Y-23622D03*
X62111Y-23622D03*
X61511Y-25196D03*
X62111Y-25196D03*
X41244Y-23622D03*
X40644Y-23622D03*
X52662Y-25984D03*
X52062Y-25984D03*
X41244Y-27559D03*
X40644Y-27559D03*
X43016Y-13188D03*
X42416Y-13188D03*
X42613Y-25984D03*
X43213Y-25984D03*
G54D17*
X55314Y-22731D03*
X55314Y-23331D03*
G54D23*
X61511Y-27559D03*
X62111Y-27559D03*
X54030Y-29133D03*
X54630Y-29133D03*
X48725Y-25984D03*
X48125Y-25984D03*
X60142Y-25196D03*
X59542Y-25196D03*
X50093Y-24409D03*
X50693Y-24409D03*
X42613Y-28346D03*
X43213Y-28346D03*
X42613Y-24409D03*
X43213Y-24409D03*
X50093Y-29921D03*
X50693Y-29921D03*
X50093Y-28346D03*
X50693Y-28346D03*
X41244Y-29133D03*
X40644Y-29133D03*
X48725Y-26771D03*
X48125Y-26771D03*
X52662Y-24409D03*
X52062Y-24409D03*
G54D17*
X49212Y-14070D03*
X49212Y-14670D03*
G54D23*
X50093Y-25984D03*
X50693Y-25984D03*
X61511Y-29133D03*
X62111Y-29133D03*
X60142Y-26771D03*
X59542Y-26771D03*
X60142Y-28346D03*
X59542Y-28346D03*
X54030Y-28346D03*
X54630Y-28346D03*
X50093Y-29133D03*
X50693Y-29133D03*
G54D17*
X45669Y-20378D03*
X45669Y-19778D03*
G54D23*
X45369Y-24212D03*
X45969Y-24212D03*
X41244Y-28346D03*
X40644Y-28346D03*
G54D17*
X50000Y-14670D03*
X50000Y-14070D03*
X55511Y-16629D03*
X55511Y-17229D03*
X54724Y-20772D03*
X54724Y-20172D03*
X55511Y-18803D03*
X55511Y-18203D03*
G54D23*
X52662Y-25196D03*
X52062Y-25196D03*
X40644Y-25984D03*
X41244Y-25984D03*
G54D17*
X51574Y-14070D03*
X51574Y-14670D03*
G54D23*
X50693Y-27559D03*
X50093Y-27559D03*
X52662Y-29133D03*
X52062Y-29133D03*
X50093Y-25196D03*
X50693Y-25196D03*
X40644Y-26771D03*
X41244Y-26771D03*
G54D17*
X45669Y-18410D03*
X45669Y-17810D03*
G54D23*
X41244Y-24409D03*
X40644Y-24409D03*
X56786Y-24409D03*
X57386Y-24409D03*
X52062Y-26771D03*
X52662Y-26771D03*
X52062Y-27559D03*
X52662Y-27559D03*
G54D17*
X52952Y-23331D03*
X52952Y-22731D03*
G54D23*
X50693Y-26771D03*
X50093Y-26771D03*
G54D24*
X58464Y-9448D03*
X55708Y-9448D03*
G54D25*
X57972Y-8464D03*
X56200Y-8464D03*
G54D26*
X54133Y-22401D03*
X54508Y-23267D03*
X53758Y-23267D03*
G54D23*
X61511Y-28346D03*
X62111Y-28346D03*
X62111Y-26771D03*
X61511Y-26771D03*
X61511Y-24409D03*
X62111Y-24409D03*
X62111Y-25984D03*
X61511Y-25984D03*
G54D22*
X44569Y-25271D03*
X44569Y-25771D03*
X44569Y-26271D03*
X44569Y-26771D03*
X44569Y-27271D03*
X44569Y-27771D03*
X44569Y-28271D03*
X46669Y-28271D03*
X46669Y-27771D03*
X46669Y-27271D03*
X46669Y-26771D03*
X46669Y-26271D03*
X46669Y-25771D03*
X46669Y-25271D03*
G54D27*
X45964Y-10433D03*
X44586Y-10433D03*
G54D28*
X45275Y-11614D03*
G54D24*
X45275Y-9055D03*
G54D12*
X41456Y-15570D03*
X61062Y-15590D03*
G54D11*
X45787Y-12992D03*
M02*
